<svg width="681" height="331" viewBox="0 0 681 331" fill="none" xmlns="http://www.w3.org/2000/svg">
<path style="mix-blend-mode:multiply" d="M32.4251 329.919V2.40527H679.251V266.372L652.838 329.919H32.4251Z" fill="url(#paint0_linear_28_919)"/>
<path d="M12.1321 4.56781C12.0106 4.56781 11.9013 4.56781 11.792 4.53136C11.6706 4.50706 11.5613 4.47062 11.4642 4.43418C11.3549 4.38558 11.2577 4.33699 11.1605 4.2641C11.0634 4.20336 10.9784 4.13047 10.8934 4.05758C10.5655 3.72958 10.3833 3.2801 10.3833 2.81847C10.3833 2.35685 10.5655 1.90737 10.8934 1.57937C10.9784 1.50648 11.0634 1.43359 11.1605 1.37285C11.2577 1.29996 11.3549 1.25137 11.4642 1.20277C11.5613 1.16633 11.6706 1.12989 11.792 1.10559C12.3507 0.996256 12.9579 1.17848 13.3587 1.57937C13.6865 1.90737 13.8687 2.35685 13.8687 2.81847C13.8687 3.2801 13.6865 3.72958 13.3587 4.05758C13.0308 4.37344 12.5814 4.56781 12.1321 4.56781Z" fill="white"/>
<path d="M10.3833 161.594C10.3833 160.623 11.1605 159.845 12.1321 159.845C13.0915 159.845 13.8687 160.623 13.8687 161.594C13.8687 162.554 13.0915 163.332 12.1321 163.332C11.1605 163.332 10.3833 162.554 10.3833 161.594ZM10.3833 154.779C10.3833 153.807 11.1605 153.03 12.1321 153.03C13.0915 153.03 13.8687 153.807 13.8687 154.779C13.8687 155.739 13.0915 156.516 12.1321 156.516C11.1605 156.516 10.3833 155.739 10.3833 154.779ZM10.3833 147.964C10.3833 146.992 11.1605 146.215 12.1321 146.215C13.0915 146.215 13.8687 146.992 13.8687 147.964C13.8687 148.924 13.0915 149.701 12.1321 149.701C11.1605 149.701 10.3833 148.924 10.3833 147.964ZM10.3833 141.149C10.3833 140.177 11.1605 139.4 12.1321 139.4C13.0915 139.4 13.8687 140.177 13.8687 141.149C13.8687 142.109 13.0915 142.886 12.1321 142.886C11.1605 142.886 10.3833 142.109 10.3833 141.149ZM10.3833 134.334C10.3833 133.362 11.1605 132.585 12.1321 132.585C13.0915 132.585 13.8687 133.362 13.8687 134.334C13.8687 135.294 13.0915 136.071 12.1321 136.071C11.1605 136.071 10.3833 135.294 10.3833 134.334ZM10.3833 127.507C10.3833 126.547 11.1605 125.77 12.1321 125.77C13.0915 125.77 13.8687 126.547 13.8687 127.507C13.8687 128.479 13.0915 129.256 12.1321 129.256C11.1605 129.256 10.3833 128.479 10.3833 127.507ZM10.3833 120.692C10.3833 119.732 11.1605 118.954 12.1321 118.954C13.0915 118.954 13.8687 119.732 13.8687 120.692C13.8687 121.664 13.0915 122.441 12.1321 122.441C11.1605 122.441 10.3833 121.664 10.3833 120.692ZM10.3833 113.877C10.3833 112.917 11.1605 112.139 12.1321 112.139C13.0915 112.139 13.8687 112.917 13.8687 113.877C13.8687 114.848 13.0915 115.626 12.1321 115.626C11.1605 115.626 10.3833 114.848 10.3833 113.877ZM10.3833 107.074C10.3833 106.102 11.1605 105.324 12.1321 105.324C13.0915 105.324 13.8687 106.102 13.8687 107.074C13.8687 108.033 13.0915 108.811 12.1321 108.811C11.1605 108.811 10.3833 108.033 10.3833 107.074ZM10.3833 100.246C10.3833 99.2867 11.1605 98.5092 12.1321 98.5092C13.0915 98.5092 13.8687 99.2867 13.8687 100.246C13.8687 101.218 13.0915 101.996 12.1321 101.996C11.1605 101.996 10.3833 101.218 10.3833 100.246ZM10.3833 93.4313C10.3833 92.4716 11.1605 91.6941 12.1321 91.6941C13.0915 91.6941 13.8687 92.4716 13.8687 93.4313C13.8687 94.4031 13.0915 95.1806 12.1321 95.1806C11.1605 95.1806 10.3833 94.4031 10.3833 93.4313ZM10.3833 86.6162C10.3833 85.6565 11.1605 84.879 12.1321 84.879C13.0915 84.879 13.8687 85.6565 13.8687 86.6162C13.8687 87.588 13.0915 88.3655 12.1321 88.3655C11.1605 88.3655 10.3833 87.588 10.3833 86.6162ZM10.3833 79.8011C10.3833 78.8414 11.1605 78.0639 12.1321 78.0639C13.0915 78.0639 13.8687 78.8414 13.8687 79.8011C13.8687 80.7729 13.0915 81.5504 12.1321 81.5504C11.1605 81.5504 10.3833 80.7729 10.3833 79.8011ZM10.3833 72.986C10.3833 72.0263 11.1605 71.2488 12.1321 71.2488C13.0915 71.2488 13.8687 72.0263 13.8687 72.986C13.8687 73.9457 13.0915 74.7353 12.1321 74.7353C11.1605 74.7353 10.3833 73.9457 10.3833 72.986ZM10.3833 66.1709C10.3833 65.2112 11.1605 64.4337 12.1321 64.4337C13.0915 64.4337 13.8687 65.2112 13.8687 66.1709C13.8687 67.1306 13.0915 67.9202 12.1321 67.9202C11.1605 67.9202 10.3833 67.1306 10.3833 66.1709ZM10.3833 59.3558C10.3833 58.3961 11.1605 57.6186 12.1321 57.6186C13.0915 57.6186 13.8687 58.3961 13.8687 59.3558C13.8687 60.3155 13.0915 61.1051 12.1321 61.1051C11.1605 61.1051 10.3833 60.3155 10.3833 59.3558ZM10.3833 52.5407C10.3833 51.581 11.1605 50.7914 12.1321 50.7914C13.0915 50.7914 13.8687 51.581 13.8687 52.5407C13.8687 53.5004 13.0915 54.29 12.1321 54.29C11.1605 54.29 10.3833 53.5004 10.3833 52.5407ZM10.3833 45.7256C10.3833 44.7659 11.1605 43.9763 12.1321 43.9763C13.0915 43.9763 13.8687 44.7659 13.8687 45.7256C13.8687 46.6853 13.0915 47.4749 12.1321 47.4749C11.1605 47.4749 10.3833 46.6853 10.3833 45.7256ZM10.3833 38.9105C10.3833 37.9508 11.1605 37.1612 12.1321 37.1612C13.0915 37.1612 13.8687 37.9508 13.8687 38.9105C13.8687 39.8702 13.0915 40.6598 12.1321 40.6598C11.1605 40.6598 10.3833 39.8702 10.3833 38.9105ZM10.3833 32.0954C10.3833 31.1357 11.1605 30.3461 12.1321 30.3461C13.0915 30.3461 13.8687 31.1357 13.8687 32.0954C13.8687 33.0551 13.0915 33.8447 12.1321 33.8447C11.1605 33.8447 10.3833 33.0551 10.3833 32.0954ZM10.3833 25.2803C10.3833 24.3206 11.1605 23.531 12.1321 23.531C13.0915 23.531 13.8687 24.3206 13.8687 25.2803C13.8687 26.24 13.0915 27.0296 12.1321 27.0296C11.1605 27.0296 10.3833 26.24 10.3833 25.2803ZM10.3833 18.4652C10.3833 17.4933 11.1605 16.7159 12.1321 16.7159C13.0915 16.7159 13.8687 17.4933 13.8687 18.4652C13.8687 19.4249 13.0915 20.2145 12.1321 20.2145C11.1605 20.2145 10.3833 19.4249 10.3833 18.4652ZM10.3833 11.6501C10.3833 10.6904 11.1605 9.90076 12.1321 9.90076C13.0915 9.90076 13.8687 10.6904 13.8687 11.6501C13.8687 12.6098 13.0915 13.3873 12.1321 13.3873C11.1605 13.3873 10.3833 12.6098 10.3833 11.6501Z" fill="white"/>
<path d="M12.1321 172.321C12.0106 172.321 11.9013 172.321 11.792 172.285C11.6706 172.261 11.5613 172.224 11.4642 172.188C11.3549 172.139 11.2577 172.09 11.1605 172.018C11.0634 171.957 10.9784 171.884 10.8934 171.811C10.5655 171.483 10.3833 171.034 10.3833 170.572C10.3833 170.11 10.5655 169.661 10.8934 169.345C10.9784 169.26 11.0634 169.187 11.1605 169.126C11.2577 169.066 11.3549 169.005 11.4642 168.956C11.5613 168.92 11.6706 168.883 11.792 168.859C12.3507 168.75 12.9579 168.932 13.3587 169.345C13.6865 169.661 13.8687 170.11 13.8687 170.572C13.8687 171.034 13.6865 171.483 13.3587 171.811C13.0308 172.127 12.5814 172.321 12.1321 172.321Z" fill="white"/>
<path d="M1.74877 11.3464C0.789375 11.3464 0 10.5689 0 9.59708V2.81842C0 1.85872 0.777231 1.06909 1.74877 1.06909C2.72031 1.06909 3.49754 1.84657 3.49754 2.81842V9.59708C3.49754 10.5568 2.72031 11.3464 1.74877 11.3464Z" fill="white"/>
<path d="M1.74877 158.533C0.789375 158.533 0 157.756 0 156.784V153.455C0 152.495 0.777231 151.706 1.74877 151.706C2.72031 151.706 3.49754 152.483 3.49754 153.455V156.784C3.49754 157.743 2.72031 158.533 1.74877 158.533ZM1.74877 144.38C0.789375 144.38 0 143.603 0 142.631V131.807C0 130.847 0.777231 130.058 1.74877 130.058C2.72031 130.058 3.49754 130.835 3.49754 131.807V142.631C3.49754 143.591 2.72031 144.38 1.74877 144.38ZM1.74877 122.745C0.789375 122.745 0 121.967 0 120.995V110.171C0 109.212 0.777231 108.422 1.74877 108.422C2.72031 108.422 3.49754 109.2 3.49754 110.171V120.995C3.49754 121.955 2.72031 122.745 1.74877 122.745ZM1.74877 101.109C0.789375 101.109 0 100.331 0 99.3595V88.5355C0 87.5758 0.777231 86.7862 1.74877 86.7862C2.72031 86.7862 3.49754 87.5637 3.49754 88.5355V99.3595C3.49754 100.319 2.72031 101.109 1.74877 101.109ZM1.74877 79.473C0.789375 79.473 0 78.6956 0 77.7237V66.8997C0 65.94 0.777231 65.1504 1.74877 65.1504C2.72031 65.1504 3.49754 65.9279 3.49754 66.8997V77.7237C3.49754 78.6834 2.72031 79.473 1.74877 79.473ZM1.74877 57.8372C0.789375 57.8372 0 57.0598 0 56.0879V45.2639C0 44.3042 0.777231 43.5146 1.74877 43.5146C2.72031 43.5146 3.49754 44.2921 3.49754 45.2639V56.0879C3.49754 57.0476 2.72031 57.8372 1.74877 57.8372ZM1.74877 36.2014C0.789375 36.2014 0 35.4239 0 34.4521V23.6281C0 22.6684 0.777231 21.8788 1.74877 21.8788C2.72031 21.8788 3.49754 22.6563 3.49754 23.6281V34.4521C3.49754 35.4118 2.72031 36.2014 1.74877 36.2014Z" fill="white"/>
<path d="M1.74877 172.321C0.789375 172.321 0 171.544 0 170.572V163.793C0 162.834 0.777231 162.044 1.74877 162.044C2.72031 162.044 3.49754 162.821 3.49754 163.793V170.572C3.49754 171.532 2.72031 172.321 1.74877 172.321Z" fill="white"/>
<path d="M12.1321 163.247C12.0106 163.247 11.9013 163.234 11.792 163.21C11.6706 163.186 11.5613 163.161 11.4642 163.113C11.3549 163.064 11.2577 163.016 11.1605 162.955C11.0634 162.882 10.9784 162.809 10.8934 162.736C10.5655 162.408 10.3833 161.959 10.3833 161.497C10.3833 161.036 10.5655 160.598 10.8934 160.27C10.9784 160.185 11.0634 160.112 11.1605 160.052C11.2577 159.991 11.3549 159.93 11.4642 159.894C11.5613 159.845 11.6706 159.809 11.792 159.796C12.3507 159.675 12.9579 159.857 13.3587 160.27C13.6865 160.586 13.8687 161.036 13.8687 161.497C13.8687 161.959 13.6865 162.408 13.3587 162.736C13.0308 163.064 12.5814 163.247 12.1321 163.247Z" fill="white"/>
<path d="M10.3833 320.273C10.3833 319.314 11.1605 318.524 12.1321 318.524C13.0915 318.524 13.8687 319.314 13.8687 320.273C13.8687 321.233 13.0915 322.023 12.1321 322.023C11.1605 322.023 10.3833 321.233 10.3833 320.273ZM10.3833 313.458C10.3833 312.498 11.1605 311.709 12.1321 311.709C13.0915 311.709 13.8687 312.498 13.8687 313.458C13.8687 314.418 13.0915 315.207 12.1321 315.207C11.1605 315.207 10.3833 314.418 10.3833 313.458ZM10.3833 306.643C10.3833 305.683 11.1605 304.894 12.1321 304.894C13.0915 304.894 13.8687 305.683 13.8687 306.643C13.8687 307.603 13.0915 308.392 12.1321 308.392C11.1605 308.392 10.3833 307.603 10.3833 306.643ZM10.3833 299.828C10.3833 298.856 11.1605 298.079 12.1321 298.079C13.0915 298.079 13.8687 298.856 13.8687 299.828C13.8687 300.788 13.0915 301.577 12.1321 301.577C11.1605 301.577 10.3833 300.788 10.3833 299.828ZM10.3833 293.013C10.3833 292.053 11.1605 291.264 12.1321 291.264C13.0915 291.264 13.8687 292.053 13.8687 293.013C13.8687 293.973 13.0915 294.75 12.1321 294.75C11.1605 294.75 10.3833 293.973 10.3833 293.013ZM10.3833 286.198C10.3833 285.238 11.1605 284.448 12.1321 284.448C13.0915 284.448 13.8687 285.238 13.8687 286.198C13.8687 287.157 13.0915 287.935 12.1321 287.935C11.1605 287.935 10.3833 287.157 10.3833 286.198ZM10.3833 279.383C10.3833 278.411 11.1605 277.633 12.1321 277.633C13.0915 277.633 13.8687 278.411 13.8687 279.383C13.8687 280.342 13.0915 281.12 12.1321 281.12C11.1605 281.12 10.3833 280.342 10.3833 279.383ZM10.3833 272.568C10.3833 271.596 11.1605 270.818 12.1321 270.818C13.0915 270.818 13.8687 271.596 13.8687 272.568C13.8687 273.527 13.0915 274.305 12.1321 274.305C11.1605 274.305 10.3833 273.527 10.3833 272.568ZM10.3833 265.752C10.3833 264.781 11.1605 264.003 12.1321 264.003C13.0915 264.003 13.8687 264.781 13.8687 265.752C13.8687 266.712 13.0915 267.49 12.1321 267.49C11.1605 267.49 10.3833 266.712 10.3833 265.752ZM10.3833 258.937C10.3833 257.965 11.1605 257.188 12.1321 257.188C13.0915 257.188 13.8687 257.965 13.8687 258.937C13.8687 259.897 13.0915 260.675 12.1321 260.675C11.1605 260.675 10.3833 259.897 10.3833 258.937ZM10.3833 252.122C10.3833 251.15 11.1605 250.373 12.1321 250.373C13.0915 250.373 13.8687 251.15 13.8687 252.122C13.8687 253.082 13.0915 253.859 12.1321 253.859C11.1605 253.859 10.3833 253.082 10.3833 252.122ZM10.3833 245.307C10.3833 244.335 11.1605 243.558 12.1321 243.558C13.0915 243.558 13.8687 244.335 13.8687 245.307C13.8687 246.267 13.0915 247.044 12.1321 247.044C11.1605 247.044 10.3833 246.267 10.3833 245.307ZM10.3833 238.492C10.3833 237.52 11.1605 236.743 12.1321 236.743C13.0915 236.743 13.8687 237.52 13.8687 238.492C13.8687 239.452 13.0915 240.229 12.1321 240.229C11.1605 240.229 10.3833 239.452 10.3833 238.492ZM10.3833 231.677C10.3833 230.705 11.1605 229.928 12.1321 229.928C13.0915 229.928 13.8687 230.705 13.8687 231.677C13.8687 232.637 13.0915 233.414 12.1321 233.414C11.1605 233.414 10.3833 232.637 10.3833 231.677ZM10.3833 224.85C10.3833 223.89 11.1605 223.113 12.1321 223.113C13.0915 223.113 13.8687 223.89 13.8687 224.85C13.8687 225.822 13.0915 226.599 12.1321 226.599C11.1605 226.599 10.3833 225.822 10.3833 224.85ZM10.3833 218.035C10.3833 217.075 11.1605 216.297 12.1321 216.297C13.0915 216.297 13.8687 217.075 13.8687 218.035C13.8687 219.006 13.0915 219.784 12.1321 219.784C11.1605 219.784 10.3833 219.006 10.3833 218.035ZM10.3833 211.22C10.3833 210.26 11.1605 209.482 12.1321 209.482C13.0915 209.482 13.8687 210.26 13.8687 211.22C13.8687 212.191 13.0915 212.969 12.1321 212.969C11.1605 212.969 10.3833 212.191 10.3833 211.22ZM10.3833 204.404C10.3833 203.445 11.1605 202.667 12.1321 202.667C13.0915 202.667 13.8687 203.445 13.8687 204.404C13.8687 205.376 13.0915 206.154 12.1321 206.154C11.1605 206.154 10.3833 205.376 10.3833 204.404ZM10.3833 197.589C10.3833 196.63 11.1605 195.852 12.1321 195.852C13.0915 195.852 13.8687 196.63 13.8687 197.589C13.8687 198.549 13.0915 199.339 12.1321 199.339C11.1605 199.339 10.3833 198.549 10.3833 197.589ZM10.3833 190.774C10.3833 189.815 11.1605 189.037 12.1321 189.037C13.0915 189.037 13.8687 189.815 13.8687 190.774C13.8687 191.746 13.0915 192.524 12.1321 192.524C11.1605 192.524 10.3833 191.746 10.3833 190.774ZM10.3833 183.959C10.3833 182.999 11.1605 182.222 12.1321 182.222C13.0915 182.222 13.8687 182.999 13.8687 183.959C13.8687 184.931 13.0915 185.708 12.1321 185.708C11.1605 185.708 10.3833 184.931 10.3833 183.959ZM10.3833 177.144C10.3833 176.184 11.1605 175.395 12.1321 175.395C13.0915 175.395 13.8687 176.184 13.8687 177.144C13.8687 178.116 13.0915 178.893 12.1321 178.893C11.1605 178.893 10.3833 178.116 10.3833 177.144ZM10.3833 170.329C10.3833 169.369 11.1605 168.58 12.1321 168.58C13.0915 168.58 13.8687 169.369 13.8687 170.329C13.8687 171.289 13.0915 172.078 12.1321 172.078C11.1605 172.078 10.3833 171.289 10.3833 170.329Z" fill="white"/>
<path d="M12.1321 331C12.0106 331 11.9013 331 11.792 330.964C11.6706 330.939 11.5613 330.915 11.4642 330.866C11.3549 330.818 11.2577 330.769 11.1605 330.709C11.0634 330.648 10.9784 330.575 10.8934 330.49C10.5655 330.162 10.3833 329.712 10.3833 329.251C10.3833 328.789 10.5655 328.352 10.8934 328.024C10.9784 327.939 11.0634 327.866 11.1605 327.805C11.2577 327.744 11.3549 327.684 11.4642 327.647C11.5613 327.599 11.6706 327.562 11.792 327.55C12.3507 327.429 12.9579 327.611 13.3587 328.024C13.6865 328.34 13.8687 328.789 13.8687 329.251C13.8687 329.712 13.6865 330.162 13.3587 330.49C13.0308 330.818 12.5814 331 12.1321 331Z" fill="white"/>
<path d="M1.74877 170.025C0.789375 170.025 0 169.248 0 168.276V161.497C0 160.538 0.777231 159.748 1.74877 159.748C2.72031 159.748 3.49754 160.525 3.49754 161.497V168.276C3.49754 169.236 2.72031 170.025 1.74877 170.025Z" fill="white"/>
<path d="M1.74877 317.212C0.789375 317.212 0 316.434 0 315.463V312.134C0 311.174 0.777231 310.385 1.74877 310.385C2.72031 310.385 3.49754 311.162 3.49754 312.134V315.463C3.49754 316.422 2.72031 317.212 1.74877 317.212ZM1.74877 303.059C0.789375 303.059 0 302.282 0 301.31V290.486C0 289.526 0.777231 288.737 1.74877 288.737C2.72031 288.737 3.49754 289.514 3.49754 290.486V301.31C3.49754 302.27 2.72031 303.059 1.74877 303.059ZM1.74877 281.424C0.789375 281.424 0 280.646 0 279.674V268.85C0 267.89 0.777231 267.101 1.74877 267.101C2.72031 267.101 3.49754 267.878 3.49754 268.85V279.674C3.49754 280.634 2.72031 281.424 1.74877 281.424ZM1.74877 259.788C0.789375 259.788 0 259.01 0 258.038V247.214C0 246.255 0.777231 245.465 1.74877 245.465C2.72031 245.465 3.49754 246.243 3.49754 247.214V258.038C3.49754 258.998 2.72031 259.788 1.74877 259.788ZM1.74877 238.152C0.789375 238.152 0 237.374 0 236.403V225.579C0 224.619 0.777231 223.829 1.74877 223.829C2.72031 223.829 3.49754 224.607 3.49754 225.579V236.403C3.49754 237.362 2.72031 238.152 1.74877 238.152ZM1.74877 216.516C0.789375 216.516 0 215.739 0 214.767V203.943C0 202.983 0.777231 202.193 1.74877 202.193C2.72031 202.193 3.49754 202.971 3.49754 203.943V214.767C3.49754 215.726 2.72031 216.516 1.74877 216.516ZM1.74877 194.88C0.789375 194.88 0 194.103 0 193.131V182.307C0 181.347 0.777231 180.558 1.74877 180.558C2.72031 180.558 3.49754 181.335 3.49754 182.307V193.131C3.49754 194.091 2.72031 194.88 1.74877 194.88Z" fill="white"/>
<path d="M1.74877 331C0.789375 331 0 330.223 0 329.251V322.472C0 321.512 0.777231 320.723 1.74877 320.723C2.72031 320.723 3.49754 321.5 3.49754 322.472V329.251C3.49754 330.21 2.72031 331 1.74877 331Z" fill="white"/>
<path d="M652.17 330.866C651.283 330.502 650.858 329.469 651.234 328.583C651.599 327.696 652.619 327.271 653.505 327.647C654.392 328.012 654.817 329.032 654.453 329.919C654.173 330.599 653.518 331 652.838 331C652.619 331 652.388 330.951 652.17 330.866ZM645.102 329.251C645.102 328.291 645.891 327.513 646.85 327.513C647.822 327.513 648.599 328.291 648.599 329.251C648.599 330.223 647.822 331 646.85 331C645.891 331 645.102 330.223 645.102 329.251ZM638.301 329.251C638.301 328.291 639.078 327.513 640.038 327.513C641.009 327.513 641.786 328.291 641.786 329.251C641.786 330.223 641.009 331 640.038 331C639.078 331 638.301 330.223 638.301 329.251ZM631.476 329.251C631.476 328.291 632.265 327.513 633.225 327.513C634.184 327.513 634.973 328.291 634.973 329.251C634.973 330.223 634.184 331 633.225 331C632.265 331 631.476 330.223 631.476 329.251ZM624.663 329.251C624.663 328.291 625.452 327.513 626.412 327.513C627.371 327.513 628.16 328.291 628.16 329.251C628.16 330.223 627.371 331 626.412 331C625.452 331 624.663 330.223 624.663 329.251ZM617.862 329.251C617.862 328.291 618.639 327.513 619.599 327.513C620.558 327.513 621.348 328.291 621.348 329.251C621.348 330.223 620.558 331 619.599 331C618.639 331 617.862 330.223 617.862 329.251ZM611.037 329.251C611.037 328.291 611.826 327.513 612.786 327.513C613.745 327.513 614.535 328.291 614.535 329.251C614.535 330.223 613.745 331 612.786 331C611.826 331 611.037 330.223 611.037 329.251ZM604.224 329.251C604.224 328.291 605.014 327.513 605.973 327.513C606.932 327.513 607.722 328.291 607.722 329.251C607.722 330.223 606.932 331 605.973 331C605.014 331 604.224 330.223 604.224 329.251ZM597.423 329.251C597.423 328.291 598.201 327.513 599.16 327.513C600.119 327.513 600.909 328.291 600.909 329.251C600.909 330.223 600.119 331 599.16 331C598.201 331 597.423 330.223 597.423 329.251ZM590.598 329.251C590.598 328.291 591.388 327.513 592.347 327.513C593.307 327.513 594.084 328.291 594.084 329.251C594.084 330.223 593.307 331 592.347 331C591.388 331 590.598 330.223 590.598 329.251ZM583.785 329.251C583.785 328.291 584.563 327.513 585.534 327.513C586.494 327.513 587.271 328.291 587.271 329.251C587.271 330.223 586.494 331 585.534 331C584.563 331 583.785 330.223 583.785 329.251ZM576.972 329.251C576.972 328.291 577.762 327.513 578.721 327.513C579.681 327.513 580.458 328.291 580.458 329.251C580.458 330.223 579.681 331 578.721 331C577.762 331 576.972 330.223 576.972 329.251ZM570.16 329.251C570.16 328.291 570.937 327.513 571.908 327.513C572.868 327.513 573.645 328.291 573.645 329.251C573.645 330.223 572.868 331 571.908 331C570.937 331 570.16 330.223 570.16 329.251ZM563.347 329.251C563.347 328.291 564.124 327.513 565.095 327.513C566.055 327.513 566.832 328.291 566.832 329.251C566.832 330.223 566.055 331 565.095 331C564.124 331 563.347 330.223 563.347 329.251ZM556.534 329.251C556.534 328.291 557.311 327.513 558.283 327.513C559.242 327.513 560.019 328.291 560.019 329.251C560.019 330.223 559.242 331 558.283 331C557.311 331 556.534 330.223 556.534 329.251ZM549.721 329.251C549.721 328.291 550.498 327.513 551.47 327.513C552.429 327.513 553.206 328.291 553.206 329.251C553.206 330.223 552.429 331 551.47 331C550.498 331 549.721 330.223 549.721 329.251ZM542.908 329.251C542.908 328.291 543.685 327.513 544.657 327.513C545.616 327.513 546.393 328.291 546.393 329.251C546.393 330.223 545.616 331 544.657 331C543.685 331 542.908 330.223 542.908 329.251ZM536.095 329.251C536.095 328.291 536.872 327.513 537.844 327.513C538.803 327.513 539.58 328.291 539.58 329.251C539.58 330.223 538.803 331 537.844 331C536.872 331 536.095 330.223 536.095 329.251ZM529.282 329.251C529.282 328.291 530.059 327.513 531.031 327.513C531.99 327.513 532.768 328.291 532.768 329.251C532.768 330.223 531.99 331 531.031 331C530.059 331 529.282 330.223 529.282 329.251ZM522.469 329.251C522.469 328.291 523.246 327.513 524.218 327.513C525.177 327.513 525.955 328.291 525.955 329.251C525.955 330.223 525.177 331 524.218 331C523.246 331 522.469 330.223 522.469 329.251ZM515.656 329.251C515.656 328.291 516.434 327.513 517.393 327.513C518.364 327.513 519.142 328.291 519.142 329.251C519.142 330.223 518.364 331 517.393 331C516.434 331 515.656 330.223 515.656 329.251ZM508.843 329.251C508.843 328.291 509.621 327.513 510.592 327.513C511.552 327.513 512.329 328.291 512.329 329.251C512.329 330.223 511.552 331 510.592 331C509.621 331 508.843 330.223 508.843 329.251ZM502.03 329.251C502.03 328.291 502.808 327.513 503.767 327.513C504.739 327.513 505.516 328.291 505.516 329.251C505.516 330.223 504.739 331 503.767 331C502.808 331 502.03 330.223 502.03 329.251ZM495.218 329.251C495.218 328.291 495.995 327.513 496.954 327.513C497.926 327.513 498.703 328.291 498.703 329.251C498.703 330.223 497.926 331 496.954 331C495.995 331 495.218 330.223 495.218 329.251ZM488.405 329.251C488.405 328.291 489.182 327.513 490.141 327.513C491.113 327.513 491.89 328.291 491.89 329.251C491.89 330.223 491.113 331 490.141 331C489.182 331 488.405 330.223 488.405 329.251ZM481.592 329.251C481.592 328.291 482.369 327.513 483.328 327.513C484.3 327.513 485.077 328.291 485.077 329.251C485.077 330.223 484.3 331 483.328 331C482.369 331 481.592 330.223 481.592 329.251ZM474.779 329.251C474.779 328.291 475.556 327.513 476.515 327.513C477.475 327.513 478.264 328.291 478.264 329.251C478.264 330.223 477.475 331 476.515 331C475.556 331 474.779 330.223 474.779 329.251ZM467.954 329.251C467.954 328.291 468.743 327.513 469.702 327.513C470.674 327.513 471.451 328.291 471.451 329.251C471.451 330.223 470.674 331 469.702 331C468.743 331 467.954 330.223 467.954 329.251ZM461.153 329.251C461.153 328.291 461.93 327.513 462.89 327.513C463.849 327.513 464.638 328.291 464.638 329.251C464.638 330.223 463.849 331 462.89 331C461.93 331 461.153 330.223 461.153 329.251ZM454.328 329.251C454.328 328.291 455.117 327.513 456.077 327.513C457.036 327.513 457.825 328.291 457.825 329.251C457.825 330.223 457.036 331 456.077 331C455.117 331 454.328 330.223 454.328 329.251ZM447.515 329.251C447.515 328.291 448.304 327.513 449.264 327.513C450.223 327.513 451.013 328.291 451.013 329.251C451.013 330.223 450.223 331 449.264 331C448.304 331 447.515 330.223 447.515 329.251ZM440.702 329.251C440.702 328.291 441.491 327.513 442.451 327.513C443.41 327.513 444.2 328.291 444.2 329.251C444.2 330.223 443.41 331 442.451 331C441.491 331 440.702 330.223 440.702 329.251ZM433.889 329.251C433.889 328.291 434.679 327.513 435.638 327.513C436.597 327.513 437.387 328.291 437.387 329.251C437.387 330.223 436.597 331 435.638 331C434.679 331 433.889 330.223 433.889 329.251ZM427.076 329.251C427.076 328.291 427.866 327.513 428.825 327.513C429.784 327.513 430.574 328.291 430.574 329.251C430.574 330.223 429.784 331 428.825 331C427.866 331 427.076 330.223 427.076 329.251ZM420.263 329.251C420.263 328.291 421.053 327.513 422.012 327.513C422.971 327.513 423.749 328.291 423.749 329.251C423.749 330.223 422.971 331 422.012 331C421.053 331 420.263 330.223 420.263 329.251ZM413.45 329.251C413.45 328.291 414.228 327.513 415.199 327.513C416.159 327.513 416.936 328.291 416.936 329.251C416.936 330.223 416.159 331 415.199 331C414.228 331 413.45 330.223 413.45 329.251ZM406.637 329.251C406.637 328.291 407.415 327.513 408.386 327.513C409.346 327.513 410.123 328.291 410.123 329.251C410.123 330.223 409.346 331 408.386 331C407.415 331 406.637 330.223 406.637 329.251ZM399.825 329.251C399.825 328.291 400.602 327.513 401.573 327.513C402.533 327.513 403.31 328.291 403.31 329.251C403.31 330.223 402.533 331 401.573 331C400.602 331 399.825 330.223 399.825 329.251ZM393.012 329.251C393.012 328.291 393.789 327.513 394.76 327.513C395.72 327.513 396.497 328.291 396.497 329.251C396.497 330.223 395.72 331 394.76 331C393.789 331 393.012 330.223 393.012 329.251ZM386.199 329.251C386.199 328.291 386.976 327.513 387.948 327.513C388.907 327.513 389.684 328.291 389.684 329.251C389.684 330.223 388.907 331 387.948 331C386.976 331 386.199 330.223 386.199 329.251ZM379.386 329.251C379.386 328.291 380.163 327.513 381.135 327.513C382.094 327.513 382.871 328.291 382.871 329.251C382.871 330.223 382.094 331 381.135 331C380.163 331 379.386 330.223 379.386 329.251ZM372.573 329.251C372.573 328.291 373.35 327.513 374.322 327.513C375.281 327.513 376.058 328.291 376.058 329.251C376.058 330.223 375.281 331 374.322 331C373.35 331 372.573 330.223 372.573 329.251ZM365.76 329.251C365.76 328.291 366.537 327.513 367.509 327.513C368.468 327.513 369.245 328.291 369.245 329.251C369.245 330.223 368.468 331 367.509 331C366.537 331 365.76 330.223 365.76 329.251ZM358.947 329.251C358.947 328.291 359.724 327.513 360.684 327.513C361.655 327.513 362.432 328.291 362.432 329.251C362.432 330.223 361.655 331 360.684 331C359.724 331 358.947 330.223 358.947 329.251ZM352.134 329.251C352.134 328.291 352.911 327.513 353.871 327.513C354.842 327.513 355.62 328.291 355.62 329.251C355.62 330.223 354.842 331 353.871 331C352.911 331 352.134 330.223 352.134 329.251ZM345.321 329.251C345.321 328.291 346.098 327.513 347.058 327.513C348.029 327.513 348.807 328.291 348.807 329.251C348.807 330.223 348.029 331 347.058 331C346.098 331 345.321 330.223 345.321 329.251ZM338.508 329.251C338.508 328.291 339.286 327.513 340.245 327.513C341.217 327.513 341.994 328.291 341.994 329.251C341.994 330.223 341.217 331 340.245 331C339.286 331 338.508 330.223 338.508 329.251ZM331.695 329.251C331.695 328.291 332.473 327.513 333.432 327.513C334.404 327.513 335.181 328.291 335.181 329.251C335.181 330.223 334.404 331 333.432 331C332.473 331 331.695 330.223 331.695 329.251ZM324.883 329.251C324.883 328.291 325.66 327.513 326.619 327.513C327.591 327.513 328.368 328.291 328.368 329.251C328.368 330.223 327.591 331 326.619 331C325.66 331 324.883 330.223 324.883 329.251ZM318.07 329.251C318.07 328.291 318.847 327.513 319.806 327.513C320.778 327.513 321.555 328.291 321.555 329.251C321.555 330.223 320.778 331 319.806 331C318.847 331 318.07 330.223 318.07 329.251ZM311.257 329.251C311.257 328.291 312.034 327.513 312.993 327.513C313.965 327.513 314.742 328.291 314.742 329.251C314.742 330.223 313.965 331 312.993 331C312.034 331 311.257 330.223 311.257 329.251ZM304.444 329.251C304.444 328.291 305.221 327.513 306.18 327.513C307.14 327.513 307.929 328.291 307.929 329.251C307.929 330.223 307.14 331 306.18 331C305.221 331 304.444 330.223 304.444 329.251ZM297.619 329.251C297.619 328.291 298.408 327.513 299.367 327.513C300.339 327.513 301.116 328.291 301.116 329.251C301.116 330.223 300.339 331 299.367 331C298.408 331 297.619 330.223 297.619 329.251ZM290.818 329.251C290.818 328.291 291.595 327.513 292.555 327.513C293.514 327.513 294.303 328.291 294.303 329.251C294.303 330.223 293.514 331 292.555 331C291.595 331 290.818 330.223 290.818 329.251ZM283.993 329.251C283.993 328.291 284.782 327.513 285.742 327.513C286.701 327.513 287.49 328.291 287.49 329.251C287.49 330.223 286.701 331 285.742 331C284.782 331 283.993 330.223 283.993 329.251ZM277.18 329.251C277.18 328.291 277.969 327.513 278.929 327.513C279.888 327.513 280.665 328.291 280.665 329.251C280.665 330.223 279.888 331 278.929 331C277.969 331 277.18 330.223 277.18 329.251ZM270.367 329.251C270.367 328.291 271.156 327.513 272.116 327.513C273.075 327.513 273.865 328.291 273.865 329.251C273.865 330.223 273.075 331 272.116 331C271.156 331 270.367 330.223 270.367 329.251ZM263.554 329.251C263.554 328.291 264.344 327.513 265.303 327.513C266.262 327.513 267.04 328.291 267.04 329.251C267.04 330.223 266.262 331 265.303 331C264.344 331 263.554 330.223 263.554 329.251ZM256.741 329.251C256.741 328.291 257.518 327.513 258.49 327.513C259.449 327.513 260.227 328.291 260.227 329.251C260.227 330.223 259.449 331 258.49 331C257.518 331 256.741 330.223 256.741 329.251ZM249.928 329.251C249.928 328.291 250.706 327.513 251.677 327.513C252.636 327.513 253.414 328.291 253.414 329.251C253.414 330.223 252.636 331 251.677 331C250.706 331 249.928 330.223 249.928 329.251ZM243.115 329.251C243.115 328.291 243.893 327.513 244.864 327.513C245.824 327.513 246.601 328.291 246.601 329.251C246.601 330.223 245.824 331 244.864 331C243.893 331 243.115 330.223 243.115 329.251ZM236.302 329.251C236.302 328.291 237.08 327.513 238.051 327.513C239.011 327.513 239.788 328.291 239.788 329.251C239.788 330.223 239.011 331 238.051 331C237.08 331 236.302 330.223 236.302 329.251ZM229.49 329.251C229.49 328.291 230.267 327.513 231.238 327.513C232.198 327.513 232.975 328.291 232.975 329.251C232.975 330.223 232.198 331 231.238 331C230.267 331 229.49 330.223 229.49 329.251ZM222.677 329.251C222.677 328.291 223.454 327.513 224.425 327.513C225.385 327.513 226.162 328.291 226.162 329.251C226.162 330.223 225.385 331 224.425 331C223.454 331 222.677 330.223 222.677 329.251ZM215.864 329.251C215.864 328.291 216.641 327.513 217.613 327.513C218.572 327.513 219.349 328.291 219.349 329.251C219.349 330.223 218.572 331 217.613 331C216.641 331 215.864 330.223 215.864 329.251ZM209.051 329.251C209.051 328.291 209.828 327.513 210.8 327.513C211.759 327.513 212.536 328.291 212.536 329.251C212.536 330.223 211.759 331 210.8 331C209.828 331 209.051 330.223 209.051 329.251ZM202.238 329.251C202.238 328.291 203.015 327.513 203.987 327.513C204.946 327.513 205.723 328.291 205.723 329.251C205.723 330.223 204.946 331 203.987 331C203.015 331 202.238 330.223 202.238 329.251ZM195.425 329.251C195.425 328.291 196.202 327.513 197.174 327.513C198.133 327.513 198.91 328.291 198.91 329.251C198.91 330.223 198.133 331 197.174 331C196.202 331 195.425 330.223 195.425 329.251ZM188.612 329.251C188.612 328.291 189.389 327.513 190.349 327.513C191.32 327.513 192.097 328.291 192.097 329.251C192.097 330.223 191.32 331 190.349 331C189.389 331 188.612 330.223 188.612 329.251ZM181.799 329.251C181.799 328.291 182.576 327.513 183.536 327.513C184.507 327.513 185.285 328.291 185.285 329.251C185.285 330.223 184.507 331 183.536 331C182.576 331 181.799 330.223 181.799 329.251ZM174.986 329.251C174.986 328.291 175.763 327.513 176.723 327.513C177.694 327.513 178.472 328.291 178.472 329.251C178.472 330.223 177.694 331 176.723 331C175.763 331 174.986 330.223 174.986 329.251ZM168.173 329.251C168.173 328.291 168.951 327.513 169.91 327.513C170.882 327.513 171.659 328.291 171.659 329.251C171.659 330.223 170.882 331 169.91 331C168.951 331 168.173 330.223 168.173 329.251ZM161.36 329.251C161.36 328.291 162.138 327.513 163.097 327.513C164.069 327.513 164.846 328.291 164.846 329.251C164.846 330.223 164.069 331 163.097 331C162.138 331 161.36 330.223 161.36 329.251ZM154.548 329.251C154.548 328.291 155.325 327.513 156.284 327.513C157.256 327.513 158.033 328.291 158.033 329.251C158.033 330.223 157.256 331 156.284 331C155.325 331 154.548 330.223 154.548 329.251ZM147.735 329.251C147.735 328.291 148.512 327.513 149.471 327.513C150.431 327.513 151.22 328.291 151.22 329.251C151.22 330.223 150.431 331 149.471 331C148.512 331 147.735 330.223 147.735 329.251ZM140.91 329.251C140.91 328.291 141.699 327.513 142.658 327.513C143.618 327.513 144.407 328.291 144.407 329.251C144.407 330.223 143.618 331 142.658 331C141.699 331 140.91 330.223 140.91 329.251ZM134.109 329.251C134.109 328.291 134.886 327.513 135.845 327.513C136.805 327.513 137.594 328.291 137.594 329.251C137.594 330.223 136.805 331 135.845 331C134.886 331 134.109 330.223 134.109 329.251ZM127.284 329.251C127.284 328.291 128.073 327.513 129.032 327.513C129.992 327.513 130.781 328.291 130.781 329.251C130.781 330.223 129.992 331 129.032 331C128.073 331 127.284 330.223 127.284 329.251ZM120.471 329.251C120.471 328.291 121.26 327.513 122.22 327.513C123.179 327.513 123.968 328.291 123.968 329.251C123.968 330.223 123.179 331 122.22 331C121.26 331 120.471 330.223 120.471 329.251ZM113.658 329.251C113.658 328.291 114.447 327.513 115.407 327.513C116.366 327.513 117.155 328.291 117.155 329.251C117.155 330.223 116.366 331 115.407 331C114.447 331 113.658 330.223 113.658 329.251ZM106.845 329.251C106.845 328.291 107.634 327.513 108.594 327.513C109.553 327.513 110.33 328.291 110.33 329.251C110.33 330.223 109.553 331 108.594 331C107.634 331 106.845 330.223 106.845 329.251ZM100.032 329.251C100.032 328.291 100.809 327.513 101.781 327.513C102.74 327.513 103.517 328.291 103.517 329.251C103.517 330.223 102.74 331 101.781 331C100.809 331 100.032 330.223 100.032 329.251ZM93.2191 329.251C93.2191 328.291 93.9964 327.513 94.9679 327.513C95.9273 327.513 96.7045 328.291 96.7045 329.251C96.7045 330.223 95.9273 331 94.9679 331C93.9964 331 93.2191 330.223 93.2191 329.251ZM86.4062 329.251C86.4062 328.291 87.1834 327.513 88.155 327.513C89.1144 327.513 89.8916 328.291 89.8916 329.251C89.8916 330.223 89.1144 331 88.155 331C87.1834 331 86.4062 330.223 86.4062 329.251ZM79.5933 329.251C79.5933 328.291 80.3705 327.513 81.3421 327.513C82.3015 327.513 83.0787 328.291 83.0787 329.251C83.0787 330.223 82.3015 331 81.3421 331C80.3705 331 79.5933 330.223 79.5933 329.251ZM72.7804 329.251C72.7804 328.291 73.5576 327.513 74.5292 327.513C75.4886 327.513 76.2658 328.291 76.2658 329.251C76.2658 330.223 75.4886 331 74.5292 331C73.5576 331 72.7804 330.223 72.7804 329.251ZM65.9675 329.251C65.9675 328.291 66.7447 327.513 67.7162 327.513C68.6756 327.513 69.4529 328.291 69.4529 329.251C69.4529 330.223 68.6756 331 67.7162 331C66.7447 331 65.9675 330.223 65.9675 329.251ZM59.1546 329.251C59.1546 328.291 59.9318 327.513 60.9033 327.513C61.8627 327.513 62.64 328.291 62.64 329.251C62.64 330.223 61.8627 331 60.9033 331C59.9318 331 59.1546 330.223 59.1546 329.251ZM52.3416 329.251C52.3416 328.291 53.1189 327.513 54.0904 327.513C55.0498 327.513 55.827 328.291 55.827 329.251C55.827 330.223 55.0498 331 54.0904 331C53.1189 331 52.3416 330.223 52.3416 329.251ZM45.5287 329.251C45.5287 328.291 46.306 327.513 47.2775 327.513C48.2369 327.513 49.0141 328.291 49.0141 329.251C49.0141 330.223 48.2369 331 47.2775 331C46.306 331 45.5287 330.223 45.5287 329.251ZM38.7158 329.251C38.7158 328.291 39.493 327.513 40.4646 327.513C41.424 327.513 42.2012 328.291 42.2012 329.251C42.2012 330.223 41.424 331 40.4646 331C39.493 331 38.7158 330.223 38.7158 329.251ZM31.9029 329.251C31.9029 328.291 32.6801 327.513 33.6395 327.513C34.6111 327.513 35.3883 328.291 35.3883 329.251C35.3883 330.223 34.6111 331 33.6395 331C32.6801 331 31.9029 330.223 31.9029 329.251ZM30.6763 323.663C30.6763 322.691 31.4657 321.913 32.4251 321.913C33.3845 321.913 34.1617 322.691 34.1617 323.663C34.1617 324.622 33.3845 325.4 32.4251 325.4C31.4657 325.4 30.6763 324.622 30.6763 323.663ZM654.781 324.574C653.894 324.209 653.469 323.189 653.846 322.29C654.21 321.403 655.23 320.978 656.129 321.354C657.015 321.719 657.428 322.751 657.064 323.638C656.784 324.306 656.141 324.707 655.448 324.707C655.23 324.707 654.999 324.671 654.781 324.574ZM30.6763 316.847C30.6763 315.876 31.4657 315.098 32.4251 315.098C33.3845 315.098 34.1617 315.876 34.1617 316.847C34.1617 317.807 33.3845 318.585 32.4251 318.585C31.4657 318.585 30.6763 317.807 30.6763 316.847ZM657.404 318.281C656.505 317.916 656.092 316.896 656.456 316.009C656.821 315.122 657.853 314.697 658.74 315.062C659.626 315.438 660.051 316.459 659.675 317.346C659.395 318.014 658.752 318.427 658.072 318.427C657.841 318.427 657.622 318.378 657.404 318.281ZM660.015 312C659.128 311.624 658.703 310.603 659.068 309.716C659.444 308.83 660.464 308.404 661.351 308.781C662.237 309.146 662.662 310.166 662.298 311.053C662.019 311.721 661.363 312.134 660.683 312.134C660.452 312.134 660.233 312.085 660.015 312ZM30.6763 310.032C30.6763 309.06 31.4657 308.283 32.4251 308.283C33.3845 308.283 34.1617 309.06 34.1617 310.032C34.1617 310.992 33.3845 311.77 32.4251 311.77C31.4657 311.77 30.6763 310.992 30.6763 310.032ZM662.626 305.708C661.739 305.343 661.314 304.323 661.691 303.424C662.055 302.537 663.075 302.112 663.962 302.488C664.86 302.853 665.273 303.873 664.909 304.772C664.63 305.44 663.974 305.841 663.294 305.841C663.075 305.841 662.844 305.805 662.626 305.708ZM30.6763 303.217C30.6763 302.245 31.4657 301.468 32.4251 301.468C33.3845 301.468 34.1617 302.245 34.1617 303.217C34.1617 304.177 33.3845 304.954 32.4251 304.954C31.4657 304.954 30.6763 304.177 30.6763 303.217ZM665.237 299.415C664.35 299.05 663.925 298.03 664.302 297.143C664.666 296.256 665.686 295.831 666.585 296.196C667.471 296.572 667.884 297.593 667.52 298.479C667.241 299.148 666.597 299.561 665.917 299.561C665.686 299.561 665.455 299.512 665.237 299.415ZM30.6763 296.402C30.6763 295.43 31.4657 294.653 32.4251 294.653C33.3845 294.653 34.1617 295.43 34.1617 296.402C34.1617 297.362 33.3845 298.139 32.4251 298.139C31.4657 298.139 30.6763 297.362 30.6763 296.402ZM667.86 293.134C666.961 292.758 666.548 291.737 666.913 290.85C667.289 289.964 668.309 289.538 669.196 289.915C670.082 290.279 670.507 291.3 670.131 292.187C669.852 292.855 669.208 293.268 668.528 293.268C668.297 293.268 668.066 293.219 667.86 293.134ZM30.6763 289.587C30.6763 288.615 31.4657 287.838 32.4251 287.838C33.3845 287.838 34.1617 288.615 34.1617 289.587C34.1617 290.547 33.3845 291.324 32.4251 291.324C31.4657 291.324 30.6763 290.547 30.6763 289.587ZM670.471 286.842C669.584 286.477 669.159 285.457 669.524 284.558C669.9 283.671 670.92 283.246 671.807 283.622C672.693 283.987 673.118 285.007 672.754 285.906C672.475 286.574 671.819 286.975 671.139 286.975C670.92 286.975 670.69 286.939 670.471 286.842ZM30.6763 282.772C30.6763 281.8 31.4657 281.023 32.4251 281.023C33.3845 281.023 34.1617 281.8 34.1617 282.772C34.1617 283.732 33.3845 284.509 32.4251 284.509C31.4657 284.509 30.6763 283.732 30.6763 282.772ZM673.082 280.549C672.195 280.184 671.77 279.164 672.147 278.277C672.511 277.378 673.531 276.965 674.418 277.33C675.317 277.706 675.729 278.727 675.365 279.613C675.086 280.282 674.43 280.682 673.75 280.682C673.531 280.682 673.301 280.646 673.082 280.549ZM30.6763 275.957C30.6763 274.985 31.4657 274.208 32.4251 274.208C33.3845 274.208 34.1617 274.985 34.1617 275.957C34.1617 276.917 33.3845 277.694 32.4251 277.694C31.4657 277.694 30.6763 276.917 30.6763 275.957ZM675.693 274.268C674.806 273.892 674.381 272.871 674.758 271.984C675.122 271.098 676.142 270.672 677.041 271.049C677.927 271.413 678.353 272.434 677.976 273.321C677.697 274.001 677.053 274.402 676.373 274.402C676.142 274.402 675.912 274.353 675.693 274.268ZM30.6763 269.13C30.6763 268.17 31.4657 267.392 32.4251 267.392C33.3845 267.392 34.1617 268.17 34.1617 269.13C34.1617 270.101 33.3845 270.879 32.4251 270.879C31.4657 270.879 30.6763 270.101 30.6763 269.13ZM678.316 267.976C677.417 267.599 677.005 266.591 677.369 265.692C677.745 264.805 678.766 264.38 679.652 264.756C680.539 265.121 680.964 266.141 680.587 267.04C680.308 267.708 679.664 268.109 678.984 268.109C678.753 268.109 678.535 268.061 678.316 267.976ZM30.6763 262.314C30.6763 261.355 31.4657 260.577 32.4251 260.577C33.3845 260.577 34.1617 261.355 34.1617 262.314C34.1617 263.286 33.3845 264.064 32.4251 264.064C31.4657 264.064 30.6763 263.286 30.6763 262.314ZM677.502 259.605C677.502 258.634 678.292 257.856 679.251 257.856C680.211 257.856 681 258.634 681 259.605C681 260.565 680.211 261.343 679.251 261.343C678.292 261.343 677.502 260.565 677.502 259.605ZM30.6763 255.512C30.6763 254.54 31.4657 253.762 32.4251 253.762C33.3845 253.762 34.1617 254.54 34.1617 255.512C34.1617 256.471 33.3845 257.249 32.4251 257.249C31.4657 257.249 30.6763 256.471 30.6763 255.512ZM677.502 252.79C677.502 251.819 678.292 251.041 679.251 251.041C680.211 251.041 681 251.819 681 252.79C681 253.75 680.211 254.528 679.251 254.528C678.292 254.528 677.502 253.75 677.502 252.79ZM30.6763 248.684C30.6763 247.725 31.4657 246.947 32.4251 246.947C33.3845 246.947 34.1617 247.725 34.1617 248.684C34.1617 249.656 33.3845 250.434 32.4251 250.434C31.4657 250.434 30.6763 249.656 30.6763 248.684ZM677.502 245.975C677.502 245.003 678.292 244.226 679.251 244.226C680.211 244.226 681 245.003 681 245.975C681 246.935 680.211 247.712 679.251 247.712C678.292 247.712 677.502 246.935 677.502 245.975ZM30.6763 241.869C30.6763 240.91 31.4657 240.132 32.4251 240.132C33.3845 240.132 34.1617 240.91 34.1617 241.869C34.1617 242.841 33.3845 243.619 32.4251 243.619C31.4657 243.619 30.6763 242.841 30.6763 241.869ZM677.502 239.16C677.502 238.188 678.292 237.411 679.251 237.411C680.211 237.411 681 238.188 681 239.16C681 240.12 680.211 240.897 679.251 240.897C678.292 240.897 677.502 240.12 677.502 239.16ZM30.6763 235.054C30.6763 234.094 31.4657 233.317 32.4251 233.317C33.3845 233.317 34.1617 234.094 34.1617 235.054C34.1617 236.026 33.3845 236.803 32.4251 236.803C31.4657 236.803 30.6763 236.026 30.6763 235.054ZM677.502 232.345C677.502 231.373 678.292 230.596 679.251 230.596C680.211 230.596 681 231.373 681 232.345C681 233.305 680.211 234.082 679.251 234.082C678.292 234.082 677.502 233.305 677.502 232.345ZM30.6763 228.239C30.6763 227.279 31.4657 226.502 32.4251 226.502C33.3845 226.502 34.1617 227.279 34.1617 228.239C34.1617 229.199 33.3845 229.988 32.4251 229.988C31.4657 229.988 30.6763 229.199 30.6763 228.239ZM677.502 225.518C677.502 224.558 678.292 223.781 679.251 223.781C680.211 223.781 681 224.558 681 225.518C681 226.49 680.211 227.267 679.251 227.267C678.292 227.267 677.502 226.49 677.502 225.518ZM30.6763 221.424C30.6763 220.464 31.4657 219.675 32.4251 219.675C33.3845 219.675 34.1617 220.464 34.1617 221.424C34.1617 222.384 33.3845 223.173 32.4251 223.173C31.4657 223.173 30.6763 222.384 30.6763 221.424ZM677.502 218.715C677.502 217.743 678.292 216.966 679.251 216.966C680.211 216.966 681 217.743 681 218.715C681 219.675 680.211 220.452 679.251 220.452C678.292 220.452 677.502 219.675 677.502 218.715ZM30.6763 214.609C30.6763 213.649 31.4657 212.872 32.4251 212.872C33.3845 212.872 34.1617 213.649 34.1617 214.609C34.1617 215.569 33.3845 216.358 32.4251 216.358C31.4657 216.358 30.6763 215.569 30.6763 214.609ZM677.502 211.9C677.502 210.928 678.292 210.15 679.251 210.15C680.211 210.15 681 210.928 681 211.9C681 212.859 680.211 213.637 679.251 213.637C678.292 213.637 677.502 212.859 677.502 211.9ZM30.6763 207.794C30.6763 206.834 31.4657 206.044 32.4251 206.044C33.3845 206.044 34.1617 206.834 34.1617 207.794C34.1617 208.753 33.3845 209.543 32.4251 209.543C31.4657 209.543 30.6763 208.753 30.6763 207.794ZM677.502 205.073C677.502 204.113 678.292 203.335 679.251 203.335C680.211 203.335 681 204.113 681 205.073C681 206.044 680.211 206.822 679.251 206.822C678.292 206.822 677.502 206.044 677.502 205.073ZM30.6763 200.979C30.6763 200.019 31.4657 199.229 32.4251 199.229C33.3845 199.229 34.1617 200.019 34.1617 200.979C34.1617 201.938 33.3845 202.728 32.4251 202.728C31.4657 202.728 30.6763 201.938 30.6763 200.979ZM677.502 198.257C677.502 197.298 678.292 196.52 679.251 196.52C680.211 196.52 681 197.298 681 198.257C681 199.229 680.211 200.007 679.251 200.007C678.292 200.007 677.502 199.229 677.502 198.257ZM30.6763 194.164C30.6763 193.204 31.4657 192.414 32.4251 192.414C33.3845 192.414 34.1617 193.204 34.1617 194.164C34.1617 195.123 33.3845 195.913 32.4251 195.913C31.4657 195.913 30.6763 195.123 30.6763 194.164ZM677.502 191.442C677.502 190.483 678.292 189.705 679.251 189.705C680.211 189.705 681 190.483 681 191.442C681 192.414 680.211 193.192 679.251 193.192C678.292 193.192 677.502 192.414 677.502 191.442ZM30.6763 187.348C30.6763 186.389 31.4657 185.599 32.4251 185.599C33.3845 185.599 34.1617 186.389 34.1617 187.348C34.1617 188.308 33.3845 189.098 32.4251 189.098C31.4657 189.098 30.6763 188.308 30.6763 187.348ZM677.502 184.627C677.502 183.668 678.292 182.89 679.251 182.89C680.211 182.89 681 183.668 681 184.627C681 185.587 680.211 186.377 679.251 186.377C678.292 186.377 677.502 185.587 677.502 184.627ZM30.6763 180.533C30.6763 179.574 31.4657 178.784 32.4251 178.784C33.3845 178.784 34.1617 179.574 34.1617 180.533C34.1617 181.493 33.3845 182.283 32.4251 182.283C31.4657 182.283 30.6763 181.493 30.6763 180.533ZM677.502 177.812C677.502 176.852 678.292 176.075 679.251 176.075C680.211 176.075 681 176.852 681 177.812C681 178.784 680.211 179.561 679.251 179.561C678.292 179.561 677.502 178.784 677.502 177.812ZM30.6763 173.718C30.6763 172.758 31.4657 171.969 32.4251 171.969C33.3845 171.969 34.1617 172.758 34.1617 173.718C34.1617 174.678 33.3845 175.455 32.4251 175.455C31.4657 175.455 30.6763 174.678 30.6763 173.718ZM677.502 170.997C677.502 170.037 678.292 169.26 679.251 169.26C680.211 169.26 681 170.037 681 170.997C681 171.969 680.211 172.746 679.251 172.746C678.292 172.746 677.502 171.969 677.502 170.997ZM30.6763 166.903C30.6763 165.931 31.4657 165.154 32.4251 165.154C33.3845 165.154 34.1617 165.931 34.1617 166.903C34.1617 167.863 33.3845 168.64 32.4251 168.64C31.4657 168.64 30.6763 167.863 30.6763 166.903ZM677.502 164.182C677.502 163.222 678.292 162.445 679.251 162.445C680.211 162.445 681 163.222 681 164.182C681 165.142 680.211 165.931 679.251 165.931C678.292 165.931 677.502 165.142 677.502 164.182ZM30.6763 160.088C30.6763 159.116 31.4657 158.339 32.4251 158.339C33.3845 158.339 34.1617 159.116 34.1617 160.088C34.1617 161.048 33.3845 161.825 32.4251 161.825C31.4657 161.825 30.6763 161.048 30.6763 160.088ZM677.502 157.367C677.502 156.407 678.292 155.618 679.251 155.618C680.211 155.618 681 156.407 681 157.367C681 158.327 680.211 159.116 679.251 159.116C678.292 159.116 677.502 158.327 677.502 157.367ZM30.6763 153.273C30.6763 152.301 31.4657 151.524 32.4251 151.524C33.3845 151.524 34.1617 152.301 34.1617 153.273C34.1617 154.233 33.3845 155.01 32.4251 155.01C31.4657 155.01 30.6763 154.233 30.6763 153.273ZM677.502 150.552C677.502 149.592 678.292 148.815 679.251 148.815C680.211 148.815 681 149.592 681 150.552C681 151.511 680.211 152.301 679.251 152.301C678.292 152.301 677.502 151.511 677.502 150.552ZM30.6763 146.458C30.6763 145.486 31.4657 144.708 32.4251 144.708C33.3845 144.708 34.1617 145.486 34.1617 146.458C34.1617 147.418 33.3845 148.195 32.4251 148.195C31.4657 148.195 30.6763 147.418 30.6763 146.458ZM677.502 143.737C677.502 142.777 678.292 141.987 679.251 141.987C680.211 141.987 681 142.777 681 143.737C681 144.696 680.211 145.486 679.251 145.486C678.292 145.486 677.502 144.696 677.502 143.737ZM30.6763 139.643C30.6763 138.671 31.4657 137.893 32.4251 137.893C33.3845 137.893 34.1617 138.671 34.1617 139.643C34.1617 140.602 33.3845 141.38 32.4251 141.38C31.4657 141.38 30.6763 140.602 30.6763 139.643ZM677.502 136.922C677.502 135.962 678.292 135.172 679.251 135.172C680.211 135.172 681 135.962 681 136.922C681 137.881 680.211 138.671 679.251 138.671C678.292 138.671 677.502 137.881 677.502 136.922ZM30.6763 132.828C30.6763 131.856 31.4657 131.078 32.4251 131.078C33.3845 131.078 34.1617 131.856 34.1617 132.828C34.1617 133.787 33.3845 134.565 32.4251 134.565C31.4657 134.565 30.6763 133.787 30.6763 132.828ZM677.502 130.106C677.502 129.147 678.292 128.357 679.251 128.357C680.211 128.357 681 129.147 681 130.106C681 131.066 680.211 131.856 679.251 131.856C678.292 131.856 677.502 131.066 677.502 130.106ZM30.6763 126.013C30.6763 125.041 31.4657 124.263 32.4251 124.263C33.3845 124.263 34.1617 125.041 34.1617 126.013C34.1617 126.972 33.3845 127.75 32.4251 127.75C31.4657 127.75 30.6763 126.972 30.6763 126.013ZM677.502 123.291C677.502 122.319 678.292 121.542 679.251 121.542C680.211 121.542 681 122.319 681 123.291C681 124.251 680.211 125.041 679.251 125.041C678.292 125.041 677.502 124.251 677.502 123.291ZM30.6763 119.197C30.6763 118.226 31.4657 117.448 32.4251 117.448C33.3845 117.448 34.1617 118.226 34.1617 119.197C34.1617 120.157 33.3845 120.935 32.4251 120.935C31.4657 120.935 30.6763 120.157 30.6763 119.197ZM677.502 116.476C677.502 115.517 678.292 114.727 679.251 114.727C680.211 114.727 681 115.517 681 116.476C681 117.436 680.211 118.226 679.251 118.226C678.292 118.226 677.502 117.436 677.502 116.476ZM30.6763 112.37C30.6763 111.41 31.4657 110.633 32.4251 110.633C33.3845 110.633 34.1617 111.41 34.1617 112.37C34.1617 113.342 33.3845 114.119 32.4251 114.119C31.4657 114.119 30.6763 113.342 30.6763 112.37ZM677.502 109.661C677.502 108.689 678.292 107.912 679.251 107.912C680.211 107.912 681 108.689 681 109.661C681 110.621 680.211 111.398 679.251 111.398C678.292 111.398 677.502 110.621 677.502 109.661ZM30.6763 105.555C30.6763 104.595 31.4657 103.818 32.4251 103.818C33.3845 103.818 34.1617 104.595 34.1617 105.555C34.1617 106.527 33.3845 107.304 32.4251 107.304C31.4657 107.304 30.6763 106.527 30.6763 105.555ZM677.502 102.846C677.502 101.874 678.292 101.097 679.251 101.097C680.211 101.097 681 101.874 681 102.846C681 103.806 680.211 104.583 679.251 104.583C678.292 104.583 677.502 103.806 677.502 102.846ZM30.6763 98.7521C30.6763 97.7803 31.4657 97.0028 32.4251 97.0028C33.3845 97.0028 34.1617 97.7803 34.1617 98.7521C34.1617 99.7118 33.3845 100.489 32.4251 100.489C31.4657 100.489 30.6763 99.7118 30.6763 98.7521ZM677.502 96.0309C677.502 95.0591 678.292 94.2816 679.251 94.2816C680.211 94.2816 681 95.0591 681 96.0309C681 96.9906 680.211 97.7681 679.251 97.7681C678.292 97.7681 677.502 96.9906 677.502 96.0309ZM30.6763 91.9249C30.6763 90.9652 31.4657 90.1877 32.4251 90.1877C33.3845 90.1877 34.1617 90.9652 34.1617 91.9249C34.1617 92.8967 33.3845 93.6742 32.4251 93.6742C31.4657 93.6742 30.6763 92.8967 30.6763 91.9249ZM677.502 89.2158C677.502 88.244 678.292 87.4665 679.251 87.4665C680.211 87.4665 681 88.244 681 89.2158C681 90.1755 680.211 90.953 679.251 90.953C678.292 90.953 677.502 90.1755 677.502 89.2158ZM30.6763 85.1098C30.6763 84.1501 31.4657 83.3726 32.4251 83.3726C33.3845 83.3726 34.1617 84.1501 34.1617 85.1098C34.1617 86.0816 33.3845 86.8591 32.4251 86.8591C31.4657 86.8591 30.6763 86.0816 30.6763 85.1098ZM677.502 82.4007C677.502 81.4289 678.292 80.6514 679.251 80.6514C680.211 80.6514 681 81.4289 681 82.4007C681 83.3604 680.211 84.1379 679.251 84.1379C678.292 84.1379 677.502 83.3604 677.502 82.4007ZM30.6763 78.2947C30.6763 77.335 31.4657 76.5575 32.4251 76.5575C33.3845 76.5575 34.1617 77.335 34.1617 78.2947C34.1617 79.2665 33.3845 80.044 32.4251 80.044C31.4657 80.044 30.6763 79.2665 30.6763 78.2947ZM677.502 75.5856C677.502 74.6138 678.292 73.8363 679.251 73.8363C680.211 73.8363 681 74.6138 681 75.5856C681 76.5453 680.211 77.3228 679.251 77.3228C678.292 77.3228 677.502 76.5453 677.502 75.5856ZM30.6763 71.4796C30.6763 70.5199 31.4657 69.7424 32.4251 69.7424C33.3845 69.7424 34.1617 70.5199 34.1617 71.4796C34.1617 72.4393 33.3845 73.2289 32.4251 73.2289C31.4657 73.2289 30.6763 72.4393 30.6763 71.4796ZM677.502 68.7584C677.502 67.7987 678.292 67.0212 679.251 67.0212C680.211 67.0212 681 67.7987 681 68.7584C681 69.7302 680.211 70.5077 679.251 70.5077C678.292 70.5077 677.502 69.7302 677.502 68.7584ZM30.6763 64.6645C30.6763 63.7048 31.4657 62.9151 32.4251 62.9151C33.3845 62.9151 34.1617 63.7048 34.1617 64.6645C34.1617 65.6363 33.3845 66.4138 32.4251 66.4138C31.4657 66.4138 30.6763 65.6363 30.6763 64.6645ZM677.502 61.9554C677.502 60.9836 678.292 60.2061 679.251 60.2061C680.211 60.2061 681 60.9836 681 61.9554C681 62.9151 680.211 63.6926 679.251 63.6926C678.292 63.6926 677.502 62.9151 677.502 61.9554ZM30.6763 57.8494C30.6763 56.8897 31.4657 56.1122 32.4251 56.1122C33.3845 56.1122 34.1617 56.8897 34.1617 57.8494C34.1617 58.8091 33.3845 59.5987 32.4251 59.5987C31.4657 59.5987 30.6763 58.8091 30.6763 57.8494ZM677.502 55.1403C677.502 54.1685 678.292 53.391 679.251 53.391C680.211 53.391 681 54.1685 681 55.1403C681 56.1 680.211 56.8775 679.251 56.8775C678.292 56.8775 677.502 56.1 677.502 55.1403ZM30.6763 51.0343C30.6763 50.0746 31.4657 49.2971 32.4251 49.2971C33.3845 49.2971 34.1617 50.0746 34.1617 51.0343C34.1617 51.994 33.3845 52.7836 32.4251 52.7836C31.4657 52.7836 30.6763 51.994 30.6763 51.0343ZM677.502 48.3131C677.502 47.3534 678.292 46.5759 679.251 46.5759C680.211 46.5759 681 47.3534 681 48.3131C681 49.285 680.211 50.0624 679.251 50.0624C678.292 50.0624 677.502 49.285 677.502 48.3131ZM30.6763 44.2192C30.6763 43.2595 31.4657 42.4698 32.4251 42.4698C33.3845 42.4698 34.1617 43.2595 34.1617 44.2192C34.1617 45.1789 33.3845 45.9685 32.4251 45.9685C31.4657 45.9685 30.6763 45.1789 30.6763 44.2192ZM677.502 41.498C677.502 40.5383 678.292 39.7608 679.251 39.7608C680.211 39.7608 681 40.5383 681 41.498C681 42.4698 680.211 43.2473 679.251 43.2473C678.292 43.2473 677.502 42.4698 677.502 41.498ZM30.6763 37.4041C30.6763 36.4444 31.4657 35.6548 32.4251 35.6548C33.3845 35.6548 34.1617 36.4444 34.1617 37.4041C34.1617 38.3638 33.3845 39.1534 32.4251 39.1534C31.4657 39.1534 30.6763 38.3638 30.6763 37.4041ZM677.502 34.6829C677.502 33.7232 678.292 32.9457 679.251 32.9457C680.211 32.9457 681 33.7232 681 34.6829C681 35.6548 680.211 36.4322 679.251 36.4322C678.292 36.4322 677.502 35.6548 677.502 34.6829ZM30.6763 30.589C30.6763 29.6293 31.4657 28.8397 32.4251 28.8397C33.3845 28.8397 34.1617 29.6293 34.1617 30.589C34.1617 31.5487 33.3845 32.3383 32.4251 32.3383C31.4657 32.3383 30.6763 31.5487 30.6763 30.589ZM677.502 27.8678C677.502 26.9081 678.292 26.1306 679.251 26.1306C680.211 26.1306 681 26.9081 681 27.8678C681 28.8397 680.211 29.6171 679.251 29.6171C678.292 29.6171 677.502 28.8397 677.502 27.8678ZM30.6763 23.7739C30.6763 22.8142 31.4657 22.0246 32.4251 22.0246C33.3845 22.0246 34.1617 22.8142 34.1617 23.7739C34.1617 24.7336 33.3845 25.5232 32.4251 25.5232C31.4657 25.5232 30.6763 24.7336 30.6763 23.7739ZM677.502 21.0527C677.502 20.093 678.292 19.3034 679.251 19.3034C680.211 19.3034 681 20.093 681 21.0527C681 22.0246 680.211 22.802 679.251 22.802C678.292 22.802 677.502 22.0246 677.502 21.0527ZM30.6763 16.9588C30.6763 15.9991 31.4657 15.2095 32.4251 15.2095C33.3845 15.2095 34.1617 15.9991 34.1617 16.9588C34.1617 17.9185 33.3845 18.696 32.4251 18.696C31.4657 18.696 30.6763 17.9185 30.6763 16.9588ZM677.502 14.2376C677.502 13.2779 678.292 12.5004 679.251 12.5004C680.211 12.5004 681 13.2779 681 14.2376C681 15.2095 680.211 15.9869 679.251 15.9869C678.292 15.9869 677.502 15.2095 677.502 14.2376ZM30.6763 10.1437C30.6763 9.17184 31.4657 8.39435 32.4251 8.39435C33.3845 8.39435 34.1617 9.17184 34.1617 10.1437C34.1617 11.1034 33.3845 11.893 32.4251 11.893C31.4657 11.893 30.6763 11.1034 30.6763 10.1437ZM677.502 7.42251C677.502 6.4628 678.292 5.68532 679.251 5.68532C680.211 5.68532 681 6.4628 681 7.42251C681 8.38221 680.211 9.17184 679.251 9.17184C678.292 9.17184 677.502 8.38221 677.502 7.42251ZM30.6763 3.32859C30.6763 2.35674 31.4657 1.57926 32.4251 1.57926C33.3845 1.57926 34.1617 2.35674 34.1617 3.32859C34.1617 4.28829 33.3845 5.06577 32.4251 5.06577C31.4657 5.06577 30.6763 4.28829 30.6763 3.32859ZM676.373 1.73718C676.373 0.77748 677.15 0 678.122 0C679.081 0 679.858 0.77748 679.858 1.73718C679.858 2.70903 679.081 3.48651 678.122 3.48651C677.15 3.48651 676.373 2.70903 676.373 1.73718ZM669.56 1.73718C669.56 0.77748 670.337 0 671.309 0C672.268 0 673.046 0.77748 673.046 1.73718C673.046 2.70903 672.268 3.48651 671.309 3.48651C670.337 3.48651 669.56 2.70903 669.56 1.73718ZM662.747 1.73718C662.747 0.77748 663.524 0 664.496 0C665.455 0 666.233 0.77748 666.233 1.73718C666.233 2.70903 665.455 3.48651 664.496 3.48651C663.524 3.48651 662.747 2.70903 662.747 1.73718ZM655.934 1.73718C655.934 0.77748 656.711 0 657.671 0C658.642 0 659.42 0.77748 659.42 1.73718C659.42 2.70903 658.642 3.48651 657.671 3.48651C656.711 3.48651 655.934 2.70903 655.934 1.73718ZM649.121 1.73718C649.121 0.77748 649.899 0 650.858 0C651.83 0 652.607 0.77748 652.607 1.73718C652.607 2.70903 651.83 3.48651 650.858 3.48651C649.899 3.48651 649.121 2.70903 649.121 1.73718ZM642.308 1.73718C642.308 0.77748 643.086 0 644.045 0C645.017 0 645.794 0.77748 645.794 1.73718C645.794 2.70903 645.017 3.48651 644.045 3.48651C643.086 3.48651 642.308 2.70903 642.308 1.73718ZM635.496 1.73718C635.496 0.77748 636.273 0 637.232 0C638.204 0 638.981 0.77748 638.981 1.73718C638.981 2.70903 638.204 3.48651 637.232 3.48651C636.273 3.48651 635.496 2.70903 635.496 1.73718ZM628.683 1.73718C628.683 0.77748 629.46 0 630.419 0C631.391 0 632.168 0.77748 632.168 1.73718C632.168 2.70903 631.391 3.48651 630.419 3.48651C629.46 3.48651 628.683 2.70903 628.683 1.73718ZM621.87 1.73718C621.87 0.77748 622.647 0 623.606 0C624.578 0 625.355 0.77748 625.355 1.73718C625.355 2.70903 624.578 3.48651 623.606 3.48651C622.647 3.48651 621.87 2.70903 621.87 1.73718ZM615.057 1.73718C615.057 0.77748 615.834 0 616.793 0C617.765 0 618.542 0.77748 618.542 1.73718C618.542 2.70903 617.765 3.48651 616.793 3.48651C615.834 3.48651 615.057 2.70903 615.057 1.73718ZM608.244 1.73718C608.244 0.77748 609.021 0 609.981 0C610.94 0 611.729 0.77748 611.729 1.73718C611.729 2.70903 610.94 3.48651 609.981 3.48651C609.021 3.48651 608.244 2.70903 608.244 1.73718ZM601.419 1.73718C601.419 0.77748 602.208 0 603.168 0C604.127 0 604.916 0.77748 604.916 1.73718C604.916 2.70903 604.127 3.48651 603.168 3.48651C602.208 3.48651 601.419 2.70903 601.419 1.73718ZM594.606 1.73718C594.606 0.77748 595.395 0 596.355 0C597.314 0 598.103 0.77748 598.103 1.73718C598.103 2.70903 597.314 3.48651 596.355 3.48651C595.395 3.48651 594.606 2.70903 594.606 1.73718ZM587.805 1.73718C587.805 0.77748 588.582 0 589.542 0C590.501 0 591.291 0.77748 591.291 1.73718C591.291 2.70903 590.501 3.48651 589.542 3.48651C588.582 3.48651 587.805 2.70903 587.805 1.73718ZM580.98 1.73718C580.98 0.77748 581.769 0 582.729 0C583.688 0 584.478 0.77748 584.478 1.73718C584.478 2.70903 583.688 3.48651 582.729 3.48651C581.769 3.48651 580.98 2.70903 580.98 1.73718ZM574.167 1.73718C574.167 0.77748 574.957 0 575.916 0C576.875 0 577.665 0.77748 577.665 1.73718C577.665 2.70903 576.875 3.48651 575.916 3.48651C574.957 3.48651 574.167 2.70903 574.167 1.73718ZM567.354 1.73718C567.354 0.77748 568.144 0 569.103 0C570.062 0 570.84 0.77748 570.84 1.73718C570.84 2.70903 570.062 3.48651 569.103 3.48651C568.144 3.48651 567.354 2.70903 567.354 1.73718ZM560.541 1.73718C560.541 0.77748 561.319 0 562.29 0C563.25 0 564.027 0.77748 564.027 1.73718C564.027 2.70903 563.25 3.48651 562.29 3.48651C561.319 3.48651 560.541 2.70903 560.541 1.73718ZM553.728 1.73718C553.728 0.77748 554.506 0 555.477 0C556.437 0 557.214 0.77748 557.214 1.73718C557.214 2.70903 556.437 3.48651 555.477 3.48651C554.506 3.48651 553.728 2.70903 553.728 1.73718ZM546.916 1.73718C546.916 0.77748 547.693 0 548.664 0C549.624 0 550.401 0.77748 550.401 1.73718C550.401 2.70903 549.624 3.48651 548.664 3.48651C547.693 3.48651 546.916 2.70903 546.916 1.73718ZM540.103 1.73718C540.103 0.77748 540.88 0 541.851 0C542.811 0 543.588 0.77748 543.588 1.73718C543.588 2.70903 542.811 3.48651 541.851 3.48651C540.88 3.48651 540.103 2.70903 540.103 1.73718ZM533.29 1.73718C533.29 0.77748 534.067 0 535.038 0C535.998 0 536.775 0.77748 536.775 1.73718C536.775 2.70903 535.998 3.48651 535.038 3.48651C534.067 3.48651 533.29 2.70903 533.29 1.73718ZM526.477 1.73718C526.477 0.77748 527.254 0 528.226 0C529.185 0 529.962 0.77748 529.962 1.73718C529.962 2.70903 529.185 3.48651 528.226 3.48651C527.254 3.48651 526.477 2.70903 526.477 1.73718ZM519.664 1.73718C519.664 0.77748 520.441 0 521.413 0C522.372 0 523.149 0.77748 523.149 1.73718C523.149 2.70903 522.372 3.48651 521.413 3.48651C520.441 3.48651 519.664 2.70903 519.664 1.73718ZM512.851 1.73718C512.851 0.77748 513.628 0 514.6 0C515.559 0 516.336 0.77748 516.336 1.73718C516.336 2.70903 515.559 3.48651 514.6 3.48651C513.628 3.48651 512.851 2.70903 512.851 1.73718ZM506.038 1.73718C506.038 0.77748 506.815 0 507.787 0C508.746 0 509.523 0.77748 509.523 1.73718C509.523 2.70903 508.746 3.48651 507.787 3.48651C506.815 3.48651 506.038 2.70903 506.038 1.73718ZM499.225 1.73718C499.225 0.77748 500.002 0 500.974 0C501.933 0 502.711 0.77748 502.711 1.73718C502.711 2.70903 501.933 3.48651 500.974 3.48651C500.002 3.48651 499.225 2.70903 499.225 1.73718ZM492.412 1.73718C492.412 0.77748 493.189 0 494.149 0C495.12 0 495.898 0.77748 495.898 1.73718C495.898 2.70903 495.12 3.48651 494.149 3.48651C493.189 3.48651 492.412 2.70903 492.412 1.73718ZM485.599 1.73718C485.599 0.77748 486.377 0 487.336 0C488.307 0 489.085 0.77748 489.085 1.73718C489.085 2.70903 488.307 3.48651 487.336 3.48651C486.377 3.48651 485.599 2.70903 485.599 1.73718ZM478.786 1.73718C478.786 0.77748 479.564 0 480.523 0C481.495 0 482.272 0.77748 482.272 1.73718C482.272 2.70903 481.495 3.48651 480.523 3.48651C479.564 3.48651 478.786 2.70903 478.786 1.73718ZM471.973 1.73718C471.973 0.77748 472.751 0 473.71 0C474.682 0 475.459 0.77748 475.459 1.73718C475.459 2.70903 474.682 3.48651 473.71 3.48651C472.751 3.48651 471.973 2.70903 471.973 1.73718ZM465.161 1.73718C465.161 0.77748 465.938 0 466.897 0C467.869 0 468.646 0.77748 468.646 1.73718C468.646 2.70903 467.869 3.48651 466.897 3.48651C465.938 3.48651 465.161 2.70903 465.161 1.73718ZM458.348 1.73718C458.348 0.77748 459.125 0 460.084 0C461.056 0 461.833 0.77748 461.833 1.73718C461.833 2.70903 461.056 3.48651 460.084 3.48651C459.125 3.48651 458.348 2.70903 458.348 1.73718ZM451.535 1.73718C451.535 0.77748 452.312 0 453.271 0C454.231 0 455.02 0.77748 455.02 1.73718C455.02 2.70903 454.231 3.48651 453.271 3.48651C452.312 3.48651 451.535 2.70903 451.535 1.73718ZM444.71 1.73718C444.71 0.77748 445.499 0 446.458 0C447.418 0 448.207 0.77748 448.207 1.73718C448.207 2.70903 447.418 3.48651 446.458 3.48651C445.499 3.48651 444.71 2.70903 444.71 1.73718ZM437.897 1.73718C437.897 0.77748 438.686 0 439.646 0C440.605 0 441.394 0.77748 441.394 1.73718C441.394 2.70903 440.605 3.48651 439.646 3.48651C438.686 3.48651 437.897 2.70903 437.897 1.73718ZM431.096 1.73718C431.096 0.77748 431.873 0 432.833 0C433.792 0 434.581 0.77748 434.581 1.73718C434.581 2.70903 433.792 3.48651 432.833 3.48651C431.873 3.48651 431.096 2.70903 431.096 1.73718ZM424.271 1.73718C424.271 0.77748 425.06 0 426.02 0C426.979 0 427.768 0.77748 427.768 1.73718C427.768 2.70903 426.979 3.48651 426.02 3.48651C425.06 3.48651 424.271 2.70903 424.271 1.73718ZM417.458 1.73718C417.458 0.77748 418.247 0 419.207 0C420.166 0 420.956 0.77748 420.956 1.73718C420.956 2.70903 420.166 3.48651 419.207 3.48651C418.247 3.48651 417.458 2.70903 417.458 1.73718ZM410.645 1.73718C410.645 0.77748 411.434 0 412.394 0C413.353 0 414.143 0.77748 414.143 1.73718C414.143 2.70903 413.353 3.48651 412.394 3.48651C411.434 3.48651 410.645 2.70903 410.645 1.73718ZM403.832 1.73718C403.832 0.77748 404.609 0 405.581 0C406.54 0 407.33 0.77748 407.33 1.73718C407.33 2.70903 406.54 3.48651 405.581 3.48651C404.609 3.48651 403.832 2.70903 403.832 1.73718ZM397.019 1.73718C397.019 0.77748 397.796 0 398.768 0C399.727 0 400.517 0.77748 400.517 1.73718C400.517 2.70903 399.727 3.48651 398.768 3.48651C397.796 3.48651 397.019 2.70903 397.019 1.73718ZM390.206 1.73718C390.206 0.77748 390.984 0 391.955 0C392.914 0 393.692 0.77748 393.692 1.73718C393.692 2.70903 392.914 3.48651 391.955 3.48651C390.984 3.48651 390.206 2.70903 390.206 1.73718ZM383.393 1.73718C383.393 0.77748 384.171 0 385.142 0C386.102 0 386.879 0.77748 386.879 1.73718C386.879 2.70903 386.102 3.48651 385.142 3.48651C384.171 3.48651 383.393 2.70903 383.393 1.73718ZM376.581 1.73718C376.581 0.77748 377.358 0 378.329 0C379.289 0 380.066 0.77748 380.066 1.73718C380.066 2.70903 379.289 3.48651 378.329 3.48651C377.358 3.48651 376.581 2.70903 376.581 1.73718ZM369.768 1.73718C369.768 0.77748 370.545 0 371.516 0C372.476 0 373.253 0.77748 373.253 1.73718C373.253 2.70903 372.476 3.48651 371.516 3.48651C370.545 3.48651 369.768 2.70903 369.768 1.73718ZM362.955 1.73718C362.955 0.77748 363.732 0 364.703 0C365.663 0 366.44 0.77748 366.44 1.73718C366.44 2.70903 365.663 3.48651 364.703 3.48651C363.732 3.48651 362.955 2.70903 362.955 1.73718ZM356.142 1.73718C356.142 0.77748 356.919 0 357.891 0C358.85 0 359.627 0.77748 359.627 1.73718C359.627 2.70903 358.85 3.48651 357.891 3.48651C356.919 3.48651 356.142 2.70903 356.142 1.73718ZM349.329 1.73718C349.329 0.77748 350.106 0 351.065 0C352.037 0 352.814 0.77748 352.814 1.73718C352.814 2.70903 352.037 3.48651 351.065 3.48651C350.106 3.48651 349.329 2.70903 349.329 1.73718ZM342.516 1.73718C342.516 0.77748 343.293 0 344.265 0C345.224 0 346.001 0.77748 346.001 1.73718C346.001 2.70903 345.224 3.48651 344.265 3.48651C343.293 3.48651 342.516 2.70903 342.516 1.73718ZM335.703 1.73718C335.703 0.77748 336.48 0 337.44 0C338.411 0 339.188 0.77748 339.188 1.73718C339.188 2.70903 338.411 3.48651 337.44 3.48651C336.48 3.48651 335.703 2.70903 335.703 1.73718ZM328.89 1.73718C328.89 0.77748 329.667 0 330.627 0C331.598 0 332.376 0.77748 332.376 1.73718C332.376 2.70903 331.598 3.48651 330.627 3.48651C329.667 3.48651 328.89 2.70903 328.89 1.73718ZM322.077 1.73718C322.077 0.77748 322.854 0 323.814 0C324.785 0 325.563 0.77748 325.563 1.73718C325.563 2.70903 324.785 3.48651 323.814 3.48651C322.854 3.48651 322.077 2.70903 322.077 1.73718ZM315.264 1.73718C315.264 0.77748 316.042 0 317.001 0C317.972 0 318.75 0.77748 318.75 1.73718C318.75 2.70903 317.972 3.48651 317.001 3.48651C316.042 3.48651 315.264 2.70903 315.264 1.73718ZM308.451 1.73718C308.451 0.77748 309.229 0 310.188 0C311.16 0 311.937 0.77748 311.937 1.73718C311.937 2.70903 311.16 3.48651 310.188 3.48651C309.229 3.48651 308.451 2.70903 308.451 1.73718ZM301.638 1.73718C301.638 0.77748 302.416 0 303.375 0C304.347 0 305.124 0.77748 305.124 1.73718C305.124 2.70903 304.347 3.48651 303.375 3.48651C302.416 3.48651 301.638 2.70903 301.638 1.73718ZM294.826 1.73718C294.826 0.77748 295.603 0 296.562 0C297.522 0 298.311 0.77748 298.311 1.73718C298.311 2.70903 297.522 3.48651 296.562 3.48651C295.603 3.48651 294.826 2.70903 294.826 1.73718ZM288 1.73718C288 0.77748 288.79 0 289.749 0C290.709 0 291.498 0.77748 291.498 1.73718C291.498 2.70903 290.709 3.48651 289.749 3.48651C288.79 3.48651 288 2.70903 288 1.73718ZM281.188 1.73718C281.188 0.77748 281.977 0 282.936 0C283.896 0 284.685 0.77748 284.685 1.73718C284.685 2.70903 283.896 3.48651 282.936 3.48651C281.977 3.48651 281.188 2.70903 281.188 1.73718ZM274.375 1.73718C274.375 0.77748 275.164 0 276.123 0C277.083 0 277.872 0.77748 277.872 1.73718C277.872 2.70903 277.083 3.48651 276.123 3.48651C275.164 3.48651 274.375 2.70903 274.375 1.73718ZM267.562 1.73718C267.562 0.77748 268.351 0 269.311 0C270.27 0 271.059 0.77748 271.059 1.73718C271.059 2.70903 270.27 3.48651 269.311 3.48651C268.351 3.48651 267.562 2.70903 267.562 1.73718ZM260.749 1.73718C260.749 0.77748 261.538 0 262.498 0C263.457 0 264.246 0.77748 264.246 1.73718C264.246 2.70903 263.457 3.48651 262.498 3.48651C261.538 3.48651 260.749 2.70903 260.749 1.73718ZM253.936 1.73718C253.936 0.77748 254.725 0 255.685 0C256.644 0 257.433 0.77748 257.433 1.73718C257.433 2.70903 256.644 3.48651 255.685 3.48651C254.725 3.48651 253.936 2.70903 253.936 1.73718ZM247.123 1.73718C247.123 0.77748 247.912 0 248.872 0C249.831 0 250.621 0.77748 250.621 1.73718C250.621 2.70903 249.831 3.48651 248.872 3.48651C247.912 3.48651 247.123 2.70903 247.123 1.73718ZM240.31 1.73718C240.31 0.77748 241.099 0 242.059 0C243.018 0 243.808 0.77748 243.808 1.73718C243.808 2.70903 243.018 3.48651 242.059 3.48651C241.099 3.48651 240.31 2.70903 240.31 1.73718ZM233.497 1.73718C233.497 0.77748 234.274 0 235.246 0C236.205 0 236.983 0.77748 236.983 1.73718C236.983 2.70903 236.205 3.48651 235.246 3.48651C234.274 3.48651 233.497 2.70903 233.497 1.73718ZM226.684 1.73718C226.684 0.77748 227.462 0 228.433 0C229.392 0 230.182 0.77748 230.182 1.73718C230.182 2.70903 229.392 3.48651 228.433 3.48651C227.462 3.48651 226.684 2.70903 226.684 1.73718ZM219.871 1.73718C219.871 0.77748 220.649 0 221.62 0C222.58 0 223.357 0.77748 223.357 1.73718C223.357 2.70903 222.58 3.48651 221.62 3.48651C220.649 3.48651 219.871 2.70903 219.871 1.73718ZM213.058 1.73718C213.058 0.77748 213.836 0 214.807 0C215.767 0 216.544 0.77748 216.544 1.73718C216.544 2.70903 215.767 3.48651 214.807 3.48651C213.836 3.48651 213.058 2.70903 213.058 1.73718ZM206.246 1.73718C206.246 0.77748 207.023 0 207.994 0C208.954 0 209.731 0.77748 209.731 1.73718C209.731 2.70903 208.954 3.48651 207.994 3.48651C207.023 3.48651 206.246 2.70903 206.246 1.73718ZM199.433 1.73718C199.433 0.77748 200.21 0 201.181 0C202.141 0 202.918 0.77748 202.918 1.73718C202.918 2.70903 202.141 3.48651 201.181 3.48651C200.21 3.48651 199.433 2.70903 199.433 1.73718ZM192.62 1.73718C192.62 0.77748 193.397 0 194.368 0C195.328 0 196.105 0.77748 196.105 1.73718C196.105 2.70903 195.328 3.48651 194.368 3.48651C193.397 3.48651 192.62 2.70903 192.62 1.73718ZM185.807 1.73718C185.807 0.77748 186.584 0 187.556 0C188.515 0 189.292 0.77748 189.292 1.73718C189.292 2.70903 188.515 3.48651 187.556 3.48651C186.584 3.48651 185.807 2.70903 185.807 1.73718ZM178.994 1.73718C178.994 0.77748 179.771 0 180.73 0C181.702 0 182.479 0.77748 182.479 1.73718C182.479 2.70903 181.702 3.48651 180.73 3.48651C179.771 3.48651 178.994 2.70903 178.994 1.73718ZM172.181 1.73718C172.181 0.77748 172.958 0 173.918 0C174.889 0 175.666 0.77748 175.666 1.73718C175.666 2.70903 174.889 3.48651 173.918 3.48651C172.958 3.48651 172.181 2.70903 172.181 1.73718ZM165.368 1.73718C165.368 0.77748 166.145 0 167.105 0C168.076 0 168.853 0.77748 168.853 1.73718C168.853 2.70903 168.076 3.48651 167.105 3.48651C166.145 3.48651 165.368 2.70903 165.368 1.73718ZM158.555 1.73718C158.555 0.77748 159.332 0 160.292 0C161.263 0 162.04 0.77748 162.04 1.73718C162.04 2.70903 161.263 3.48651 160.292 3.48651C159.332 3.48651 158.555 2.70903 158.555 1.73718ZM151.742 1.73718C151.742 0.77748 152.519 0 153.479 0C154.45 0 155.228 0.77748 155.228 1.73718C155.228 2.70903 154.45 3.48651 153.479 3.48651C152.519 3.48651 151.742 2.70903 151.742 1.73718ZM144.929 1.73718C144.929 0.77748 145.706 0 146.666 0C147.637 0 148.415 0.77748 148.415 1.73718C148.415 2.70903 147.637 3.48651 146.666 3.48651C145.706 3.48651 144.929 2.70903 144.929 1.73718ZM138.116 1.73718C138.116 0.77748 138.894 0 139.853 0C140.812 0 141.602 0.77748 141.602 1.73718C141.602 2.70903 140.812 3.48651 139.853 3.48651C138.894 3.48651 138.116 2.70903 138.116 1.73718ZM131.291 1.73718C131.291 0.77748 132.081 0 133.04 0C134.012 0 134.789 0.77748 134.789 1.73718C134.789 2.70903 134.012 3.48651 133.04 3.48651C132.081 3.48651 131.291 2.70903 131.291 1.73718ZM124.491 1.73718C124.491 0.77748 125.268 0 126.227 0C127.187 0 127.976 0.77748 127.976 1.73718C127.976 2.70903 127.187 3.48651 126.227 3.48651C125.268 3.48651 124.491 2.70903 124.491 1.73718ZM117.665 1.73718C117.665 0.77748 118.455 0 119.414 0C120.374 0 121.163 0.77748 121.163 1.73718C121.163 2.70903 120.374 3.48651 119.414 3.48651C118.455 3.48651 117.665 2.70903 117.665 1.73718ZM110.853 1.73718C110.853 0.77748 111.642 0 112.601 0C113.573 0 114.35 0.77748 114.35 1.73718C114.35 2.70903 113.573 3.48651 112.601 3.48651C111.642 3.48651 110.853 2.70903 110.853 1.73718ZM104.052 1.73718C104.052 0.77748 104.829 0 105.788 0C106.748 0 107.537 0.77748 107.537 1.73718C107.537 2.70903 106.748 3.48651 105.788 3.48651C104.829 3.48651 104.052 2.70903 104.052 1.73718ZM97.2267 1.73718C97.2267 0.77748 98.0161 0 98.9755 0C99.9349 0 100.724 0.77748 100.724 1.73718C100.724 2.70903 99.9349 3.48651 98.9755 3.48651C98.0161 3.48651 97.2267 2.70903 97.2267 1.73718ZM90.4138 1.73718C90.4138 0.77748 91.2032 0 92.1626 0C93.122 0 93.9114 0.77748 93.9114 1.73718C93.9114 2.70903 93.122 3.48651 92.1626 3.48651C91.2032 3.48651 90.4138 2.70903 90.4138 1.73718ZM83.613 1.73718C83.613 0.77748 84.3903 0 85.3497 0C86.3091 0 87.0984 0.77748 87.0984 1.73718C87.0984 2.70903 86.3091 3.48651 85.3497 3.48651C84.3903 3.48651 83.613 2.70903 83.613 1.73718ZM76.788 1.73718C76.788 0.77748 77.5774 0 78.5367 0C79.4961 0 80.2734 0.77748 80.2734 1.73718C80.2734 2.70903 79.4961 3.48651 78.5367 3.48651C77.5774 3.48651 76.788 2.70903 76.788 1.73718ZM69.9751 1.73718C69.9751 0.77748 70.7523 0 71.7238 0C72.6832 0 73.4605 0.77748 73.4605 1.73718C73.4605 2.70903 72.6832 3.48651 71.7238 3.48651C70.7523 3.48651 69.9751 2.70903 69.9751 1.73718ZM63.1622 1.73718C63.1622 0.77748 63.9515 0 64.9109 0C65.8703 0 66.6475 0.77748 66.6475 1.73718C66.6475 2.70903 65.8703 3.48651 64.9109 3.48651C63.9515 3.48651 63.1622 2.70903 63.1622 1.73718ZM56.3492 1.73718C56.3492 0.77748 57.1265 0 58.098 0C59.0574 0 59.8346 0.77748 59.8346 1.73718C59.8346 2.70903 59.0574 3.48651 58.098 3.48651C57.1265 3.48651 56.3492 2.70903 56.3492 1.73718ZM49.5363 1.73718C49.5363 0.77748 50.3136 0 51.2851 0C52.2445 0 53.0217 0.77748 53.0217 1.73718C53.0217 2.70903 52.2445 3.48651 51.2851 3.48651C50.3136 3.48651 49.5363 2.70903 49.5363 1.73718ZM42.7234 1.73718C42.7234 0.77748 43.5006 0 44.4722 0C45.4316 0 46.2088 0.77748 46.2088 1.73718C46.2088 2.70903 45.4316 3.48651 44.4722 3.48651C43.5006 3.48651 42.7234 2.70903 42.7234 1.73718ZM35.9105 1.73718C35.9105 0.77748 36.6877 0 37.6593 0C38.6187 0 39.3959 0.77748 39.3959 1.73718C39.3959 2.70903 38.6187 3.48651 37.6593 3.48651C36.6877 3.48651 35.9105 2.70903 35.9105 1.73718Z" fill="white"/>
<path d="M86.6005 31.5973C92.6241 31.5973 98.5869 31.5973 104.55 31.5973C104.55 38.2666 104.55 44.8873 104.55 51.5567C101.477 51.5567 98.4411 51.5567 95.4051 51.5567C95.2472 54.0349 95.2958 55.4684 96.5345 57.327C97.9189 59.4044 99.9227 60.4491 102.437 60.522C102.437 63.4497 102.437 66.3409 102.437 69.2929C102.303 69.2929 102.218 69.2929 102.121 69.2929C101.684 69.2808 101.246 69.2929 100.809 69.2322C97.5546 68.8434 94.64 67.6408 92.1626 65.4906C88.6772 62.4535 86.6612 58.639 86.6005 53.9863C86.5034 46.6853 86.5762 39.3964 86.5762 32.0954C86.5762 31.9253 86.5884 31.7552 86.6005 31.5973Z" fill="white"/>
<path d="M63.4415 31.5851C69.4772 31.5851 75.4521 31.5851 81.4271 31.5851C81.4271 38.2545 81.4271 44.8752 81.4271 51.5445C78.3667 51.5445 75.3307 51.5445 72.2946 51.5445C71.5902 56.6467 74.772 60.4612 79.2897 60.5463C79.2897 63.4497 79.2897 66.3531 79.2897 69.2443C79.2168 69.2565 79.1804 69.2686 79.1561 69.2686C79.0711 69.2686 78.9982 69.2686 78.9132 69.2686C74.7235 69.135 71.1288 67.5922 68.1534 64.6523C65.1781 61.7125 63.5143 58.1167 63.4658 53.9377C63.3807 46.661 63.4415 39.3721 63.4415 32.0954C63.4415 31.9253 63.4415 31.7552 63.4415 31.573V31.5851Z" fill="white"/>
<path d="M619.332 218.581H601.382C601.382 225.25 601.382 231.871 601.382 238.541H610.527C610.685 241.019 610.636 242.452 609.398 244.311C608.013 246.388 606.009 247.433 603.495 247.506C603.495 250.434 603.495 253.325 603.495 256.277C603.629 256.277 603.714 256.277 603.811 256.277C604.248 256.265 604.686 256.277 605.123 256.216C608.377 255.827 611.292 254.625 613.769 252.474C617.255 249.437 619.271 245.623 619.332 240.97C619.429 233.669 619.356 226.38 619.356 219.079C619.356 218.909 619.344 218.739 619.332 218.581Z" fill="white"/>
<path d="M642.491 218.581C636.455 218.581 630.48 218.581 624.505 218.581C624.505 225.251 624.505 231.871 624.505 238.541C627.565 238.541 630.601 238.541 633.637 238.541C634.342 243.643 631.16 247.457 626.642 247.542C626.642 250.446 626.642 253.349 626.642 256.24C626.715 256.253 626.752 256.265 626.776 256.265C626.861 256.265 626.934 256.265 627.019 256.265C631.209 256.131 634.803 254.588 637.779 251.648C640.754 248.709 642.418 245.113 642.466 240.934C642.551 233.657 642.491 226.368 642.491 219.091C642.491 218.921 642.491 218.751 642.491 218.569V218.581Z" fill="white"/>
<defs>
<linearGradient id="paint0_linear_28_919" x1="355.838" y1="2.40527" x2="355.838" y2="329.919" gradientUnits="userSpaceOnUse">
<stop stop-color="white" stop-opacity="0"/>
<stop offset="1" stop-color="#2C2C2C"/>
</linearGradient>
</defs>
</svg>
