<svg width="37" height="38" viewBox="0 0 37 38" fill="none" xmlns="http://www.w3.org/2000/svg">
<path opacity="0.4" d="M25.8939 14.0627L11.1854 14.0627C6.26218 14.0627 3.19472 17.1302 3.19472 22.0381L3.19472 26.0105C3.19472 30.9184 6.26218 33.9859 11.1701 33.9859L25.8939 33.9859C30.8018 34.0012 33.8693 30.9337 33.8693 26.0258L33.8693 22.0381C33.8693 17.1302 30.8018 14.0627 25.8939 14.0627Z" fill="#037B6A"/>
<path d="M24.4825 19.3234L19.3446 24.4614C18.8998 24.9062 18.1636 24.9062 17.7188 24.4614L12.5808 19.3234C12.136 18.8787 12.136 18.1425 12.5808 17.6977C13.0256 17.2529 13.7618 17.2529 14.2066 17.6977L17.3814 20.8725L17.3814 4.47695C17.3814 3.84813 17.9029 3.32666 18.5317 3.32666C19.1605 3.32666 19.682 3.84813 19.682 4.47696L19.682 20.8725L22.8568 17.6977C23.0869 17.4676 23.3783 17.3603 23.6697 17.3603C23.9611 17.3603 24.2525 17.4676 24.4825 17.6977C24.9427 18.1425 24.9427 18.8633 24.4825 19.3234Z" fill="#037B6A"/>
</svg>
