<svg width="30" height="30" viewBox="0 0 30 30" fill="none" xmlns="http://www.w3.org/2000/svg">
<path d="M7.71229 0.127808C12.4727 0.127808 17.2331 0.127808 21.9936 0.127808C22.0857 0.144439 22.1778 0.167467 22.2712 0.177702C23.0708 0.265976 23.8537 0.442526 24.5791 0.785389C27.7212 2.2707 29.415 4.75902 29.4636 8.23755C29.5251 12.5784 29.4816 16.9204 29.4764 21.2625C29.4739 22.9449 29.0223 24.5044 28.0436 25.8758C26.3856 28.2004 24.1045 29.3671 21.249 29.3748C16.9837 29.3863 12.7184 29.3825 8.45303 29.371C7.90419 29.3697 7.34129 29.3403 6.8078 29.2226C3.49559 28.4921 1.377 26.4771 0.468664 23.2084C0.349685 22.7811 0.306189 22.3321 0.228149 21.8932C0.228149 17.1328 0.228149 12.3724 0.228149 7.61195C0.275485 7.31259 0.307468 7.01066 0.373994 6.71513C1.11857 3.40036 3.12585 1.27666 6.40097 0.367044C6.82699 0.248066 7.27476 0.205847 7.71357 0.127808H7.71229ZM26.8845 14.7814C26.8845 12.659 26.8858 10.5352 26.8845 8.41282C26.8845 7.74372 26.8167 7.08358 26.5902 6.44775C25.7651 4.13214 23.7706 2.72743 21.258 2.72231C16.9939 2.71463 12.7286 2.70824 8.46454 2.73255C7.82743 2.73638 7.16217 2.82466 6.56088 3.02679C4.22225 3.81487 2.82649 5.84007 2.82393 8.36804C2.81881 12.6231 2.80986 16.8782 2.83544 21.1333C2.83928 21.7704 2.92628 22.4357 3.12714 23.037C3.90625 25.3641 5.92761 26.7739 8.43512 26.779C12.7184 26.7893 17.0029 26.7867 21.2861 26.779C23.1923 26.7752 24.7326 26.014 25.8649 24.4698C26.5941 23.4758 26.8883 22.341 26.8871 21.118C26.8845 19.0045 26.8871 16.891 26.8871 14.7775L26.8845 14.7814Z" fill="#037B6A"/>
<path d="M14.8498 22.2898C10.706 22.2847 7.30164 18.8752 7.31572 14.7417C7.32979 10.5928 10.7431 7.1923 14.8715 7.21533C19.0153 7.23835 22.3864 10.6158 22.3915 14.7494C22.3966 18.8868 18.9884 22.2949 14.8498 22.2911V22.2898ZM19.7906 14.7634C19.8059 12.05 17.5965 9.8303 14.8638 9.81495C12.1503 9.79959 9.93069 12.009 9.91533 14.7417C9.89998 17.4552 12.1094 19.6748 14.8421 19.6902C17.5556 19.7055 19.7752 17.4948 19.7906 14.7634Z" fill="#037B6A"/>
<path d="M22.7049 5.02386C23.7527 5.02258 24.6239 5.89381 24.6098 6.93008C24.5958 7.96763 23.7424 8.81327 22.7087 8.81455C21.6635 8.81455 20.7897 7.94076 20.8025 6.90577C20.8153 5.86695 21.6661 5.02514 22.7036 5.02258L22.7049 5.02386Z" fill="#037B6A"/>
</svg>
