<svg width="31" height="31" viewBox="0 0 31 31" fill="none" xmlns="http://www.w3.org/2000/svg">
<path d="M7.83916 10.7087L1.67786 10.7087L1.67786 30.3517H7.83916L7.83916 10.7087Z" fill="#037B6A"/>
<path d="M24.4911 10.2724C24.2595 10.2468 24.0203 10.2289 23.7772 10.2187C20.3294 10.078 18.3784 12.1249 17.7054 12.9987C17.5263 13.2341 17.4381 13.3838 17.4381 13.3838V10.7547L11.5454 10.7547L11.5454 30.3977H17.7067L17.7067 21.1686C17.7067 19.8355 17.6018 18.4116 18.2696 17.2013C18.8338 16.1779 19.8547 15.6661 21.01 15.6661C24.4117 15.6661 24.4923 18.7442 24.4923 19.0372L24.4923 30.4886H30.6524L30.6524 17.676C30.6524 13.2917 28.4237 10.6997 24.4923 10.2737L24.4911 10.2724Z" fill="#037B6A"/>
<path d="M8.23059 5.41253C8.68374 3.49257 7.49466 1.56877 5.57469 1.11562C3.65473 0.662467 1.73093 1.85156 1.27778 3.77152C0.824628 5.69149 2.01371 7.61528 3.93368 8.06843C5.85364 8.52158 7.77743 7.3325 8.23059 5.41253Z" fill="#037B6A"/>
</svg>
