<svg width="229" height="237" viewBox="0 0 229 237" fill="none" xmlns="http://www.w3.org/2000/svg">
<g clip-path="url(#clip0_28_2470)">
<path d="M20.0227 0.984131H227.872V190.302L183.553 236.101H20.0059L20.0227 0.984131Z" fill="#005745"/>
<path d="M20.0059 92.0206V236.152H183.536C200.85 218.267 210.558 208.238 227.872 190.353V92.0206H20.0059Z" fill="white"/>
<path d="M11.004 3.19014C10.8021 3.19014 10.6002 3.13923 10.3983 3.07136C10.2132 2.98651 10.0449 2.86773 9.89349 2.71502C9.74205 2.57927 9.62427 2.39261 9.54014 2.20596C9.47284 2.00234 9.42236 1.79871 9.42236 1.59509C9.42236 1.49328 9.43919 1.3745 9.45601 1.27269C9.47284 1.17088 9.50649 1.06907 9.54014 0.984223C9.59062 0.882411 9.6411 0.797569 9.69158 0.695757C9.74205 0.610914 9.80936 0.54304 9.89349 0.458197C10.0449 0.322449 10.2132 0.203669 10.3983 0.118826C10.7011 4.58609e-05 11.004 -0.0338913 11.3237 0.033983C11.4246 0.033983 11.5256 0.0848887 11.6097 0.118826C11.7107 0.152763 11.8116 0.203669 11.8958 0.271543C11.9799 0.322449 12.064 0.390323 12.1313 0.458197C12.1986 0.54304 12.2659 0.610914 12.3332 0.695757C12.3837 0.797569 12.4342 0.882411 12.4678 0.984223C12.5183 1.06907 12.5351 1.17088 12.5688 1.27269C12.5856 1.3745 12.5856 1.49328 12.5856 1.59509C12.5856 1.79871 12.552 2.00234 12.4678 2.20596C12.3837 2.39261 12.2828 2.57927 12.1313 2.71502C12.064 2.79986 11.9799 2.86773 11.8958 2.91864C11.8116 2.96955 11.7107 3.02045 11.6097 3.07136C11.5256 3.10529 11.4246 3.13923 11.3237 3.1562C11.2227 3.17317 11.1218 3.19014 11.004 3.19014Z" fill="#037B6A"/>
<path d="M9.42236 113.876C9.42236 112.994 10.129 112.281 11.004 112.281C11.8789 112.281 12.5856 112.994 12.5856 113.876C12.5856 114.759 11.8789 115.471 11.004 115.471C10.129 115.471 9.42236 114.759 9.42236 113.876ZM9.42236 107.632C9.42236 106.749 10.129 106.037 11.004 106.037C11.8789 106.037 12.5856 106.749 12.5856 107.632C12.5856 108.514 11.8789 109.227 11.004 109.227C10.129 109.227 9.42236 108.514 9.42236 107.632ZM9.42236 101.404C9.42236 100.522 10.129 99.7922 11.004 99.7922C11.8789 99.7922 12.5856 100.522 12.5856 101.404C12.5856 102.27 11.8789 102.999 11.004 102.999C10.129 102.999 9.42236 102.27 9.42236 101.404ZM9.42236 95.1598C9.42236 94.2775 10.129 93.5648 11.004 93.5648C11.8789 93.5648 12.5856 94.2775 12.5856 95.1598C12.5856 96.0422 11.8789 96.7549 11.004 96.7549C10.129 96.7549 9.42236 96.0422 9.42236 95.1598ZM9.42236 88.9154C9.42236 88.033 10.129 87.3203 11.004 87.3203C11.8789 87.3203 12.5856 88.033 12.5856 88.9154C12.5856 89.7978 11.8789 90.5104 11.004 90.5104C10.129 90.5104 9.42236 89.7978 9.42236 88.9154ZM9.42236 82.6879C9.42236 81.8055 10.129 81.0929 11.004 81.0929C11.8789 81.0929 12.5856 81.8055 12.5856 82.6879C12.5856 83.5703 11.8789 84.283 11.004 84.283C10.129 84.283 9.42236 83.5703 9.42236 82.6879ZM9.42236 76.4435C9.42236 75.5611 10.129 74.8484 11.004 74.8484C11.8789 74.8484 12.5856 75.5611 12.5856 76.4435C12.5856 77.3258 11.8789 78.0385 11.004 78.0385C10.129 78.0385 9.42236 77.3258 9.42236 76.4435ZM9.42236 70.199C9.42236 69.3336 10.129 68.604 11.004 68.604C11.8789 68.604 12.5856 69.3336 12.5856 70.199C12.5856 71.0814 11.8789 71.7941 11.004 71.7941C10.129 71.7941 9.42236 71.0814 9.42236 70.199ZM9.42236 63.9716C9.42236 63.0892 10.129 62.3765 11.004 62.3765C11.8789 62.3765 12.5856 63.0892 12.5856 63.9716C12.5856 64.854 11.8789 65.5666 11.004 65.5666C10.129 65.5666 9.42236 64.854 9.42236 63.9716ZM9.42236 57.7272C9.42236 56.8448 10.129 56.1321 11.004 56.1321C11.8789 56.1321 12.5856 56.8448 12.5856 57.7272C12.5856 58.6095 11.8789 59.3222 11.004 59.3222C10.129 59.3222 9.42236 58.6095 9.42236 57.7272ZM9.42236 51.4997C9.42236 50.6173 10.129 49.9046 11.004 49.9046C11.8789 49.9046 12.5856 50.6173 12.5856 51.4997C12.5856 52.3821 11.8789 53.0947 11.004 53.0947C10.129 53.0947 9.42236 52.3821 9.42236 51.4997ZM9.42236 45.2553C9.42236 44.3729 10.129 43.6602 11.004 43.6602C11.8789 43.6602 12.5856 44.3729 12.5856 45.2553C12.5856 46.1376 11.8789 46.8503 11.004 46.8503C10.129 46.8503 9.42236 46.1376 9.42236 45.2553ZM9.42236 39.0278C9.42236 38.1454 10.129 37.4158 11.004 37.4158C11.8789 37.4158 12.5856 38.1454 12.5856 39.0278C12.5856 39.8932 11.8789 40.6228 11.004 40.6228C10.129 40.6228 9.42236 39.8932 9.42236 39.0278ZM9.42236 32.7834C9.42236 31.901 10.129 31.1883 11.004 31.1883C11.8789 31.1883 12.5856 31.901 12.5856 32.7834C12.5856 33.6657 11.8789 34.3784 11.004 34.3784C10.129 34.3784 9.42236 33.6657 9.42236 32.7834ZM9.42236 26.5389C9.42236 25.6566 10.129 24.9439 11.004 24.9439C11.8789 24.9439 12.5856 25.6566 12.5856 26.5389C12.5856 27.4213 11.8789 28.134 11.004 28.134C10.129 28.134 9.42236 27.4213 9.42236 26.5389ZM9.42236 20.3115C9.42236 19.4291 10.129 18.7164 11.004 18.7164C11.8789 18.7164 12.5856 19.4291 12.5856 20.3115C12.5856 21.1938 11.8789 21.9065 11.004 21.9065C10.129 21.9065 9.42236 21.1938 9.42236 20.3115ZM9.42236 14.067C9.42236 13.1847 10.129 12.472 11.004 12.472C11.8789 12.472 12.5856 13.1847 12.5856 14.067C12.5856 14.9494 11.8789 15.6621 11.004 15.6621C10.129 15.6621 9.42236 14.9494 9.42236 14.067ZM9.42236 7.83955C9.42236 6.95719 10.129 6.22754 11.004 6.22754C11.8789 6.22754 12.5856 6.95719 12.5856 7.83955C12.5856 8.70495 11.8789 9.4346 11.004 9.4346C10.129 9.4346 9.42236 8.70495 9.42236 7.83955Z" fill="#037B6A"/>
<path d="M11.004 121.75C10.6002 121.75 10.1795 121.58 9.89349 121.274C9.74205 121.139 9.62427 120.952 9.54014 120.765C9.47284 120.562 9.42236 120.358 9.42236 120.154C9.42236 119.73 9.59062 119.323 9.89349 119.018C10.4824 118.424 11.5424 118.424 12.1313 119.018C12.4174 119.323 12.5856 119.73 12.5856 120.154C12.5856 120.358 12.552 120.562 12.4678 120.765C12.3837 120.952 12.2828 121.139 12.1313 121.274C11.8285 121.58 11.4246 121.75 11.004 121.75Z" fill="#037B6A"/>
<path d="M1.58163 7.9922C0.706684 7.9922 0 7.27952 0 6.39715V1.59505C0 0.71268 0.706684 0 1.58163 0C2.45657 0 3.16325 0.71268 3.16325 1.59505V6.38018C3.16325 7.26255 2.45657 7.97523 1.58163 7.97523V7.9922Z" fill="#037B6A"/>
<path d="M1.58163 107.072C0.706684 107.072 0 106.359 0 105.477V95.567C0 94.6847 0.706684 93.972 1.58163 93.972C2.45657 93.972 3.16325 94.6847 3.16325 95.567V105.477C3.16325 106.359 2.45657 107.072 1.58163 107.072ZM1.58163 87.2524C0.706684 87.2524 0 86.5397 0 85.6574V75.7477C0 74.8654 0.706684 74.1527 1.58163 74.1527C2.45657 74.1527 3.16325 74.8654 3.16325 75.7477V85.6574C3.16325 86.5397 2.45657 87.2524 1.58163 87.2524ZM1.58163 67.4331C0.706684 67.4331 0 66.7205 0 65.8381V55.9284C0 55.0461 0.706684 54.3334 1.58163 54.3334C2.45657 54.3334 3.16325 55.0461 3.16325 55.9284V65.8381C3.16325 66.7205 2.45657 67.4331 1.58163 67.4331ZM1.58163 47.6138C0.706684 47.6138 0 46.9012 0 46.0188V36.1092C0 35.2268 0.706684 34.5141 1.58163 34.5141C2.45657 34.5141 3.16325 35.2268 3.16325 36.1092V46.0188C3.16325 46.9012 2.45657 47.6138 1.58163 47.6138ZM1.58163 27.7946C0.706684 27.7946 0 27.0819 0 26.1995V16.2899C0 15.4075 0.706684 14.6948 1.58163 14.6948C2.45657 14.6948 3.16325 15.4075 3.16325 16.2899V26.1995C3.16325 27.0819 2.45657 27.7946 1.58163 27.7946Z" fill="#037B6A"/>
<path d="M1.58163 121.75C0.706684 121.75 0 121.037 0 120.155V115.369C0 114.487 0.706684 113.774 1.58163 113.774C2.45657 113.774 3.16325 114.487 3.16325 115.369V120.155C3.16325 121.037 2.45657 121.75 1.58163 121.75Z" fill="#037B6A"/>
<path d="M11.004 115.335C10.8021 115.335 10.6002 115.301 10.3983 115.217C10.2132 115.132 10.0449 115.013 9.89349 114.86C9.59062 114.572 9.42236 114.165 9.42236 113.74C9.42236 113.537 9.47284 113.316 9.54014 113.129C9.62427 112.943 9.74205 112.756 9.89349 112.62C10.0449 112.468 10.2132 112.349 10.3983 112.264C10.7853 112.094 11.2227 112.094 11.6097 112.264C11.8116 112.349 11.9799 112.468 12.1313 112.62C12.2828 112.756 12.3837 112.943 12.4678 113.129C12.552 113.316 12.5856 113.537 12.5856 113.74C12.5856 114.165 12.4174 114.572 12.1313 114.86C11.9799 115.013 11.8116 115.132 11.6097 115.217C11.4246 115.301 11.2227 115.335 11.004 115.335Z" fill="#037B6A"/>
<path d="M9.42236 226.021C9.42236 225.139 10.129 224.426 11.004 224.426C11.8789 224.426 12.5856 225.139 12.5856 226.021C12.5856 226.904 11.8789 227.616 11.004 227.616C10.129 227.616 9.42236 226.904 9.42236 226.021ZM9.42236 219.777C9.42236 218.895 10.129 218.182 11.004 218.182C11.8789 218.182 12.5856 218.895 12.5856 219.777C12.5856 220.659 11.8789 221.372 11.004 221.372C10.129 221.372 9.42236 220.659 9.42236 219.777ZM9.42236 213.55C9.42236 212.667 10.129 211.938 11.004 211.938C11.8789 211.938 12.5856 212.667 12.5856 213.55C12.5856 214.432 11.8789 215.145 11.004 215.145C10.129 215.145 9.42236 214.432 9.42236 213.55ZM9.42236 207.305C9.42236 206.423 10.129 205.71 11.004 205.71C11.8789 205.71 12.5856 206.423 12.5856 207.305C12.5856 208.187 11.8789 208.9 11.004 208.9C10.129 208.9 9.42236 208.187 9.42236 207.305ZM9.42236 201.078C9.42236 200.178 10.129 199.466 11.004 199.466C11.8789 199.466 12.5856 200.178 12.5856 201.078C12.5856 201.943 11.8789 202.656 11.004 202.656C10.129 202.656 9.42236 201.943 9.42236 201.078ZM9.42236 194.833C9.42236 193.951 10.129 193.238 11.004 193.238C11.8789 193.238 12.5856 193.951 12.5856 194.833C12.5856 195.716 11.8789 196.428 11.004 196.428C10.129 196.428 9.42236 195.716 9.42236 194.833ZM9.42236 188.589C9.42236 187.706 10.129 186.994 11.004 186.994C11.8789 186.994 12.5856 187.706 12.5856 188.589C12.5856 189.471 11.8789 190.184 11.004 190.184C10.129 190.184 9.42236 189.471 9.42236 188.589ZM9.42236 182.361C9.42236 181.479 10.129 180.749 11.004 180.749C11.8789 180.749 12.5856 181.479 12.5856 182.361C12.5856 183.244 11.8789 183.956 11.004 183.956C10.129 183.956 9.42236 183.244 9.42236 182.361ZM9.42236 176.117C9.42236 175.234 10.129 174.522 11.004 174.522C11.8789 174.522 12.5856 175.234 12.5856 176.117C12.5856 176.999 11.8789 177.712 11.004 177.712C10.129 177.712 9.42236 176.999 9.42236 176.117ZM9.42236 169.889C9.42236 168.99 10.129 168.277 11.004 168.277C11.8789 168.277 12.5856 168.99 12.5856 169.889C12.5856 170.755 11.8789 171.484 11.004 171.484C10.129 171.484 9.42236 170.755 9.42236 169.889ZM9.42236 163.645C9.42236 162.763 10.129 162.05 11.004 162.05C11.8789 162.05 12.5856 162.763 12.5856 163.645C12.5856 164.527 11.8789 165.24 11.004 165.24C10.129 165.24 9.42236 164.527 9.42236 163.645ZM9.42236 157.401C9.42236 156.518 10.129 155.805 11.004 155.805C11.8789 155.805 12.5856 156.518 12.5856 157.401C12.5856 158.283 11.8789 158.996 11.004 158.996C10.129 158.996 9.42236 158.283 9.42236 157.401ZM9.42236 151.173C9.42236 150.291 10.129 149.561 11.004 149.561C11.8789 149.561 12.5856 150.291 12.5856 151.173C12.5856 152.055 11.8789 152.768 11.004 152.768C10.129 152.768 9.42236 152.055 9.42236 151.173ZM9.42236 144.929C9.42236 144.046 10.129 143.334 11.004 143.334C11.8789 143.334 12.5856 144.046 12.5856 144.929C12.5856 145.811 11.8789 146.524 11.004 146.524C10.129 146.524 9.42236 145.811 9.42236 144.929ZM9.42236 138.701C9.42236 137.802 10.129 137.089 11.004 137.089C11.8789 137.089 12.5856 137.802 12.5856 138.701C12.5856 139.567 11.8789 140.296 11.004 140.296C10.129 140.296 9.42236 139.567 9.42236 138.701ZM9.42236 132.457C9.42236 131.574 10.129 130.862 11.004 130.862C11.8789 130.862 12.5856 131.574 12.5856 132.457C12.5856 133.339 11.8789 134.052 11.004 134.052C10.129 134.052 9.42236 133.339 9.42236 132.457ZM9.42236 126.212C9.42236 125.33 10.129 124.617 11.004 124.617C11.8789 124.617 12.5856 125.33 12.5856 126.212C12.5856 127.095 11.8789 127.807 11.004 127.807C10.129 127.807 9.42236 127.095 9.42236 126.212ZM9.42236 119.985C9.42236 119.102 10.129 118.39 11.004 118.39C11.8789 118.39 12.5856 119.102 12.5856 119.985C12.5856 120.867 11.8789 121.58 11.004 121.58C10.129 121.58 9.42236 120.867 9.42236 119.985Z" fill="#037B6A"/>
<path d="M11.004 233.895C10.903 233.895 10.8021 233.895 10.7011 233.861C10.6002 233.844 10.4992 233.81 10.3983 233.776C10.3141 233.725 10.2132 233.691 10.129 233.623C10.0449 233.572 9.96079 233.504 9.89349 233.42C9.59062 233.131 9.42236 232.724 9.42236 232.3C9.42236 232.096 9.47284 231.875 9.54014 231.689C9.62427 231.485 9.74205 231.316 9.89349 231.163C10.4824 230.586 11.5424 230.586 12.1313 231.163C12.2828 231.316 12.3837 231.485 12.4678 231.689C12.552 231.875 12.5856 232.096 12.5856 232.3C12.5856 232.402 12.5856 232.503 12.5688 232.605C12.5351 232.707 12.5183 232.809 12.4678 232.911C12.4342 233.012 12.3837 233.097 12.3332 233.182C12.2659 233.267 12.1986 233.352 12.1313 233.42C11.8285 233.725 11.4246 233.895 11.004 233.895Z" fill="#037B6A"/>
<path d="M1.58163 120.138C0.706684 120.138 0 119.425 0 118.542V113.74C0 112.858 0.706684 112.145 1.58163 112.145C2.45657 112.145 3.16325 112.858 3.16325 113.74V118.542C3.16325 119.425 2.45657 120.138 1.58163 120.138Z" fill="#037B6A"/>
<path d="M1.58163 219.217C0.706684 219.217 0 218.504 0 217.622V207.712C0 206.83 0.706684 206.117 1.58163 206.117C2.45657 206.117 3.16325 206.83 3.16325 207.712V217.622C3.16325 218.504 2.45657 219.217 1.58163 219.217ZM1.58163 199.398C0.706684 199.398 0 198.685 0 197.803V187.893C0 187.011 0.706684 186.298 1.58163 186.298C2.45657 186.298 3.16325 187.011 3.16325 187.893V197.803C3.16325 198.685 2.45657 199.398 1.58163 199.398ZM1.58163 179.578C0.706684 179.578 0 178.866 0 177.983V168.074C0 167.191 0.706684 166.479 1.58163 166.479C2.45657 166.479 3.16325 167.191 3.16325 168.074V177.983C3.16325 178.866 2.45657 179.578 1.58163 179.578ZM1.58163 159.759C0.706684 159.759 0 159.046 0 158.164V148.254C0 147.372 0.706684 146.659 1.58163 146.659C2.45657 146.659 3.16325 147.372 3.16325 148.254V158.164C3.16325 159.046 2.45657 159.759 1.58163 159.759ZM1.58163 139.94C0.706684 139.94 0 139.227 0 138.345V128.435C0 127.553 0.706684 126.84 1.58163 126.84C2.45657 126.84 3.16325 127.553 3.16325 128.435V138.345C3.16325 139.227 2.45657 139.94 1.58163 139.94Z" fill="#037B6A"/>
<path d="M1.58163 233.895C0.706684 233.895 0 233.182 0 232.3V227.515C0 226.632 0.706684 225.92 1.58163 225.92C2.45657 225.92 3.16325 226.632 3.16325 227.515V232.3C3.16325 233.182 2.45657 233.895 1.58163 233.895Z" fill="#037B6A"/>
<path d="M20.0059 236.151V0.984131H227.872V190.353L182.998 235.592L20.0059 236.151Z" stroke="#111516" stroke-miterlimit="10"/>
<path d="M34.3078 213.193H32.0027V219.675H34.2573C36.411 219.675 37.8412 218.182 37.8412 216.417C37.8412 214.652 36.4615 213.193 34.3078 213.193ZM34.3415 218.402H33.4665V214.483H34.3415C35.5529 214.483 36.3942 215.314 36.3942 216.434C36.3942 217.554 35.5698 218.402 34.3415 218.402Z" fill="#005745"/>
<path d="M42.9732 216.994C42.9732 217.893 42.4179 218.419 41.6776 218.419C40.9373 218.419 40.3652 217.893 40.3652 216.994V213.193H38.8845V217.028C38.8845 218.691 39.9614 219.76 41.6271 219.76C43.2929 219.76 44.4034 218.64 44.4034 216.977V213.176H42.9732V216.977V216.994Z" fill="#005745"/>
<path d="M49.939 216.281C50.4606 215.976 50.7635 215.484 50.7635 214.873C50.7635 213.787 49.838 213.193 48.7275 213.193H45.8335V219.675H48.879C50.0399 219.675 51.0327 218.979 51.0327 217.859C51.0327 217.147 50.612 216.536 49.9222 216.281M48.4247 215.806H47.2973V214.347H48.4247C49.0136 214.347 49.2996 214.703 49.2996 215.077C49.2996 215.45 49.0136 215.806 48.4247 215.806ZM47.2973 216.892H48.6266C49.1987 216.892 49.5857 217.215 49.5857 217.707C49.5857 218.148 49.2491 218.538 48.6266 218.538H47.2973V216.892Z" fill="#005745"/>
<path d="M55.4242 213.193H53.994L51.386 219.675H52.9171L53.4219 218.335H55.9121L56.4169 219.675H58.0154L55.4242 213.21V213.193ZM55.5083 217.13H53.8426L54.6838 214.907L55.5083 217.13Z" fill="#005745"/>
<path d="M60.2868 213.193H58.7893V219.675H60.2868V213.193Z" fill="#005745"/>
<path d="M66.8995 213.193H64.1064V219.675H65.5703V217.639H66.8491C68.3802 217.639 69.3056 216.621 69.3056 215.399C69.3056 214.025 68.2792 213.193 66.8827 213.193M65.5535 214.449H66.7481C67.4548 214.449 67.8418 214.89 67.8418 215.433C67.8418 215.976 67.438 216.417 66.7481 216.417H65.5535V214.432V214.449Z" fill="#005745"/>
<path d="M73.4616 213.108C71.5434 213.108 70.0627 214.568 70.0627 216.468C70.0627 218.369 71.4761 219.777 73.4111 219.777C75.3461 219.777 76.8099 218.318 76.8099 216.417C76.8099 214.517 75.3965 213.108 73.4616 213.108ZM73.4447 218.419C72.3174 218.419 71.5266 217.571 71.5266 216.434C71.5266 215.297 72.3174 214.466 73.4447 214.466C74.5721 214.466 75.3629 215.314 75.3629 216.434C75.3629 217.554 74.5552 218.419 73.4447 218.419Z" fill="#005745"/>
<path d="M90.9435 217.707C90.5733 218.182 90.0685 218.419 89.446 218.419C88.3355 218.419 87.5278 217.588 87.5278 216.434C87.5278 215.28 88.3355 214.466 89.446 214.466C90.0349 214.466 90.5228 214.686 90.9098 215.128V215.161L92.0035 214.211V214.177C91.3305 213.465 90.4892 213.108 89.4796 213.108C87.5783 213.108 86.0808 214.585 86.0808 216.468C86.0808 218.352 87.5278 219.777 89.4292 219.777C90.4724 219.777 91.3305 219.387 92.0035 218.623V218.589L90.9603 217.673V217.707H90.9435Z" fill="#005745"/>
<path d="M79.4514 213.193H77.9875V219.675H82.5642V218.369H79.4514V213.193Z" fill="#005745"/>
<path d="M84.903 213.193H83.4055V219.675H84.903V213.193Z" fill="#005745"/>
<path d="M94.3928 218.402V216.96H97.2195V215.738H94.3928V214.483H97.6738V213.193H92.929V219.675H97.758V218.402H94.3928Z" fill="#005745"/>
<path d="M67.3873 197.446C67.9089 197.446 68.3464 197.005 68.3464 196.479C68.3464 195.953 67.9089 195.512 67.3873 195.512C66.8657 195.512 66.4282 195.953 66.4282 196.479C66.4282 197.005 66.8657 197.446 67.3873 197.446Z" fill="#005745"/>
<path d="M92.5587 195.987C93.0803 195.987 93.5178 195.546 93.5178 195.02C93.5178 194.494 93.0803 194.053 92.5587 194.053C92.0371 194.053 91.5996 194.494 91.5996 195.02C91.5996 195.546 92.0371 195.987 92.5587 195.987Z" fill="#005745"/>
<path d="M91.2296 198.21C91.7512 198.21 92.1886 197.769 92.1886 197.243C92.1886 196.717 91.7512 196.275 91.2296 196.275C90.708 196.275 90.2705 196.717 90.2705 197.243C90.2705 197.769 90.6912 198.21 91.2296 198.21Z" fill="#005745"/>
<path d="M92.929 197.26C92.929 197.786 93.3496 198.227 93.888 198.227C94.4265 198.227 94.8471 197.786 94.8471 197.26C94.8471 196.734 94.4096 196.292 93.888 196.292C93.3664 196.292 92.929 196.734 92.929 197.26Z" fill="#005745"/>
<path d="M96.3782 198.447L94.7629 199.432C95.1331 200.059 96.2604 202.231 95.7388 205.337H93.4842V199.449H91.5997V205.337H90.1695V199.449H88.285V205.337H85.6265V198.668H83.742V206.151C83.742 207.678 82.4969 208.934 80.9826 208.934H80.4946V210.834H80.9826C83.1699 210.834 85.0039 209.29 85.4919 207.237H97.2363L97.4214 206.507C98.431 202.333 96.883 199.279 96.3782 198.447Z" fill="#005745"/>
<path d="M55.6092 198.43L54.7679 200.127C57.2077 201.366 57.3591 203.81 57.174 205.32H52.9844V207.22H58.7388L58.9071 206.474C60.068 201.145 56.7029 198.973 55.6429 198.43" fill="#005745"/>
<path d="M81.538 207.22L82.0428 205.523C82.4971 203.996 82.1942 202.316 81.252 201.044C79.5189 198.702 76.1874 198.312 73.9664 200.212L72.3006 201.638V196.462H70.4161V205.32H68.2961V198.651H66.3443C63.7531 198.651 61.6331 200.772 61.6331 203.402V207.22H63.5175V203.402C63.5175 201.841 64.7795 200.552 66.3443 200.552H66.4116V207.22H81.5212H81.538ZM72.3174 204.149L75.1947 201.671C76.5744 200.484 78.6608 200.721 79.7376 202.197C80.3265 202.995 80.5116 204.047 80.2256 204.997L80.1246 205.337H72.3006V204.149H72.3174Z" fill="#005745"/>
<path d="M49.8717 208.442C49.3501 208.442 48.9126 208.883 48.9126 209.409C48.9126 209.935 49.3501 210.376 49.8717 210.376C50.3933 210.376 50.8307 209.935 50.8307 209.409C50.8307 208.883 50.3933 208.442 49.8717 208.442Z" fill="#005745"/>
<path d="M39.8099 208.442C39.2883 208.442 38.8508 208.883 38.8508 209.409C38.8508 209.935 39.2883 210.376 39.8099 210.376C40.3315 210.376 40.769 209.935 40.769 209.409C40.769 208.883 40.3315 208.442 39.8099 208.442Z" fill="#005745"/>
<path d="M37.4039 208.442C36.8823 208.442 36.4448 208.883 36.4448 209.409C36.4448 209.935 36.8823 210.376 37.4039 210.376C37.9255 210.376 38.363 209.935 38.363 209.409C38.363 208.883 37.9255 208.442 37.4039 208.442Z" fill="#005745"/>
<path d="M65.0487 197.446C65.5703 197.446 66.0077 197.005 66.0077 196.479C66.0077 195.953 65.5703 195.512 65.0487 195.512C64.5271 195.512 64.0896 195.953 64.0896 196.479C64.0896 197.005 64.5271 197.446 65.0487 197.446Z" fill="#005745"/>
<path d="M49.9726 204.166C49.9726 204.811 49.451 205.32 48.8285 205.32H47.9704V198.651H45.9849C43.4442 198.651 41.4419 200.738 41.4419 203.402V205.32H33.8872V205.065C33.8872 203.08 34.3919 201.044 35.2837 199.33L33.6179 198.43C32.5747 200.416 31.9858 202.774 31.9858 205.065V207.22H43.2928V203.402C43.2928 201.773 44.4369 200.552 45.9513 200.552H46.0522V207.22H48.7948C50.4606 207.22 51.8235 205.846 51.8235 204.166V198.651H49.939V204.166H49.9726Z" fill="#005745"/>
<path d="M146.099 209.528C145.779 209.511 145.442 209.528 145.123 209.596C145.341 209.358 145.56 209.07 145.762 208.747C146.486 207.577 146.637 206.202 146.284 205.031C145.964 205.082 145.644 205.167 145.341 205.303C145.51 205.014 145.661 204.709 145.796 204.336C146.267 203.029 146.115 201.671 145.526 200.585C145.224 200.704 144.938 200.857 144.652 201.044C144.752 200.738 144.837 200.399 144.887 200.009C145.072 198.634 144.652 197.327 143.844 196.411C143.575 196.598 143.322 196.801 143.087 197.056C143.12 196.734 143.12 196.377 143.087 195.987C142.969 194.613 142.296 193.425 141.303 192.695C141.068 192.933 140.883 193.187 140.697 193.476C140.664 193.153 140.597 192.797 140.479 192.424C140.075 191.1 139.166 190.082 138.056 189.573C137.888 189.844 137.736 190.15 137.635 190.472C137.534 190.167 137.4 189.844 137.215 189.488C136.558 188.266 135.448 187.486 134.253 187.214C134.018 187.842 133.95 188.521 134.018 189.217C133.866 189.115 133.715 188.996 133.546 188.894C132.369 188.181 131.006 188.046 129.845 188.436C130.047 189.658 130.804 190.812 131.982 191.524C132.15 191.626 132.318 191.728 132.486 191.796C131.847 192.05 131.275 192.441 130.838 192.933C131.494 193.73 132.453 194.29 133.563 194.46C134.034 195.359 134.859 196.106 135.885 196.513C136.171 197.497 136.811 198.397 137.719 199.007C137.787 200.025 138.224 201.044 138.998 201.841C138.847 202.842 139.065 203.928 139.654 204.879C139.301 205.829 139.284 206.949 139.654 207.984C139.116 208.849 138.863 209.918 139.015 211.021C138.308 211.751 137.837 212.752 137.753 213.855C136.912 214.415 136.239 215.297 135.936 216.366C134.994 216.74 134.152 217.452 133.631 218.436C132.638 218.589 131.662 219.115 130.938 219.964C129.727 219.896 128.465 220.354 127.506 221.321C126.883 221.949 126.53 222.56 126.345 223.137C126.042 224.172 124.595 224.172 124.292 223.137C124.107 222.56 123.754 221.949 123.131 221.321C122.172 220.354 120.91 219.896 119.699 219.964C118.975 219.115 118.016 218.589 117.007 218.436C116.485 217.452 115.644 216.74 114.702 216.366C114.399 215.297 113.726 214.415 112.884 213.855C112.8 212.752 112.346 211.734 111.622 211.021C111.774 209.918 111.538 208.849 110.983 207.984C111.37 206.932 111.353 205.829 110.983 204.879C111.572 203.928 111.791 202.859 111.639 201.841C112.413 201.044 112.851 200.025 112.918 199.007C113.843 198.397 114.483 197.497 114.769 196.513C115.795 196.106 116.62 195.376 117.091 194.46C118.201 194.29 119.16 193.713 119.817 192.933C119.379 192.441 118.807 192.05 118.168 191.796C118.336 191.711 118.504 191.626 118.672 191.524C119.85 190.812 120.591 189.658 120.809 188.436C119.648 188.063 118.285 188.181 117.108 188.894C116.939 188.996 116.771 189.115 116.637 189.217C116.721 188.521 116.637 187.842 116.401 187.214C115.206 187.469 114.096 188.266 113.44 189.488C113.255 189.827 113.12 190.167 113.019 190.472C112.918 190.15 112.767 189.861 112.598 189.573C111.488 190.082 110.562 191.1 110.175 192.424C110.058 192.797 109.99 193.153 109.974 193.476C109.805 193.187 109.603 192.933 109.368 192.695C108.392 193.425 107.702 194.613 107.584 195.987C107.551 196.377 107.567 196.734 107.584 197.056C107.349 196.818 107.096 196.598 106.827 196.411C106.019 197.344 105.599 198.651 105.784 200.009C105.834 200.399 105.918 200.738 106.019 201.044C105.75 200.857 105.447 200.704 105.161 200.585C104.556 201.654 104.421 203.029 104.892 204.336C105.027 204.709 105.178 205.031 105.346 205.303C105.044 205.184 104.724 205.082 104.404 205.031C104.051 206.202 104.185 207.577 104.926 208.747C105.128 209.087 105.346 209.358 105.565 209.596C105.245 209.545 104.909 209.511 104.589 209.528C104.488 210.75 104.909 212.056 105.868 213.057C106.137 213.346 106.406 213.566 106.676 213.753C106.339 213.753 106.019 213.821 105.7 213.906C105.851 215.128 106.541 216.315 107.685 217.079C108.005 217.3 108.325 217.469 108.611 217.588C108.291 217.673 107.988 217.792 107.702 217.944C108.106 219.115 109.031 220.116 110.31 220.625C110.68 220.761 111.017 220.863 111.32 220.931C111.034 221.083 110.748 221.253 110.495 221.474C111.135 222.526 112.245 223.323 113.608 223.544C113.995 223.612 114.348 223.629 114.668 223.629C114.416 223.832 114.18 224.07 113.978 224.324C114.819 225.207 116.081 225.75 117.444 225.682C117.831 225.665 118.185 225.614 118.487 225.529C118.285 225.784 118.1 226.072 117.949 226.361C118.959 227.056 120.305 227.311 121.634 226.955C122.273 226.785 122.778 226.547 123.182 226.276C124.477 225.394 126.177 225.36 127.506 226.276C127.91 226.547 128.415 226.785 129.054 226.955C130.383 227.311 131.729 227.056 132.739 226.361C132.604 226.072 132.419 225.784 132.2 225.529C132.52 225.614 132.857 225.648 133.244 225.682C134.623 225.75 135.868 225.207 136.71 224.324C136.508 224.07 136.272 223.832 136.02 223.629C136.34 223.629 136.693 223.629 137.08 223.544C138.443 223.323 139.553 222.526 140.193 221.474C139.94 221.27 139.671 221.083 139.368 220.931C139.688 220.88 140.024 220.778 140.378 220.625C141.657 220.116 142.582 219.098 142.986 217.944C142.7 217.792 142.397 217.673 142.06 217.588C142.363 217.452 142.666 217.3 142.986 217.079C144.13 216.315 144.82 215.128 144.971 213.906C144.652 213.821 144.332 213.77 143.995 213.753C144.265 213.566 144.534 213.346 144.803 213.057C145.762 212.056 146.183 210.767 146.082 209.528M117.579 219.336C118.302 219.607 118.959 220.133 119.43 220.863C119.985 221.745 120.17 222.509 120.035 223.205C119.362 223.035 118.74 222.543 118.168 221.677C117.697 220.948 117.511 220.116 117.562 219.336M115.038 217.367C115.694 217.792 116.233 218.436 116.536 219.251C116.906 220.235 116.923 221.033 116.637 221.66C116.014 221.355 115.509 220.744 115.139 219.777C114.836 218.962 114.819 218.114 115.038 217.367ZM112.985 214.907C113.541 215.467 113.928 216.214 114.062 217.079C114.214 218.114 114.062 218.895 113.658 219.471C113.103 219.047 112.75 218.335 112.598 217.299C112.481 216.434 112.632 215.603 113.002 214.907M111.505 212.073C111.925 212.735 112.161 213.549 112.094 214.415C112.026 215.45 111.723 216.197 111.202 216.672C110.748 216.129 110.546 215.365 110.613 214.33C110.663 213.465 111 212.684 111.505 212.09M108.712 207.475C109.115 206.711 109.738 206.134 110.445 205.795C110.562 206.575 110.445 207.407 110.024 208.17C109.536 209.087 108.964 209.63 108.291 209.85C108.106 209.172 108.224 208.391 108.712 207.458M107.971 206.117C107.921 205.422 108.207 204.675 108.88 203.877C109.435 203.216 110.159 202.774 110.916 202.605C110.865 203.385 110.562 204.183 110.007 204.845C109.334 205.642 108.661 206.049 107.971 206.117ZM109.3 210.987C109.536 210.139 110.024 209.46 110.647 208.985C110.916 209.715 110.966 210.563 110.731 211.394C110.445 212.396 109.99 213.04 109.385 213.397C109.065 212.769 109.014 211.988 109.3 210.97M110.68 201.587C109.856 202.231 109.115 202.469 108.409 202.401C108.51 201.705 108.947 201.044 109.772 200.399C110.461 199.873 111.252 199.601 112.026 199.584C111.824 200.331 111.353 201.044 110.68 201.587ZM118.689 192.882C118.084 193.357 117.293 193.662 116.418 193.679C115.375 193.696 114.634 193.459 114.13 192.967C114.617 192.474 115.358 192.186 116.401 192.169C117.259 192.169 118.067 192.424 118.689 192.882ZM117.495 189.488C118.235 189.03 119.059 188.86 119.833 188.945C119.547 189.675 119.009 190.319 118.269 190.778C117.377 191.321 116.603 191.49 115.93 191.321C116.115 190.642 116.62 190.031 117.495 189.488ZM114.096 189.793C114.516 189.03 115.139 188.47 115.846 188.147C115.947 188.928 115.812 189.76 115.391 190.523C114.887 191.439 114.298 191.965 113.642 192.169C113.456 191.49 113.591 190.71 114.096 189.793ZM113.625 194.409C114.466 194.205 115.307 194.307 116.014 194.613C115.509 195.206 114.803 195.665 113.961 195.868C112.952 196.106 112.161 196.021 111.572 195.665C111.942 195.071 112.615 194.646 113.625 194.409ZM110.882 192.576C111.135 191.745 111.622 191.049 112.245 190.591C112.514 191.321 112.548 192.169 112.295 193.001C111.993 194.002 111.538 194.646 110.933 194.986C110.613 194.358 110.579 193.56 110.882 192.559M111.387 197.175C112.161 196.801 113.002 196.717 113.759 196.869C113.406 197.565 112.8 198.159 112.009 198.532C111.067 198.973 110.293 199.058 109.637 198.838C109.889 198.176 110.445 197.616 111.387 197.175ZM108.325 195.953C108.392 195.088 108.728 194.307 109.25 193.713C109.654 194.375 109.873 195.189 109.805 196.072C109.721 197.107 109.401 197.837 108.88 198.312C108.442 197.769 108.24 197.005 108.325 195.953ZM106.962 197.446C107.5 198.006 107.887 198.77 108.005 199.618C108.14 200.653 107.988 201.434 107.567 201.994C107.029 201.553 106.659 200.84 106.524 199.805C106.406 198.94 106.575 198.108 106.962 197.429M105.515 201.553C106.154 201.977 106.692 202.639 106.979 203.47C107.332 204.454 107.332 205.252 107.046 205.897C106.423 205.591 105.919 204.963 105.565 203.979C105.279 203.165 105.262 202.316 105.498 201.57M104.943 205.914C105.666 206.202 106.322 206.728 106.777 207.475C107.332 208.357 107.5 209.138 107.349 209.833C106.676 209.664 106.053 209.172 105.515 208.272C105.06 207.526 104.875 206.711 104.943 205.931M106.356 212.463C105.75 211.836 105.397 211.072 105.296 210.291C106.053 210.41 106.81 210.801 107.416 211.428C108.14 212.175 108.476 212.905 108.476 213.6C107.786 213.583 107.079 213.21 106.356 212.463ZM108.055 216.383C107.332 215.891 106.827 215.212 106.575 214.483C107.349 214.449 108.156 214.652 108.88 215.144C109.738 215.721 110.209 216.366 110.361 217.045C109.671 217.164 108.913 216.96 108.055 216.383ZM110.529 219.845C109.721 219.522 109.082 218.962 108.678 218.301C109.418 218.097 110.26 218.131 111.067 218.453C112.026 218.844 112.632 219.353 112.918 219.997C112.279 220.269 111.488 220.235 110.529 219.845ZM113.675 222.712C112.817 222.577 112.077 222.153 111.555 221.593C112.245 221.236 113.069 221.084 113.928 221.236C114.954 221.406 115.644 221.796 116.064 222.356C115.492 222.746 114.718 222.882 113.692 222.712M117.36 224.851C116.502 224.884 115.694 224.647 115.038 224.206C115.627 223.714 116.418 223.391 117.276 223.34C118.302 223.289 119.059 223.51 119.598 223.985C119.11 224.494 118.386 224.8 117.36 224.851ZM121.398 226.157C120.557 226.378 119.716 226.31 119.009 226.021C119.48 225.41 120.187 224.935 121.028 224.715C122.038 224.443 122.812 224.511 123.434 224.851C123.064 225.444 122.425 225.903 121.415 226.157M121.533 222.831C120.927 222.22 120.557 221.44 120.456 220.676C121.23 220.795 121.987 221.151 122.593 221.779C123.316 222.526 123.67 223.239 123.67 223.934C122.963 223.934 122.256 223.578 121.533 222.831ZM145.678 205.931C145.745 206.711 145.56 207.543 145.106 208.272C144.551 209.155 143.945 209.664 143.272 209.833C143.12 209.155 143.305 208.374 143.844 207.475C144.298 206.728 144.954 206.202 145.678 205.914M145.123 201.57C145.341 202.316 145.341 203.165 145.055 203.979C144.702 204.963 144.214 205.574 143.575 205.897C143.289 205.252 143.289 204.454 143.642 203.47C143.928 202.656 144.466 201.994 145.106 201.553M142.616 199.601C142.733 198.736 143.104 197.972 143.659 197.429C144.046 198.108 144.214 198.94 144.096 199.805C143.962 200.84 143.608 201.553 143.053 201.994C142.632 201.434 142.481 200.653 142.616 199.618M140.597 208.103C140.193 207.339 140.058 206.491 140.176 205.727C140.883 206.049 141.505 206.626 141.909 207.407C142.397 208.323 142.515 209.121 142.33 209.799C141.673 209.579 141.084 209.036 140.597 208.12M141.236 213.363C140.63 213.006 140.176 212.362 139.89 211.361C139.654 210.512 139.705 209.681 139.974 208.951C140.597 209.426 141.084 210.122 141.32 210.953C141.606 211.954 141.556 212.752 141.236 213.38M140.613 204.828C140.058 204.166 139.755 203.368 139.705 202.588C140.462 202.757 141.185 203.199 141.741 203.86C142.414 204.658 142.7 205.405 142.649 206.1C141.959 206.032 141.27 205.625 140.613 204.828ZM141.37 193.747C141.875 194.341 142.229 195.105 142.296 195.987C142.38 197.039 142.178 197.803 141.741 198.346C141.219 197.887 140.899 197.158 140.815 196.106C140.748 195.24 140.967 194.409 141.37 193.747ZM138.359 190.591C138.981 191.049 139.486 191.745 139.722 192.576C140.024 193.577 139.991 194.375 139.671 195.003C139.065 194.663 138.594 194.019 138.308 193.017C138.056 192.186 138.106 191.338 138.359 190.608M134.758 188.164C135.465 188.487 136.087 189.047 136.508 189.81C137.013 190.727 137.147 191.507 136.962 192.186C136.289 191.982 135.717 191.456 135.212 190.54C134.792 189.776 134.657 188.945 134.758 188.164ZM132.335 190.795C131.595 190.336 131.056 189.692 130.77 188.962C131.544 188.894 132.369 189.064 133.109 189.505C134.001 190.048 134.506 190.659 134.674 191.338C134.001 191.49 133.227 191.338 132.335 190.795ZM134.186 193.696C133.328 193.679 132.537 193.374 131.914 192.899C132.537 192.441 133.345 192.169 134.203 192.186C135.246 192.203 135.986 192.491 136.474 192.984C135.969 193.459 135.212 193.713 134.186 193.696ZM134.59 194.646C135.296 194.341 136.138 194.239 136.979 194.443C137.989 194.68 138.645 195.105 139.032 195.699C138.426 196.055 137.652 196.14 136.642 195.902C135.801 195.699 135.094 195.24 134.59 194.646ZM136.844 196.92C137.602 196.768 138.443 196.852 139.217 197.226C140.159 197.684 140.714 198.227 140.967 198.889C140.31 199.109 139.52 199.024 138.577 198.583C137.803 198.21 137.198 197.616 136.844 196.92ZM138.577 199.618C139.351 199.618 140.159 199.89 140.832 200.433C141.657 201.078 142.094 201.739 142.195 202.435C141.505 202.52 140.748 202.265 139.923 201.621C139.234 201.095 138.779 200.382 138.577 199.618ZM139.116 212.09C139.621 212.684 139.957 213.465 140.008 214.33C140.075 215.382 139.873 216.146 139.419 216.672C138.897 216.197 138.594 215.467 138.527 214.415C138.476 213.549 138.695 212.735 139.116 212.073M136.558 217.079C136.693 216.214 137.08 215.467 137.635 214.907C138.005 215.603 138.174 216.434 138.039 217.299C137.888 218.335 137.517 219.047 136.979 219.471C136.575 218.895 136.424 218.114 136.575 217.079M134.102 219.251C134.405 218.436 134.943 217.775 135.599 217.367C135.818 218.114 135.801 218.962 135.498 219.777C135.128 220.761 134.64 221.372 134.001 221.66C133.732 221.016 133.748 220.218 134.102 219.251ZM131.225 220.846C131.696 220.116 132.352 219.59 133.075 219.319C133.126 220.099 132.941 220.931 132.47 221.66C131.914 222.543 131.292 223.035 130.602 223.188C130.467 222.492 130.652 221.728 131.208 220.846M128.061 221.796C128.667 221.185 129.424 220.812 130.198 220.693C130.097 221.474 129.727 222.237 129.121 222.848C128.381 223.595 127.674 223.934 126.984 223.951C126.984 223.255 127.338 222.526 128.078 221.796M129.256 226.174C128.246 225.903 127.607 225.461 127.237 224.867C127.843 224.528 128.633 224.46 129.626 224.732C130.467 224.952 131.157 225.427 131.645 226.038C130.922 226.327 130.08 226.395 129.256 226.174ZM133.294 224.867C132.251 224.817 131.527 224.528 131.056 224.002C131.578 223.544 132.335 223.306 133.378 223.357C134.236 223.391 135.027 223.714 135.616 224.223C134.977 224.664 134.169 224.901 133.311 224.867M136.979 222.729C135.953 222.899 135.179 222.763 134.607 222.373C135.027 221.813 135.717 221.423 136.743 221.253C137.602 221.117 138.426 221.253 139.116 221.61C138.577 222.169 137.837 222.577 136.979 222.729ZM140.125 219.862C139.166 220.252 138.375 220.286 137.736 220.014C138.022 219.37 138.628 218.861 139.587 218.47C140.395 218.148 141.236 218.114 141.976 218.318C141.572 218.979 140.933 219.539 140.125 219.862ZM144.079 214.5C143.827 215.229 143.322 215.908 142.599 216.4C141.741 216.977 140.983 217.181 140.294 217.062C140.445 216.366 140.916 215.738 141.774 215.161C142.498 214.669 143.305 214.466 144.079 214.5ZM142.161 213.617C142.161 212.905 142.498 212.192 143.221 211.445C143.827 210.818 144.584 210.444 145.341 210.308C145.24 211.089 144.887 211.853 144.281 212.48C143.558 213.227 142.851 213.583 142.161 213.617Z" fill="#005745"/>
<path d="M113.591 208.764V209.29C113.742 209.63 114.55 211.157 115.863 213.074H113.978C113.978 213.074 114.348 213.855 115.509 213.855H135.128C136.289 213.855 136.659 213.074 136.659 213.074H134.943C135.986 211.513 136.491 210.58 137.315 209.002H138.258V207.509H133.143C127.758 203.097 126.614 195.58 129.744 189.946C120.793 191.745 114.079 199.601 113.591 208.747M113.995 208.747C116.637 207.101 119.682 206.151 122.795 205.964V208.747H113.995ZM132.688 208.136L132.251 208.747H124.006V205.931C126.968 205.948 129.946 206.66 132.705 208.136M131.023 206.491C125.739 204.403 119.648 204.709 114.5 207.543C115.442 199.652 121.062 193.204 128.381 191.066C126.311 196.14 127.186 202.164 131.039 206.474" fill="#005745"/>
<path d="M124.461 220.422H126.21C127.371 220.422 127.742 219.641 127.742 219.641H122.929C122.929 219.641 123.3 220.422 124.461 220.422Z" fill="#005745"/>
<path d="M131.241 218.012H119.43C119.43 218.012 119.8 218.793 120.961 218.793H129.71C130.871 218.793 131.241 218.012 131.241 218.012Z" fill="#005745"/>
<path d="M133.9 216.366H116.754C116.754 216.366 117.125 217.147 118.286 217.147H132.369C133.53 217.147 133.9 216.366 133.9 216.366Z" fill="#005745"/>
<path d="M135.532 214.72H115.139C115.139 214.72 115.509 215.501 116.67 215.501H134.001C135.162 215.501 135.532 214.72 135.532 214.72Z" fill="#005745"/>
<path d="M42.1656 38.7901V41.8784H36.6467C35.553 41.8784 34.5435 41.7596 33.6349 41.5051C32.7263 41.2506 31.9355 40.8773 31.2793 40.3513C30.623 39.8422 30.1014 39.1974 29.7313 38.4168C29.3611 37.6363 29.176 36.72 29.176 35.6849C29.176 34.7856 29.3443 33.9541 29.6808 33.2075C30.0173 32.4439 30.5053 31.7991 31.1446 31.2391C31.784 30.6961 32.5748 30.255 33.5003 29.9325C34.4257 29.6101 35.4857 29.4574 36.6635 29.4574H37.101V28.3545H40.1633V38.7901H42.1824H42.1656ZM35.267 25.1304C35.267 25.6395 35.0987 26.0467 34.7622 26.3182C34.4257 26.5897 34.0219 26.7255 33.5507 26.7255C33.0796 26.7255 32.6758 26.5897 32.3393 26.3182C32.0028 26.0467 31.8345 25.6565 31.8345 25.1304C31.8345 24.6553 32.0028 24.282 32.3225 23.9936C32.6421 23.7051 33.0628 23.5693 33.5339 23.5693C34.005 23.5693 34.4257 23.7051 34.7454 23.9936C35.0651 24.282 35.2333 24.6553 35.2333 25.1304H35.267ZM37.0842 38.7901V32.5457H35.9064C35.4521 32.5457 35.0146 32.6136 34.5771 32.7493C34.1396 32.8851 33.7526 33.0887 33.3993 33.3602C33.046 33.6317 32.7768 33.9541 32.558 34.3444C32.3393 34.7347 32.2383 35.1758 32.2383 35.6849C32.2383 36.194 32.3393 36.6521 32.5412 37.0254C32.7431 37.4157 32.9955 37.7381 33.332 37.9926C33.6517 38.2641 34.0387 38.4508 34.4593 38.5865C34.88 38.7223 35.3174 38.7901 35.7717 38.7901H37.101H37.0842ZM40.0119 25.1304C40.0119 25.6395 39.8436 26.0467 39.5071 26.3182C39.1706 26.5897 38.7667 26.7255 38.3124 26.7255C37.8581 26.7255 37.4375 26.5897 37.101 26.3182C36.7645 26.0467 36.5962 25.6565 36.5962 25.1304C36.5962 24.6553 36.7645 24.282 37.0842 23.9936C37.4039 23.7051 37.8245 23.5693 38.2956 23.5693C38.7667 23.5693 39.2042 23.7051 39.5239 23.9936C39.8436 24.282 40.0119 24.6553 40.0119 25.1304ZM41.7449 38.7901H46.0523V41.8784H41.7449V38.7901ZM45.6148 38.7901H49.9223V41.8784H45.6148V38.7901ZM49.4848 38.7901H53.7922V41.8784H49.4848V38.7901ZM53.3547 38.7901H56.2824C55.9627 38.3659 55.7103 37.8908 55.5084 37.3818C55.3233 36.8727 55.2224 36.2958 55.2224 35.6679C55.2224 34.7007 55.4075 33.8353 55.7608 33.0717C56.1142 32.3081 56.6189 31.6633 57.2583 31.1203C57.8977 30.5774 58.6717 30.1701 59.5803 29.8986C60.4889 29.6271 61.4816 29.4744 62.5753 29.4744H66.1928V41.8954H53.3547V38.8071V38.7901ZM58.3015 35.651C58.3015 36.3297 58.4529 36.9236 58.7558 37.4666C59.0587 37.9926 59.4625 38.4338 59.9673 38.7901H63.1473V32.5457H61.8518C61.4143 32.5457 60.9768 32.6136 60.5562 32.7493C60.1187 32.8851 59.7485 33.0887 59.412 33.3432C59.0923 33.6147 58.8231 33.9371 58.6212 34.3274C58.4193 34.7177 58.3183 35.1589 58.3183 35.6679L58.3015 35.651ZM63.467 25.928C63.467 26.471 63.282 26.8782 62.9286 27.1667C62.5753 27.4382 62.1546 27.5909 61.6667 27.5909C61.1787 27.5909 60.7581 27.4551 60.4047 27.1667C60.0514 26.8952 59.8663 26.471 59.8663 25.928C59.8663 25.4359 60.0346 25.0456 60.3879 24.7402C60.7244 24.4347 61.1619 24.282 61.6667 24.282C62.1715 24.282 62.6089 24.4347 62.9454 24.7402C63.282 25.0456 63.467 25.4359 63.467 25.928ZM69.6085 46.7314C69.3224 46.7314 69.0364 46.7145 68.7503 46.6805C68.4811 46.6466 68.2456 46.5957 68.0437 46.5448L67.8249 43.4565C68.111 43.5244 68.3802 43.5753 68.5989 43.6092C68.8176 43.6432 69.0364 43.6601 69.2719 43.6601C69.8777 43.6601 70.3151 43.4904 70.5507 43.1511C70.7863 42.8117 70.904 42.2687 70.904 41.5051V29.4744H73.9663V38.8071H76.322V41.8954H73.9327C73.8486 43.6092 73.4616 44.831 72.7717 45.5945C72.0819 46.3581 71.0218 46.7484 69.5748 46.7484L69.6085 46.7314ZM75.9013 38.7901H80.2087V41.8784H75.9013V38.7901ZM79.7713 38.7901H84.0787V41.8784H79.7713V38.7901ZM83.6412 38.7901H87.9486V41.8784H83.6412V38.7901ZM87.5111 38.7901H91.2128L88.5038 31.7821C89.0254 31.324 89.5639 30.8998 90.0855 30.5264C90.6239 30.1362 91.1623 29.8138 91.7008 29.5423C92.2392 29.2708 92.8113 29.0502 93.4002 28.8975C93.9891 28.7448 94.5948 28.6599 95.2174 28.6599C96.4793 28.6599 97.6739 28.9484 98.7844 29.5423C99.8949 30.1362 100.955 30.8828 101.965 31.8161L99.3397 38.8071H103.361V41.8954H87.528V38.8071L87.5111 38.7901ZM95.2174 31.9009C94.6116 31.9009 94.0395 32.0027 93.5348 32.1894C93.03 32.376 92.4916 32.6815 91.9363 33.0887L93.9218 38.7732H96.5466L98.532 33.0548C97.9263 32.6306 97.3711 32.3251 96.8831 32.1554C96.3952 31.9857 95.8399 31.8839 95.2174 31.8839V31.9009ZM102.924 38.7901H107.231V41.8784H102.924V38.7901ZM106.794 38.7901H108.914C108.863 38.5696 108.813 38.349 108.796 38.1114C108.779 37.8738 108.762 37.6363 108.762 37.3818C108.762 36.4485 108.93 35.5661 109.284 34.7516C109.62 33.9371 110.091 33.2245 110.68 32.6136C111.269 32.0027 111.959 31.5276 112.767 31.1713C113.557 30.8149 114.416 30.6452 115.307 30.6452C116.199 30.6452 117.091 30.8149 117.899 31.1713C118.706 31.5106 119.413 31.9857 120.019 32.5966C120.624 33.2075 121.095 33.9202 121.449 34.7347C121.785 35.5661 121.97 36.4485 121.97 37.3987C121.97 37.6532 121.97 37.8908 121.92 38.1284C121.886 38.3659 121.853 38.5865 121.802 38.8071H124.259V41.8954H120.17C119.564 42.5572 118.824 43.0662 117.999 43.4395C117.158 43.8128 116.266 43.9825 115.324 43.9825C114.382 43.9825 113.524 43.7959 112.699 43.4226C111.875 43.0493 111.168 42.5402 110.562 41.8954H106.827V38.8071L106.794 38.7901ZM113.928 40.6058C114.348 40.7924 114.803 40.8773 115.307 40.8773C115.812 40.8773 116.266 40.7924 116.704 40.6058C117.141 40.4191 117.528 40.1816 117.848 39.8592C118.168 39.5368 118.437 39.1635 118.605 38.7392C118.79 38.2981 118.874 37.8229 118.874 37.3139C118.874 36.8048 118.79 36.3127 118.605 35.8715C118.437 35.4304 118.185 35.0401 117.865 34.7177C117.545 34.3953 117.158 34.1408 116.721 33.9541C116.283 33.7674 115.795 33.6826 115.274 33.6826C114.752 33.6826 114.298 33.7844 113.877 33.9711C113.457 34.1577 113.086 34.4123 112.784 34.7516C112.481 35.074 112.245 35.4643 112.06 35.9055C111.892 36.3467 111.791 36.8218 111.791 37.3139C111.791 37.806 111.875 38.2811 112.06 38.7223C112.228 39.1635 112.481 39.5368 112.8 39.8422C113.12 40.1646 113.49 40.4022 113.911 40.5888L113.928 40.6058ZM123.821 38.7901H128.129V41.8784H123.821V38.7901ZM127.691 38.7901H129.828V23.9936H134.321V27.0818H132.89V41.8784H127.691V38.7901ZM138.039 23.9936H141.101V41.8784H138.039V23.9936ZM151.735 46.7314C151.449 46.7314 151.163 46.7145 150.877 46.6805C150.608 46.6466 150.372 46.5957 150.17 46.5448L149.952 43.4565C150.238 43.5244 150.49 43.5753 150.726 43.6092C150.944 43.6432 151.163 43.6601 151.399 43.6601C152.004 43.6601 152.442 43.4904 152.677 43.1511C152.913 42.8117 153.031 42.2687 153.031 41.5051V29.4744H156.093V38.8071H158.449V41.8954H156.06C155.975 43.6092 155.588 44.831 154.899 45.5945C154.209 46.3581 153.149 46.7484 151.702 46.7484L151.735 46.7314ZM156.312 25.928C156.312 26.471 156.127 26.8782 155.773 27.1667C155.42 27.4382 154.999 27.5909 154.512 27.5909C154.024 27.5909 153.603 27.4551 153.25 27.1667C152.896 26.8952 152.711 26.471 152.711 25.928C152.711 25.4359 152.879 25.0456 153.233 24.7402C153.569 24.4347 154.007 24.282 154.512 24.282C155.016 24.282 155.454 24.4347 155.79 24.7402C156.127 25.0456 156.312 25.4359 156.312 25.928ZM158.045 38.7901H162.352V41.8784H158.045V38.7901ZM161.915 38.7901H166.222V41.8784H161.915V38.7901ZM165.785 38.7901H170.092V41.8784H165.785V38.7901ZM169.655 38.7901H183.284V36.4315C183.284 35.9903 183.233 35.6001 183.149 35.2776C183.048 34.9383 182.897 34.6498 182.695 34.4123C182.51 34.1577 182.24 33.9541 181.921 33.8014C181.601 33.6317 181.231 33.5638 180.844 33.5638H171.708C171.438 33.1905 171.186 32.7663 171.001 32.2572C170.799 31.7482 170.698 31.1713 170.664 30.5095L174.215 24.0275H177.496L174.114 30.5095H180.558C181.551 30.5095 182.426 30.6452 183.166 30.8998C183.906 31.1543 184.562 31.5785 185.118 32.1724C185.589 32.6645 185.908 33.3093 186.094 34.0729C186.279 34.8534 186.38 35.6849 186.38 36.6012V41.9124H169.688V38.8241L169.655 38.7901ZM189.93 46.7314C189.644 46.7314 189.358 46.7145 189.072 46.6805C188.803 46.6466 188.567 46.5957 188.365 46.5448L188.146 43.4565C188.432 43.5244 188.685 43.5753 188.92 43.6092C189.139 43.6432 189.358 43.6601 189.593 43.6601C190.199 43.6601 190.637 43.4904 190.872 43.1511C191.108 42.8117 191.225 42.2687 191.225 41.5051V29.4744H194.288V38.8071H196.643V41.8954H194.254C194.17 43.6092 193.783 44.831 193.093 45.5945C192.403 46.3581 191.343 46.7484 189.896 46.7484L189.93 46.7314ZM196.223 38.7901H200.53V41.8784H196.223V38.7901ZM200.093 38.7901H204.4V41.8784H200.093V38.7901ZM203.963 38.7901H206.083C206.032 38.5696 205.982 38.349 205.965 38.1114C205.948 37.8738 205.931 37.6363 205.931 37.3818C205.931 36.4485 206.099 35.5661 206.453 34.7516C206.789 33.9371 207.26 33.2245 207.849 32.6136C208.438 32.0027 209.128 31.5276 209.936 31.1713C210.727 30.8149 211.585 30.6452 212.476 30.6452C213.368 30.6452 214.26 30.8149 215.068 31.1713C215.875 31.5106 216.582 31.9857 217.188 32.5966C217.793 33.2075 218.265 33.9202 218.618 34.7347C218.954 35.5661 219.139 36.4485 219.139 37.3987C219.139 38.349 218.954 39.2144 218.601 40.0119C218.248 40.8094 217.76 41.5051 217.154 42.099C216.548 42.6929 215.842 43.1511 215.034 43.4904C214.226 43.8298 213.385 43.9995 212.493 43.9995C211.568 43.9995 210.693 43.8128 209.868 43.4395C209.044 43.0662 208.337 42.5572 207.732 41.9124H203.996V38.8241L203.963 38.7901ZM211.097 40.6058C211.517 40.7924 211.972 40.8773 212.476 40.8773C212.981 40.8773 213.436 40.7924 213.873 40.6058C214.31 40.4361 214.697 40.1816 215.017 39.8592C215.337 39.5368 215.606 39.1635 215.791 38.7392C215.976 38.2981 216.06 37.8229 216.06 37.3139C216.06 36.8048 215.976 36.3127 215.791 35.8715C215.623 35.4304 215.37 35.0401 215.051 34.7177C214.731 34.3953 214.344 34.1408 213.907 33.9541C213.469 33.7674 212.981 33.6826 212.46 33.6826C211.938 33.6826 211.484 33.7844 211.063 33.9711C210.642 34.1577 210.272 34.4123 209.969 34.7516C209.667 35.074 209.431 35.4643 209.246 35.9055C209.078 36.3467 208.977 36.8218 208.977 37.3139C208.977 37.806 209.061 38.2811 209.246 38.7223C209.414 39.1635 209.667 39.5368 209.986 39.8422C210.306 40.1646 210.676 40.4022 211.097 40.5888V40.6058Z" fill="white"/>
<path d="M32.171 73.2024C31.885 73.2024 31.5989 73.1855 31.3129 73.1515C31.0437 73.1176 30.8081 73.0667 30.6062 73.0158L30.3875 69.9275C30.6735 69.9954 30.9427 70.0463 31.1614 70.0802C31.3802 70.1142 31.5989 70.1311 31.8345 70.1311C32.4402 70.1311 32.8777 69.9614 33.1132 69.6221C33.3488 69.2827 33.4666 68.7397 33.4666 67.9761V55.9624H36.5289V65.2951H38.8845V68.3834H36.4952C36.4111 70.0972 36.0241 71.3189 35.3342 72.0825C34.6444 72.8461 33.5844 73.2364 32.1373 73.2364L32.171 73.2024ZM38.4975 65.2611H43.0741V55.9284H46.1364V68.3494H38.4975V65.2611ZM42.6366 71.4886C42.6366 71.9977 42.4684 72.3879 42.1319 72.6594C41.7954 72.9309 41.3915 73.0497 40.9204 73.0497C40.4493 73.0497 40.0455 72.914 39.709 72.6594C39.3724 72.3879 39.2042 71.9977 39.2042 71.4886C39.2042 71.0135 39.3724 70.6402 39.6921 70.3347C40.0118 70.0463 40.4325 69.8936 40.9036 69.8936C41.3747 69.8936 41.7954 70.0463 42.115 70.3347C42.4347 70.6232 42.603 71.0135 42.603 71.4886H42.6366ZM47.3815 71.4886C47.3815 71.9977 47.2133 72.3879 46.8768 72.6594C46.5402 72.9309 46.1364 73.0497 45.6653 73.0497C45.1942 73.0497 44.7904 72.914 44.4538 72.6594C44.1173 72.3879 43.9491 71.9977 43.9491 71.4886C43.9491 71.0135 44.1173 70.6402 44.437 70.3347C44.7567 70.0463 45.1773 69.8936 45.6485 69.8936C46.1196 69.8936 46.5571 70.0463 46.8768 70.3347C47.1964 70.6232 47.3647 71.0135 47.3647 71.4886H47.3815ZM59.9336 65.2611H61.9695V68.3494H59.8831C59.8326 69.0621 59.6812 69.7239 59.4625 70.3178C59.2437 70.9117 58.9072 71.4207 58.4866 71.8449C58.0491 72.2692 57.4938 72.6085 56.804 72.8291C56.1141 73.0667 55.2897 73.1855 54.3138 73.1855C54.0277 73.1855 53.7585 73.1855 53.5061 73.1515C53.2537 73.1346 53.0182 73.1006 52.7658 73.0497C52.5134 72.9988 52.2778 72.9479 52.0086 72.897L51.1169 72.6594L50.8981 69.5542C51.5039 69.7408 52.0423 69.8936 52.5639 69.9784C53.0687 70.0633 53.5903 70.1142 54.095 70.1142C54.5157 70.1142 54.8858 70.0972 55.2055 70.0633C55.5252 70.0293 55.7944 69.9445 56.03 69.8257C56.2487 69.7069 56.4338 69.5203 56.5853 69.2827C56.7199 69.0451 56.8208 68.7397 56.8545 68.3494H56.5011C55.4579 68.3494 54.4652 68.2306 53.5566 67.9931C52.648 67.7555 51.8572 67.3822 51.1673 66.8901C50.4943 66.398 49.9559 65.7532 49.5689 64.9557C49.1819 64.1752 48.9968 63.2249 48.9968 62.122C48.9968 61.1548 49.1819 60.2894 49.5521 59.5258C49.9222 58.7622 50.4438 58.1174 51.1 57.5913C51.7562 57.0653 52.5471 56.6581 53.4725 56.3696C54.3979 56.0812 55.3906 55.9454 56.4843 55.9454H59.9336V65.2781V65.2611ZM52.0423 62.122C52.0423 62.631 52.1264 63.0892 52.3115 63.4794C52.4966 63.8697 52.749 64.1921 53.0687 64.4636C53.3883 64.7351 53.7585 64.9218 54.196 65.0575C54.6335 65.1933 55.0878 65.2611 55.5925 65.2611H56.8881V59.0167H55.5925C55.1382 59.0167 54.7008 59.0846 54.2633 59.2373C53.8258 59.39 53.4556 59.5936 53.1191 59.8651C52.7994 60.1366 52.5302 60.459 52.3283 60.8493C52.1264 61.2396 52.0255 61.6638 52.0255 62.122H52.0423ZM61.532 65.2611H63.6689V50.4646H66.7312V57.0314H73.3942C74.387 57.0314 75.2619 57.1671 76.0022 57.4217C76.7426 57.6762 77.3988 58.1004 77.954 58.6943C78.4252 59.1864 78.7449 59.8312 78.9299 60.5948C79.115 61.3753 79.216 62.2068 79.216 63.1231V65.2611H81.5716V68.3494H61.5152V65.2611H61.532ZM66.7312 60.1027V65.2611H76.1537V62.9874C76.1537 62.5462 76.1032 62.1559 76.0191 61.8335C75.9181 61.5111 75.7667 61.2057 75.5648 60.9681C75.3797 60.7136 75.1105 60.5099 74.7908 60.3572C74.4711 60.1875 74.1009 60.1197 73.7139 60.1197H66.7312V60.1027ZM81.1678 65.2611H85.7444V55.9284H88.8067V65.2611H92.8281V68.3494H81.1678V65.2611ZM86.4679 52.4668C86.4679 52.9759 86.2996 53.3831 85.9631 53.6546C85.6266 53.9261 85.2228 54.0619 84.7685 54.0619C84.3142 54.0619 83.8935 53.9261 83.557 53.6546C83.2205 53.3831 83.0523 52.9929 83.0523 52.4668C83.0523 51.9917 83.2205 51.6184 83.5402 51.3299C83.8599 51.0415 84.2805 50.9057 84.7517 50.9057C85.2228 50.9057 85.6434 51.0415 85.9631 51.3299C86.2828 51.6184 86.4511 51.9917 86.4511 52.4668H86.4679ZM91.2128 52.4668C91.2128 52.9759 91.0445 53.3831 90.708 53.6546C90.3715 53.9261 89.9677 54.0619 89.5134 54.0619C89.0591 54.0619 88.6384 53.9261 88.3019 53.6546C87.9654 53.3831 87.7971 52.9929 87.7971 52.4668C87.7971 51.9917 87.9654 51.6184 88.2851 51.3299C88.6048 51.0415 89.0254 50.9057 89.4965 50.9057C89.9677 50.9057 90.4051 51.0415 90.7248 51.3299C91.0445 51.6184 91.2128 51.9917 91.2128 52.4668ZM92.3906 65.2611H94.5275V50.4646H99.02V53.5528H97.5898V68.3494H92.3906V65.2611ZM102.738 50.4646H105.801V68.3494H102.738V50.4646ZM119.581 67.518C119.581 68.3494 119.497 69.13 119.312 69.8257C119.127 70.5214 118.824 71.1153 118.386 71.6244C117.949 72.1164 117.377 72.5067 116.653 72.7952C115.93 73.0667 115.038 73.2194 113.944 73.2194C113.658 73.2194 113.389 73.2194 113.137 73.1855C112.884 73.1685 112.649 73.1346 112.396 73.0837C112.161 73.0327 111.909 72.9818 111.639 72.9309L110.748 72.6934L110.529 69.5881C111.135 69.7748 111.673 69.9275 112.195 70.0123C112.699 70.0972 113.221 70.1481 113.726 70.1481C114.146 70.1481 114.517 70.1311 114.836 70.0972C115.156 70.0633 115.425 69.9784 115.661 69.8596C115.879 69.7408 116.065 69.5542 116.199 69.3166C116.334 69.0791 116.435 68.7736 116.468 68.3834H116.115C115.072 68.3834 114.079 68.2646 113.17 68.027C112.262 67.7895 111.471 67.4162 110.781 66.9241C110.108 66.432 109.57 65.7872 109.183 64.9896C108.796 64.2091 108.611 63.2589 108.611 62.1559C108.611 61.1887 108.796 60.3233 109.166 59.5597C109.536 58.7961 110.058 58.1513 110.714 57.6253C111.37 57.0993 112.161 56.692 113.086 56.4036C114.012 56.1151 115.004 55.9793 116.098 55.9793H119.547V67.5519L119.581 67.518ZM111.69 62.1389C111.69 62.648 111.774 63.1061 111.959 63.4964C112.144 63.8867 112.396 64.2091 112.716 64.4806C113.036 64.7521 113.406 64.9387 113.844 65.0745C114.281 65.2102 114.735 65.2781 115.24 65.2781H116.536V59.0337H115.24C114.786 59.0337 114.348 59.1016 113.911 59.2543C113.473 59.407 113.103 59.6106 112.767 59.8821C112.447 60.1536 112.178 60.476 111.976 60.8663C111.774 61.2566 111.673 61.6808 111.673 62.1389H111.69ZM129.895 73.2194C129.609 73.2194 129.323 73.2024 129.037 73.1685C128.768 73.1346 128.532 73.0837 128.331 73.0328L128.112 69.9445C128.398 70.0123 128.65 70.0633 128.886 70.0972C129.105 70.1311 129.323 70.1481 129.559 70.1481C130.165 70.1481 130.602 69.9784 130.838 69.639C131.073 69.2997 131.191 68.7567 131.191 67.9931V55.9793H134.253V67.5519C134.253 68.553 134.169 69.4015 134.018 70.1142C133.849 70.8268 133.597 71.4207 133.244 71.8789C132.89 72.337 132.436 72.6764 131.881 72.897C131.326 73.1176 130.652 73.2194 129.862 73.2194H129.895ZM138.426 50.4815H141.488V65.2781H144.281V68.3664H138.426V50.4815ZM143.844 65.2781H157.473V62.9195C157.473 62.4783 157.422 62.088 157.338 61.7656C157.237 61.4432 157.086 61.1378 156.884 60.9002C156.699 60.6457 156.43 60.4421 156.11 60.2894C155.79 60.1197 155.42 60.0518 155.033 60.0518H145.897C145.627 59.6785 145.375 59.2543 145.19 58.7452C144.988 58.2362 144.887 57.6592 144.853 56.9975L148.404 50.5155H151.685L148.303 56.9975H154.747C155.74 56.9975 156.615 57.1332 157.355 57.3877C158.095 57.6423 158.752 58.0665 159.307 58.6604C159.778 59.1525 160.098 59.7973 160.283 60.5608C160.468 61.3244 160.569 62.1729 160.569 63.0892V65.3121H162.908V68.4003H143.878V65.3121L143.844 65.2781ZM162.453 65.2781H167.03V55.9454H170.092V65.2781H174.114V68.3664H162.453V65.2781ZM167.753 52.4838C167.753 52.9929 167.585 53.4001 167.249 53.6716C166.912 53.9431 166.508 54.0789 166.054 54.0789C165.6 54.0789 165.179 53.9431 164.843 53.6716C164.506 53.4001 164.338 53.0098 164.338 52.4838C164.338 52.0087 164.506 51.6354 164.826 51.3469C165.145 51.0585 165.566 50.9227 166.037 50.9227C166.508 50.9227 166.929 51.0585 167.249 51.3469C167.568 51.6354 167.737 52.0087 167.737 52.4838H167.753ZM172.498 52.4838C172.498 52.9929 172.33 53.4001 171.994 53.6716C171.657 53.9431 171.253 54.0789 170.799 54.0789C170.345 54.0789 169.924 53.9431 169.587 53.6716C169.251 53.4001 169.083 53.0098 169.083 52.4838C169.083 52.0087 169.251 51.6354 169.571 51.3469C169.89 51.0585 170.311 50.9227 170.782 50.9227C171.253 50.9227 171.691 51.0585 172.01 51.3469C172.33 51.6354 172.498 52.0087 172.498 52.4838ZM173.676 65.2781H176.385V55.9454H179.447V68.3664H173.676V65.2781ZM179.75 71.4038C179.75 71.9468 179.565 72.354 179.212 72.6425C178.858 72.914 178.438 73.0667 177.95 73.0667C177.462 73.0667 177.041 72.9309 176.688 72.6425C176.335 72.371 176.15 71.9468 176.15 71.4038C176.15 70.9117 176.318 70.5214 176.671 70.216C177.008 69.9105 177.445 69.7578 177.95 69.7578C178.455 69.7578 178.892 69.9105 179.229 70.216C179.565 70.5214 179.75 70.9117 179.75 71.4038ZM181.954 65.2781H188.197C188.685 65.2781 189.156 65.2102 189.577 65.0915C189.997 64.9727 190.367 64.786 190.67 64.5315C190.956 64.277 191.192 63.9715 191.343 63.5982C191.511 63.2249 191.579 62.7668 191.579 62.2238V48.8356H196.071V51.9239H194.641V62.122C194.641 63.0383 194.506 63.9037 194.237 64.7521C193.968 65.5835 193.547 66.2623 193.009 66.7883C192.386 67.3652 191.612 67.7725 190.704 68.0101C189.795 68.2476 188.752 68.3664 187.557 68.3664H182.325L181.954 65.2781ZM185.067 52.5517H188.129V64.1752H185.067V52.5517ZM199.924 50.4815H202.987V68.3664H199.924V50.4815ZM216.767 67.5349C216.767 68.3664 216.683 69.1469 216.498 69.8427C216.313 70.5384 216.01 71.1323 215.572 71.6413C215.135 72.1334 214.563 72.5237 213.839 72.8122C213.116 73.0837 212.224 73.2364 211.13 73.2364C210.844 73.2364 210.575 73.2364 210.323 73.2024C210.07 73.1855 209.835 73.1515 209.582 73.1006C209.347 73.0497 209.094 72.9988 208.825 72.9479L207.933 72.7103L207.715 69.6051C208.32 69.7918 208.859 69.9445 209.38 70.0293C209.885 70.1142 210.407 70.1651 210.912 70.1651C211.332 70.1651 211.702 70.1481 212.022 70.1142C212.342 70.0802 212.611 69.9954 212.847 69.8766C213.065 69.7578 213.25 69.5712 213.385 69.3336C213.52 69.096 213.621 68.7906 213.654 68.4003H213.301C212.258 68.4003 211.265 68.2815 210.356 68.044C209.448 67.8064 208.657 67.4331 207.967 66.941C207.294 66.4489 206.756 65.8041 206.369 65.0066C205.982 64.2261 205.797 63.2758 205.797 62.1729C205.797 61.2057 205.982 60.3403 206.352 59.5767C206.722 58.8131 207.244 58.1683 207.9 57.6423C208.556 57.1162 209.347 56.709 210.272 56.4205C211.198 56.1321 212.19 55.9963 213.284 55.9963H216.733V67.5689L216.767 67.5349ZM208.876 62.1559C208.876 62.665 208.96 63.1231 209.145 63.5134C209.33 63.9037 209.582 64.2261 209.902 64.4976C210.222 64.7691 210.592 64.9557 211.029 65.0915C211.467 65.2272 211.921 65.2951 212.426 65.2951H213.722V59.0506H212.426C211.972 59.0506 211.534 59.1185 211.097 59.2712C210.659 59.424 210.289 59.6276 209.953 59.8991C209.633 60.1706 209.364 60.493 209.162 60.8833C208.96 61.2735 208.859 61.6977 208.859 62.1559H208.876Z" fill="white"/>
<path d="M33.5171 116.829V104.442H35.7044V110.635L40.483 104.442H43.1414L38.2115 110.584L43.4443 116.829H40.7017L35.6876 110.652V116.829H33.5002H33.5171Z" fill="#005745"/>
<path d="M47.2638 106.495V116.812H45.1101V104.425H48.4753L52.9509 114.741V104.425H55.0878V116.812H51.7395L47.2638 106.495Z" fill="#005745"/>
<path d="M70.046 110.601C70.046 111.5 69.8945 112.349 69.5748 113.129C69.2551 113.91 68.8177 114.589 68.2624 115.166C67.7072 115.743 67.0341 116.184 66.2433 116.523C65.4693 116.846 64.6112 117.015 63.669 117.015C62.7267 117.015 61.8686 116.846 61.0946 116.523C60.3206 116.201 59.6476 115.743 59.0755 115.166C58.5035 114.589 58.066 113.91 57.7631 113.129C57.4603 112.349 57.292 111.5 57.292 110.601C57.292 109.702 57.4434 108.87 57.7631 108.09C58.0828 107.309 58.5203 106.63 59.0755 106.054C59.6308 105.477 60.3206 105.035 61.0946 104.696C61.8686 104.374 62.7267 104.204 63.669 104.204C64.6112 104.204 65.4693 104.374 66.2433 104.696C67.0173 105.035 67.6903 105.477 68.2624 106.054C68.8345 106.63 69.272 107.309 69.5748 108.09C69.8777 108.87 70.046 109.719 70.046 110.601ZM67.438 112.366C67.6399 111.84 67.7408 111.246 67.7408 110.601C67.7408 109.956 67.6399 109.362 67.438 108.836C67.2361 108.31 66.95 107.852 66.5798 107.479C66.2097 107.106 65.789 106.817 65.3011 106.614C64.8131 106.41 64.2579 106.308 63.6858 106.308C63.1137 106.308 62.5753 106.41 62.0874 106.614C61.5994 106.817 61.1619 107.106 60.7918 107.479C60.4216 107.852 60.1356 108.31 59.9336 108.836C59.7317 109.362 59.6308 109.956 59.6308 110.601C59.6308 111.246 59.7317 111.84 59.9336 112.366C60.1356 112.892 60.4216 113.35 60.7918 113.723C61.1619 114.097 61.5826 114.385 62.0874 114.589C62.5753 114.792 63.1137 114.894 63.6858 114.894C64.2579 114.894 64.8131 114.792 65.3011 114.589C65.789 114.385 66.2265 114.097 66.5798 113.723C66.95 113.35 67.2361 112.892 67.438 112.366Z" fill="#005745"/>
<path d="M81.8746 114.249L83.8769 104.442H86.2998L83.473 116.829H80.4276L78.644 106.529L76.8605 116.829H73.815L70.9883 104.442H73.3944L75.3966 114.249L77.1297 104.442H80.1752L81.9082 114.249H81.8746Z" fill="#005745"/>
<path d="M90.4557 114.775H96.1091V116.829H88.2683V104.442H90.4725V114.775H90.4557Z" fill="#005745"/>
<path d="M97.9094 104.442H105.75V106.495H100.08V109.447H105.212V111.517H100.08V114.792H105.767V116.846H97.8926V104.459L97.9094 104.442Z" fill="#005745"/>
<path d="M108.291 104.442H111.538C112.565 104.442 113.507 104.577 114.382 104.832C115.257 105.086 116.014 105.477 116.653 105.986C117.293 106.495 117.781 107.14 118.134 107.903C118.487 108.667 118.673 109.566 118.673 110.567C118.673 111.568 118.504 112.451 118.151 113.231C117.798 114.012 117.326 114.674 116.704 115.2C116.081 115.726 115.341 116.133 114.483 116.404C113.625 116.676 112.666 116.812 111.639 116.812H108.308V104.425L108.291 104.442ZM111.488 114.775C112.228 114.775 112.901 114.708 113.507 114.555C114.113 114.402 114.618 114.165 115.038 113.825C115.459 113.486 115.795 113.062 116.014 112.519C116.233 111.976 116.351 111.331 116.351 110.55C116.351 109.821 116.233 109.21 115.997 108.701C115.762 108.192 115.442 107.767 115.021 107.428C114.601 107.089 114.096 106.851 113.507 106.698C112.918 106.546 112.262 106.478 111.538 106.478H110.445V114.775H111.454H111.488Z" fill="#005745"/>
<path d="M126.766 117.015C125.79 117.015 124.915 116.863 124.124 116.54C123.333 116.218 122.66 115.777 122.122 115.2C121.566 114.623 121.146 113.944 120.843 113.163C120.54 112.383 120.389 111.534 120.389 110.618C120.389 109.702 120.54 108.853 120.843 108.073C121.146 107.292 121.566 106.614 122.122 106.037C122.677 105.46 123.333 105.018 124.124 104.696C124.915 104.374 125.79 104.221 126.766 104.221C127.657 104.221 128.499 104.323 129.273 104.509C130.064 104.696 130.72 104.968 131.241 105.29L130.4 107.224C129.963 106.953 129.424 106.732 128.818 106.563C128.213 106.393 127.556 106.308 126.833 106.308C126.278 106.308 125.756 106.393 125.251 106.563C124.747 106.732 124.309 107.004 123.939 107.36C123.552 107.716 123.266 108.158 123.03 108.701C122.812 109.244 122.694 109.871 122.694 110.601C122.694 111.331 122.812 111.976 123.03 112.502C123.249 113.045 123.552 113.486 123.939 113.859C124.309 114.215 124.763 114.487 125.251 114.657C125.756 114.826 126.278 114.911 126.833 114.911C127.27 114.911 127.708 114.86 128.129 114.775C128.566 114.691 128.97 114.555 129.34 114.385V112.162H126.597V110.092H131.527V115.878C131.241 116.065 130.888 116.218 130.501 116.353C130.114 116.489 129.71 116.608 129.29 116.71C128.869 116.812 128.431 116.88 127.994 116.93C127.556 116.981 127.136 116.998 126.749 116.998L126.766 117.015Z" fill="#005745"/>
<path d="M134.573 104.442H142.414V106.495H136.744V109.447H141.875V111.517H136.744V114.792H142.431V116.846H134.556V104.459L134.573 104.442Z" fill="#005745"/>
<path d="M145.14 114.724H147.377L145.409 119.357H143.693L145.123 114.724H145.14Z" fill="#005745"/>
<path d="M33.5171 135.155V122.768H35.7044V135.155H33.5171Z" fill="#005745"/>
<path d="M40.87 124.821V135.138H38.7163V122.751H42.0815L46.5571 133.068V122.751H48.694V135.138H45.3457L40.87 124.821Z" fill="#005745"/>
<path d="M53.8764 124.821V135.138H51.7227V122.751H55.0878L59.5635 133.068V122.751H61.7004V135.138H58.352L53.8764 124.821Z" fill="#005745"/>
<path d="M76.6585 128.927C76.6585 129.827 76.5071 130.675 76.1874 131.456C75.8677 132.236 75.4302 132.915 74.875 133.492C74.3197 134.069 73.6467 134.51 72.8559 134.849C72.0819 135.172 71.2238 135.341 70.2815 135.341C69.3393 135.341 68.4812 135.172 67.7072 134.849C66.9332 134.527 66.2602 134.069 65.6881 133.492C65.116 132.915 64.6785 132.236 64.3757 131.456C64.0728 130.675 63.9045 129.827 63.9045 128.927C63.9045 128.028 64.056 127.196 64.3757 126.399C64.6954 125.618 65.1328 124.94 65.6881 124.363C66.2433 123.786 66.9332 123.345 67.7072 123.005C68.4812 122.683 69.3393 122.513 70.2815 122.513C71.2238 122.513 72.0819 122.683 72.8559 123.005C73.6299 123.345 74.3029 123.786 74.875 124.363C75.4471 124.94 75.8845 125.601 76.1874 126.399C76.5071 127.179 76.6585 128.028 76.6585 128.927ZM74.0505 130.692C74.2524 130.166 74.3534 129.572 74.3534 128.927C74.3534 128.282 74.2524 127.688 74.0505 127.162C73.8486 126.636 73.5626 126.178 73.1924 125.805C72.8222 125.432 72.4016 125.143 71.9136 124.94C71.4257 124.736 70.8704 124.634 70.2983 124.634C69.7263 124.634 69.1879 124.736 68.6999 124.94C68.212 125.143 67.7745 125.432 67.4043 125.805C67.0341 126.178 66.7481 126.636 66.5462 127.162C66.3443 127.688 66.2433 128.282 66.2433 128.927C66.2433 129.572 66.3443 130.166 66.5462 130.692C66.7481 131.218 67.0341 131.676 67.4043 132.049C67.7745 132.423 68.1951 132.711 68.6999 132.915C69.1879 133.118 69.7263 133.22 70.2983 133.22C70.8704 133.22 71.4257 133.118 71.9136 132.915C72.4016 132.711 72.839 132.423 73.1924 132.049C73.5626 131.676 73.8486 131.218 74.0505 130.692Z" fill="#005745"/>
<path d="M77.3484 122.768H79.7545L82.9514 132.898L86.1651 122.768H88.5712L84.3984 135.155H81.538L77.3652 122.768H77.3484Z" fill="#005745"/>
<path d="M99.7266 135.155H97.4383L96.3951 132.236H91.3137L90.2873 135.155H87.999L92.542 122.768H95.2005L99.7434 135.155H99.7266ZM92.0372 130.183H95.6716L93.8544 125.041L92.0372 130.183Z" fill="#005745"/>
<path d="M102.974 124.804H98.8853V122.751H109.267V124.804H105.178V135.138H102.974V124.804Z" fill="#005745"/>
<path d="M111.084 135.155V122.768H113.271V135.155H111.084Z" fill="#005745"/>
<path d="M128.196 128.927C128.196 129.827 128.044 130.675 127.725 131.456C127.405 132.236 126.968 132.915 126.412 133.492C125.857 134.069 125.184 134.51 124.393 134.849C123.619 135.172 122.761 135.341 121.819 135.341C120.877 135.341 120.019 135.172 119.245 134.849C118.471 134.527 117.798 134.069 117.225 133.492C116.653 132.915 116.216 132.236 115.913 131.456C115.61 130.675 115.442 129.827 115.442 128.927C115.442 128.028 115.593 127.196 115.913 126.399C116.233 125.618 116.67 124.94 117.225 124.363C117.781 123.786 118.454 123.345 119.245 123.005C120.019 122.683 120.877 122.513 121.819 122.513C122.761 122.513 123.619 122.683 124.393 123.005C125.167 123.345 125.84 123.786 126.412 124.363C126.984 124.94 127.422 125.601 127.725 126.399C128.044 127.179 128.196 128.028 128.196 128.927ZM125.588 130.692C125.79 130.166 125.908 129.572 125.908 128.927C125.908 128.282 125.807 127.688 125.588 127.162C125.386 126.636 125.1 126.178 124.73 125.805C124.36 125.432 123.939 125.143 123.434 124.94C122.946 124.736 122.391 124.634 121.819 124.634C121.247 124.634 120.708 124.736 120.22 124.94C119.732 125.143 119.295 125.432 118.925 125.805C118.555 126.178 118.285 126.636 118.067 127.162C117.865 127.688 117.747 128.282 117.747 128.927C117.747 129.572 117.848 130.166 118.067 130.692C118.269 131.218 118.555 131.676 118.925 132.049C119.295 132.423 119.716 132.711 120.22 132.915C120.708 133.118 121.247 133.22 121.819 133.22C122.391 133.22 122.946 133.118 123.434 132.915C123.922 132.711 124.36 132.423 124.73 132.049C125.083 131.676 125.369 131.218 125.588 130.692Z" fill="#005745"/>
<path d="M132.554 124.821V135.138H130.4V122.751H133.765L138.241 133.068V122.751H140.378V135.138H137.03L132.554 124.821Z" fill="#005745"/>
<path d="M151.483 135.324C150.793 135.324 150.154 135.239 149.598 135.07C149.043 134.9 148.555 134.646 148.151 134.323C147.748 134.001 147.445 133.611 147.226 133.135C147.007 132.677 146.906 132.151 146.906 131.574C146.906 130.726 147.159 129.996 147.663 129.385C148.168 128.774 148.959 128.282 150.053 127.892C149.666 127.451 149.363 127.01 149.127 126.586C148.892 126.161 148.774 125.703 148.774 125.211C148.774 124.821 148.858 124.447 149.043 124.125C149.211 123.803 149.464 123.514 149.783 123.277C150.103 123.039 150.49 122.852 150.928 122.734C151.382 122.598 151.87 122.547 152.408 122.547C152.997 122.547 153.536 122.615 153.99 122.751C154.444 122.886 154.831 123.09 155.134 123.361C155.454 123.616 155.689 123.938 155.841 124.295C155.992 124.651 156.076 125.058 156.076 125.5C156.076 125.771 156.026 126.059 155.942 126.348C155.841 126.636 155.689 126.942 155.487 127.213C155.286 127.485 155.016 127.773 154.697 128.028C154.377 128.282 153.973 128.503 153.519 128.707L155.572 130.946C155.807 130.556 156.026 130.132 156.177 129.691C156.346 129.25 156.463 128.791 156.547 128.333H158.752C158.634 129.063 158.415 129.776 158.112 130.471C157.809 131.167 157.422 131.829 156.951 132.44L159.458 135.155H156.783L155.572 133.865C154.999 134.323 154.377 134.68 153.704 134.934C153.014 135.189 152.291 135.324 151.5 135.324H151.483ZM151.55 133.339C152.072 133.339 152.543 133.254 152.997 133.101C153.451 132.932 153.855 132.711 154.225 132.423L151.331 129.3C150.507 129.538 149.935 129.843 149.615 130.183C149.296 130.522 149.127 130.946 149.127 131.422C149.127 131.71 149.195 131.982 149.312 132.219C149.43 132.457 149.598 132.66 149.817 132.83C150.036 133 150.288 133.118 150.574 133.203C150.86 133.288 151.18 133.339 151.533 133.339H151.55ZM150.995 125.313C150.995 125.652 151.113 125.975 151.365 126.28C151.601 126.586 151.904 126.925 152.223 127.264C152.863 127.044 153.334 126.789 153.586 126.484C153.855 126.178 153.99 125.856 153.99 125.533C153.99 125.143 153.838 124.838 153.536 124.634C153.233 124.431 152.879 124.329 152.492 124.329C152.105 124.329 151.752 124.414 151.449 124.566C151.146 124.719 150.995 124.974 150.995 125.33V125.313Z" fill="#005745"/>
<path d="M33.5171 141.094H36.7645C37.7908 141.094 38.7331 141.229 39.608 141.484C40.483 141.738 41.2401 142.129 41.8795 142.638C42.5189 143.147 43.0068 143.792 43.377 144.555C43.7304 145.319 43.9154 146.218 43.9154 147.219C43.9154 148.22 43.7472 149.103 43.3938 149.883C43.0405 150.664 42.5526 151.326 41.9468 151.852C41.3243 152.395 40.5839 152.785 39.7258 153.073C38.8677 153.345 37.9086 153.481 36.8823 153.481H33.5507V141.094H33.5171ZM36.714 151.427C37.4543 151.427 38.1274 151.36 38.7331 151.207C39.3388 151.054 39.8436 150.817 40.2642 150.477C40.6849 150.138 41.0214 149.697 41.2401 149.171C41.4589 148.628 41.5767 147.983 41.5767 147.202C41.5767 146.473 41.4589 145.862 41.2233 145.353C40.9878 144.844 40.6681 144.419 40.2474 144.08C39.8268 143.741 39.322 143.503 38.7331 143.35C38.1442 143.198 37.488 143.13 36.7645 143.13H35.6708V151.427H36.6803H36.714Z" fill="#005745"/>
<path d="M46.0859 141.094H53.9267V143.147H48.2564V146.099H53.3883V148.17H48.2564V151.444H53.9436V153.498H46.0691V141.111L46.0859 141.094Z" fill="#005745"/>
<path d="M55.2393 141.094H57.6453L60.8423 151.224L64.056 141.094H66.4621L62.2893 153.481H59.4289L55.2561 141.094H55.2393Z" fill="#005745"/>
<path d="M68.2793 141.094H76.1201V143.147H70.4498V146.099H75.5817V148.17H70.4498V151.444H76.1369V153.498H68.2625V141.111L68.2793 141.094Z" fill="#005745"/>
<path d="M80.848 151.427H86.5015V153.481H78.6606V141.094H80.8648V151.427H80.848Z" fill="#005745"/>
<path d="M99.6426 147.253C99.6426 148.153 99.4912 149.001 99.1715 149.782C98.8518 150.562 98.4144 151.241 97.8591 151.818C97.3039 152.395 96.6308 152.836 95.84 153.175C95.066 153.498 94.2079 153.667 93.2657 153.667C92.3234 153.667 91.4653 153.498 90.6913 153.175C89.9173 152.853 89.2443 152.395 88.6722 151.818C88.1001 151.241 87.6627 150.562 87.3598 149.782C87.0569 149.001 86.8887 148.153 86.8887 147.253C86.8887 146.354 87.0401 145.522 87.3598 144.725C87.6795 143.944 88.117 143.266 88.6722 142.689C89.2275 142.112 89.9173 141.671 90.6913 141.331C91.4653 141.009 92.3234 140.839 93.2657 140.839C94.2079 140.839 95.066 141.009 95.84 141.331C96.614 141.671 97.287 142.112 97.8591 142.689C98.4312 143.266 98.8687 143.927 99.1715 144.725C99.4912 145.505 99.6426 146.354 99.6426 147.253ZM97.0346 149.018C97.2365 148.492 97.3375 147.898 97.3375 147.253C97.3375 146.608 97.2365 146.015 97.0346 145.488C96.8327 144.962 96.5467 144.504 96.1765 144.131C95.8064 143.758 95.3857 143.469 94.8978 143.266C94.4098 143.062 93.8546 142.96 93.2825 142.96C92.7104 142.96 92.172 143.062 91.684 143.266C91.1961 143.469 90.7586 143.758 90.3884 144.131C90.0183 144.504 89.7322 144.962 89.5303 145.488C89.3284 146.015 89.2275 146.608 89.2275 147.253C89.2275 147.898 89.3284 148.492 89.5303 149.018C89.7322 149.544 90.0183 150.002 90.3884 150.375C90.7586 150.749 91.1793 151.037 91.684 151.241C92.172 151.444 92.7104 151.546 93.2825 151.546C93.8546 151.546 94.4098 151.444 94.8978 151.241C95.3857 151.037 95.8232 150.749 96.1765 150.375C96.5467 150.002 96.8327 149.544 97.0346 149.018Z" fill="#005745"/>
<path d="M104.017 148.848V153.481H101.83V141.094H106.44C107.231 141.094 107.904 141.195 108.476 141.416C109.048 141.637 109.502 141.908 109.873 142.264C110.243 142.621 110.512 143.011 110.68 143.469C110.848 143.927 110.949 144.386 110.949 144.878C110.949 145.404 110.865 145.896 110.68 146.371C110.495 146.846 110.226 147.27 109.839 147.643C109.469 148.017 108.998 148.305 108.426 148.526C107.853 148.746 107.197 148.848 106.44 148.848H104.017ZM104.017 143.13V146.795H105.969C106.356 146.795 106.726 146.761 107.046 146.71C107.366 146.659 107.652 146.541 107.887 146.405C108.123 146.269 108.308 146.065 108.426 145.828C108.543 145.59 108.611 145.285 108.611 144.929C108.611 144.318 108.392 143.876 107.954 143.571C107.517 143.283 106.844 143.13 105.935 143.13H103.984H104.017Z" fill="#005745"/>
<path d="M117.781 153.481L114.937 142.909V153.481H112.75V141.094H116.451L119.127 151.529L121.836 141.094H125.504V153.481H123.333V142.909L120.506 153.481H117.798H117.781Z" fill="#005745"/>
<path d="M128.532 141.094H136.373V143.147H130.703V146.099H135.835V148.17H130.703V151.444H136.39V153.498H128.516V141.111L128.532 141.094Z" fill="#005745"/>
<path d="M141.068 143.147V153.464H138.914V141.077H142.279L146.755 151.394V141.077H148.892V153.464H145.543L141.068 143.147Z" fill="#005745"/>
<path d="M154.798 143.13H150.709V141.077H161.091V143.13H157.002V153.464H154.814V143.13H154.798Z" fill="#005745"/>
<path d="M39.1369 161.286C38.5816 161.286 38.06 161.371 37.5552 161.541C37.0505 161.71 36.613 161.982 36.2428 162.338C35.8727 162.695 35.5698 163.136 35.3342 163.679C35.1155 164.222 34.9977 164.85 34.9977 165.579C34.9977 166.309 35.1155 166.954 35.3342 167.48C35.553 168.023 35.8558 168.464 36.2428 168.837C36.6298 169.211 37.0673 169.465 37.5552 169.635C38.06 169.804 38.5816 169.889 39.1369 169.889C39.7426 169.889 40.2979 169.804 40.8195 169.635C41.3411 169.465 41.829 169.244 42.2665 168.956L43.1078 170.907C42.5862 171.23 41.9636 171.484 41.2569 171.671C40.5502 171.858 39.8099 171.959 39.0359 171.959C38.06 171.959 37.1851 171.807 36.3943 171.484C35.6035 171.162 34.9304 170.721 34.392 170.144C33.8367 169.567 33.4161 168.888 33.1132 168.108C32.8104 167.327 32.6589 166.479 32.6589 165.562C32.6589 164.646 32.8104 163.798 33.1132 163.017C33.4161 162.236 33.8367 161.558 34.392 160.981C34.9472 160.404 35.6035 159.963 36.3943 159.64C37.1851 159.318 38.06 159.165 39.0359 159.165C39.8099 159.165 40.5502 159.267 41.2569 159.454C41.9636 159.64 42.5862 159.912 43.1078 160.234L42.2665 162.169C41.829 161.897 41.3411 161.677 40.8195 161.507C40.2979 161.337 39.7426 161.252 39.1369 161.252V161.286Z" fill="#005745"/>
<path d="M45.2278 159.42H53.0686V161.473H47.3983V164.425H52.5302V166.496H47.3983V169.771H53.0854V171.824H45.2109V159.437L45.2278 159.42Z" fill="#005745"/>
<path d="M57.7631 161.473V171.79H55.6094V159.403H58.9745L63.4502 169.72V159.403H65.5871V171.79H62.2387L57.7631 161.473Z" fill="#005745"/>
<path d="M71.493 161.456H67.4043V159.403H77.7858V161.456H73.6971V171.79H71.493V161.456Z" fill="#005745"/>
<path d="M79.603 159.42H87.4438V161.473H81.7735V164.425H86.9054V166.496H81.7735V169.771H87.4607V171.824H79.5862V159.437L79.603 159.42Z" fill="#005745"/>
<path d="M94.3088 166.92H92.1383V171.807H89.9509V159.42H94.5612C95.352 159.42 96.0419 159.521 96.5971 159.725C97.1524 159.929 97.6235 160.217 97.9937 160.574C98.3638 160.93 98.6162 161.32 98.7845 161.778C98.9527 162.219 99.0369 162.695 99.0369 163.17C99.0369 163.526 98.9864 163.882 98.9023 164.222C98.8181 164.561 98.6667 164.901 98.4648 165.206C98.2629 165.511 98.0105 165.783 97.6908 166.037C97.3711 166.275 96.9841 166.479 96.5298 166.631L99.7436 171.824H97.287L94.292 166.937L94.3088 166.92ZM92.1383 161.473V165.019H94.0733C94.4771 165.019 94.8472 165.002 95.1669 164.951C95.4866 164.901 95.7727 164.799 96.0082 164.663C96.2438 164.527 96.412 164.341 96.5467 164.103C96.6813 163.865 96.7317 163.577 96.7317 163.221C96.7317 162.593 96.513 162.152 96.0755 161.88C95.6381 161.609 94.965 161.473 94.0564 161.473H92.1215H92.1383Z" fill="#005745"/>
</g>
<defs>
<clipPath id="clip0_28_2470">
<rect width="228.713" height="237" fill="white"/>
</clipPath>
</defs>
</svg>
