<svg width="30" height="27" viewBox="0 0 30 27" fill="none" xmlns="http://www.w3.org/2000/svg">
<path d="M0.167052 22.8903C3.32702 23.0746 6.08528 22.3249 8.78469 20.3675C6.06353 19.9031 4.17139 18.6621 3.1428 16.0791C3.93215 15.964 4.63707 16.1738 5.45713 15.8527C2.77691 14.6782 1.04212 12.9115 0.970482 9.86153C1.81485 9.93573 2.45707 10.4846 3.47159 10.4129C1.00246 8.00137 0.254046 5.38128 1.80461 2.18676C4.37864 5.14716 7.39277 7.14677 11.0632 8.09348C11.2628 8.14465 11.4624 8.19966 11.6619 8.24572C12.6125 8.46449 13.7293 8.93273 14.305 8.86108C15.2965 8.73699 14.3051 7.60093 14.5571 6.12329C15.3426 1.52534 20.4011 -0.561263 24.1457 2.13175C25.2409 2.91854 26.1095 2.90447 27.1778 2.42984C27.7432 2.17908 28.3126 1.93985 28.9817 1.652C28.8269 2.971 27.8238 3.68615 27.0166 4.6674C27.9364 4.87722 28.6759 4.61111 29.5151 4.34501C29.2247 5.29172 28.5236 5.82776 27.8776 6.34718C27.2136 6.88194 26.9475 7.43973 26.9193 8.31736C26.5061 21.5713 11.447 31.8265 1.14703 23.6643C0.149146 22.8737 1.12144 23.6656 0.165771 22.8916L0.167052 22.8903Z" fill="#037B6A"/>
</svg>
