<svg width="76" height="46" viewBox="0 0 76 46" fill="none" xmlns="http://www.w3.org/2000/svg">
<path d="M12.296 33.288L13.1415 32.754L12.296 33.288ZM25.672 33.288L24.8264 32.754L24.8198 32.7647L25.672 33.288ZM25.672 12.808L24.8198 13.3313L24.8265 13.342L25.672 12.808ZM12.296 12.808L11.4505 12.274L12.296 12.808ZM11.016 44.04L10.5621 44.931L10.5721 44.9361L10.5822 44.941L11.016 44.04ZM5.32 39.304L6.11388 38.6959L5.32 39.304ZM1.864 32.136L2.82773 31.8691L1.864 32.136ZM1.864 13.96L2.82773 14.2269V14.2269L1.864 13.96ZM5.32 6.792L6.11388 7.40008H6.11388L5.32 6.792ZM11.016 2.12L11.4564 3.01781L11.4632 3.01443L11.016 2.12ZM26.888 2.12L26.4341 3.01104L26.4441 3.01613L26.4542 3.021L26.888 2.12ZM32.648 6.792L31.8541 7.40008V7.40008L32.648 6.792ZM36.104 13.96L35.1403 14.2269L35.1422 14.2337L35.1442 14.2406L36.104 13.96ZM36.104 32.136L35.1442 31.8554L35.1422 31.8623L35.1403 31.8691L36.104 32.136ZM32.648 39.304L33.4419 39.9121L32.648 39.304ZM26.888 44.04L27.3284 44.9378L27.3352 44.9344L26.888 44.04ZM11.4505 33.822C13.1749 36.5523 15.7387 37.936 19.016 37.936V35.936C16.4053 35.936 14.4891 34.8877 13.1415 32.754L11.4505 33.822ZM19.016 37.936C22.2942 37.936 24.8421 36.5507 26.5242 33.8113L24.8198 32.7647C23.5153 34.8893 21.6258 35.936 19.016 35.936V37.936ZM26.5175 33.822C28.1945 31.1668 28.976 27.5392 28.976 23.048H26.976C26.976 27.3461 26.2215 30.5452 24.8265 32.754L26.5175 33.822ZM28.976 23.048C28.976 18.5567 28.1945 14.9292 26.5175 12.274L24.8265 13.342C26.2215 15.5508 26.976 18.7499 26.976 23.048H28.976ZM26.5242 12.2847C24.8421 9.54528 22.2942 8.16 19.016 8.16V10.16C21.6258 10.16 23.5153 11.2067 24.8198 13.3313L26.5242 12.2847ZM19.016 8.16C15.7387 8.16 13.1749 9.54372 11.4505 12.274L13.1415 13.342C14.4891 11.2083 16.4053 10.16 19.016 10.16V8.16ZM11.4505 12.274C9.77354 14.9292 8.992 18.5567 8.992 23.048H10.992C10.992 18.7499 11.7465 15.5508 13.1415 13.342L11.4505 12.274ZM8.992 23.048C8.992 27.5392 9.77354 31.1668 11.4505 33.822L13.1415 32.754C11.7465 30.5452 10.992 27.3461 10.992 23.048H8.992ZM19.016 44.704C16.1094 44.704 13.5957 44.1722 11.4498 43.139L10.5822 44.941C13.0443 46.1265 15.864 46.704 19.016 46.704V44.704ZM11.4699 43.149C9.34096 42.0644 7.55866 40.5822 6.11388 38.6959L4.52612 39.9121C6.15334 42.0365 8.16837 43.7116 10.5621 44.931L11.4699 43.149ZM6.11388 38.6959C4.66594 36.8056 3.56624 34.536 2.82773 31.8691L0.90027 32.4029C1.69776 35.2827 2.90206 37.7918 4.52612 39.9121L6.11388 38.6959ZM2.82773 31.8691C2.08692 29.194 1.712 26.2556 1.712 23.048H-0.288C-0.288 26.411 0.10508 29.5314 0.90027 32.4029L2.82773 31.8691ZM1.712 23.048C1.712 19.8404 2.08692 16.902 2.82773 14.2269L0.90027 13.6931C0.10508 16.5646 -0.288 19.685 -0.288 23.048H1.712ZM2.82773 14.2269C3.56624 11.56 4.66594 9.29044 6.11388 7.40008L4.52612 6.18392C2.90206 8.30423 1.69776 10.8133 0.90027 13.6931L2.82773 14.2269ZM6.11388 7.40008C7.55628 5.51694 9.33411 4.05893 11.4564 3.01779L10.5756 1.22221C8.17523 2.39974 6.15572 4.05639 4.52612 6.18392L6.11388 7.40008ZM11.4632 3.01443C13.6059 1.94308 16.1147 1.392 19.016 1.392V-0.608002C15.8586 -0.608002 13.0341 -0.00708008 10.5688 1.22557L11.4632 3.01443ZM19.016 1.392C21.8727 1.392 24.3362 1.9423 26.4341 3.01104L27.3419 1.22896C24.9171 -0.00630569 22.1326 -0.608002 19.016 -0.608002V1.392ZM26.4542 3.021C28.6187 4.06315 30.4147 5.52086 31.8541 7.40008L33.4419 6.18392C31.8093 4.05247 29.7653 2.39551 27.3218 1.219L26.4542 3.021ZM31.8541 7.40008C33.3021 9.29044 34.4018 11.56 35.1403 14.2269L37.0677 13.6931C36.2702 10.8133 35.0659 8.30423 33.4419 6.18392L31.8541 7.40008ZM35.1442 14.2406C35.9248 16.9113 36.32 19.8449 36.32 23.048H38.32C38.32 19.6805 37.9045 16.5554 37.0638 13.6794L35.1442 14.2406ZM36.32 23.048C36.32 26.2511 35.9248 29.1847 35.1442 31.8554L37.0638 32.4166C37.9045 29.5406 38.32 26.4155 38.32 23.048H36.32ZM35.1403 31.8691C34.4018 34.536 33.3021 36.8056 31.8541 38.6959L33.4419 39.9121C35.0659 37.7918 36.2702 35.2827 37.0677 32.4029L35.1403 31.8691ZM31.8541 38.6959C30.4123 40.5783 28.6118 42.0601 26.4408 43.1456L27.3352 44.9344C29.7722 43.7159 31.8117 42.0404 33.4419 39.9121L31.8541 38.6959ZM26.4476 43.1422C24.3465 44.1729 21.8781 44.704 19.016 44.704V46.704C22.1272 46.704 24.9068 46.1258 27.3284 44.9378L26.4476 43.1422ZM53.9905 45.384L53.8407 46.3727L53.9905 45.384ZM49.8305 44.488L49.5322 45.4425L49.5459 45.4468L49.5598 45.4506L49.8305 44.488ZM45.9265 43.016L45.5174 43.9285L45.9265 43.016ZM42.6625 41.096L41.7666 40.6517L41.4024 41.386L42.0511 41.8873L42.6625 41.096ZM46.6305 33.096L47.2552 32.3151L46.2861 31.5399L45.7346 32.6517L46.6305 33.096ZM51.4945 35.912L51.1309 36.8436L51.1385 36.8465L51.4945 35.912ZM60.6465 36.616L60.4644 35.6327L60.6465 36.616ZM63.6545 35.656L64.1017 36.5504L64.1102 36.5462L64.1185 36.5418L63.6545 35.656ZM65.7665 33.928L64.9904 33.2974L64.9781 33.3125L64.9665 33.328L65.7665 33.928ZM65.8305 29.128L65.0496 29.7527L65.0602 29.7659L65.0712 29.7788L65.8305 29.128ZM63.7185 27.656L64.0745 26.7215L63.7185 27.656ZM60.4545 26.952L60.3516 27.9467L60.355 27.947L60.4545 26.952ZM54.8865 26.76H53.8865V27.76H54.8865V26.76ZM54.8865 18.312V17.312H53.8865V18.312H54.8865ZM60.3265 18.184L60.4004 19.1813L60.4167 19.1801L60.433 19.1783L60.3265 18.184ZM63.2705 17.544L62.9081 16.612L63.2705 17.544ZM64.9345 16.328L64.1123 15.7588L64.1073 15.766L64.1025 15.7733L64.9345 16.328ZM63.1425 10.504L62.6386 11.3678L62.6527 11.376L62.667 11.3837L63.1425 10.504ZM51.7505 10.184L51.3869 9.25239L51.3791 9.25552L51.7505 10.184ZM46.9505 12.936L46.0561 13.3832L46.5994 14.4698L47.5613 13.7278L46.9505 12.936ZM42.9825 5L42.3911 4.1936L41.7107 4.69255L42.0881 5.44721L42.9825 5ZM49.9585 1.672L50.2431 2.63069L50.2526 2.62778L49.9585 1.672ZM64.8705 1.224L64.6039 2.18782L64.6091 2.18923L64.8705 1.224ZM70.1185 3.656L69.5261 4.46165L69.5394 4.47141L69.553 4.48073L70.1185 3.656ZM73.5745 7.496L72.6901 7.96279L72.6956 7.97309L73.5745 7.496ZM74.3425 15.816L73.3825 15.536L73.3771 15.5546L73.3724 15.5735L74.3425 15.816ZM73.1905 18.632L72.333 18.1175L72.329 18.1242L72.3251 18.131L73.1905 18.632ZM71.4625 20.808L70.7786 20.0785L70.7668 20.0895L70.7554 20.1009L71.4625 20.808ZM69.3505 22.216L68.9881 21.284L66.5567 22.2295L68.9971 23.1515L69.3505 22.216ZM74.0865 25.864L74.8961 25.277L74.0865 25.864ZM74.5985 38.216L73.7233 37.7323L73.7183 37.7412L73.7136 37.7503L74.5985 38.216ZM70.9505 42.312L70.3756 41.4938L70.9505 42.312ZM65.3185 44.872L65.5655 45.841L65.5744 45.8388L65.5832 45.8363L65.3185 44.872ZM58.1505 44.704C56.8374 44.704 55.5008 44.6014 54.1403 44.3953L53.8407 46.3727C55.2962 46.5932 56.7329 46.704 58.1505 46.704V44.704ZM54.1403 44.3953C52.773 44.1881 51.4267 43.8981 50.1012 43.5253L49.5598 45.4506C50.965 45.8459 52.392 46.1532 53.8407 46.3727L54.1403 44.3953ZM50.1288 43.5335C48.7991 43.118 47.5349 42.6411 46.3356 42.1035L45.5174 43.9285C46.7928 44.5002 48.1312 45.0047 49.5322 45.4425L50.1288 43.5335ZM46.3356 42.1035C45.1602 41.5766 44.142 40.9755 43.2739 40.3047L42.0511 41.8873C43.0603 42.6672 44.2181 43.3461 45.5174 43.9285L46.3356 42.1035ZM43.5584 41.5403L47.5264 33.5403L45.7346 32.6517L41.7666 40.6517L43.5584 41.5403ZM46.0058 33.8769C47.5766 35.1335 49.2857 36.1235 51.131 36.8436L51.858 34.9804C50.2046 34.3352 48.6711 33.4478 47.2552 32.3151L46.0058 33.8769ZM51.1385 36.8465C53.0443 37.5725 55.021 37.936 57.0625 37.936V35.936C55.264 35.936 53.5287 35.6168 51.8505 34.9775L51.1385 36.8465ZM57.0625 37.936C58.3575 37.936 59.6133 37.8243 60.8286 37.5993L60.4644 35.6327C59.3757 35.8343 58.2422 35.936 57.0625 35.936V37.936ZM60.8286 37.5993C62.0526 37.3726 63.1481 37.0272 64.1017 36.5504L63.2073 34.7616C62.4542 35.1381 61.5444 35.4327 60.4644 35.6327L60.8286 37.5993ZM64.1185 36.5418C65.1222 36.0161 65.9501 35.3498 66.5665 34.528L64.9665 33.328C64.5589 33.8715 63.9788 34.3572 63.1905 34.7702L64.1185 36.5418ZM66.5426 34.5586C67.2522 33.6852 67.5985 32.6478 67.5985 31.496H65.5985C65.5985 32.2216 65.3901 32.8055 64.9904 33.2974L66.5426 34.5586ZM67.5985 31.496C67.5985 30.337 67.2927 29.2973 66.5898 28.4772L65.0712 29.7788C65.3923 30.1534 65.5985 30.6924 65.5985 31.496H67.5985ZM66.6114 28.5033C65.9702 27.7019 65.1086 27.1155 64.0745 26.7215L63.3625 28.5905C64.1204 28.8792 64.6668 29.2741 65.0496 29.7527L66.6114 28.5033ZM64.0745 26.7215C63.0734 26.3402 61.894 26.091 60.554 25.957L60.355 27.947C61.5751 28.069 62.5715 28.2892 63.3625 28.5905L64.0745 26.7215ZM60.5574 25.9573C59.2799 25.8252 57.8796 25.76 56.3585 25.76V27.76C57.824 27.76 59.1544 27.8228 60.3516 27.9467L60.5574 25.9573ZM56.3585 25.76H54.8865V27.76H56.3585V25.76ZM55.8865 26.76V18.312H53.8865V26.76H55.8865ZM54.8865 19.312H56.2305V17.312H54.8865V19.312ZM56.2305 19.312C57.8256 19.312 59.2168 19.2689 60.4004 19.1813L60.2526 17.1867C59.1322 17.2697 57.7928 17.312 56.2305 17.312V19.312ZM60.433 19.1783C61.6792 19.0448 62.7546 18.8176 63.6329 18.476L62.9081 16.612C62.2504 16.8678 61.3631 17.0672 60.22 17.1897L60.433 19.1783ZM63.6329 18.476C64.5286 18.1277 65.2783 17.6151 65.7665 16.8827L64.1025 15.7733C63.9081 16.0649 63.5484 16.363 62.9081 16.612L63.6329 18.476ZM65.7567 16.8972C66.2838 16.1358 66.5105 15.2188 66.5105 14.216H64.5105C64.5105 14.9199 64.3532 15.4108 64.1123 15.7588L65.7567 16.8972ZM66.5105 14.216C66.5105 13.2354 66.2693 12.3301 65.7616 11.5342C65.2572 10.7435 64.5239 10.114 63.618 9.62429L62.667 11.3837C63.3398 11.7474 63.7905 12.1632 64.0754 12.6098C64.357 13.0512 64.5105 13.5752 64.5105 14.216H66.5105ZM63.6464 9.64022C61.9136 8.62946 59.7622 8.16 57.2545 8.16V10.16C59.5255 10.16 61.2994 10.5865 62.6386 11.3678L63.6464 9.64022ZM57.2545 8.16C55.213 8.16 53.2548 8.52351 51.387 9.25242L52.114 11.1156C53.7449 10.4792 55.456 10.16 57.2545 10.16V8.16ZM51.3791 9.25552C49.5845 9.97337 47.9042 10.9373 46.3397 12.1442L47.5613 13.7278C48.9834 12.6307 50.5032 11.76 52.1219 11.1125L51.3791 9.25552ZM47.8449 12.4888L43.8769 4.55279L42.0881 5.44721L46.0561 13.3832L47.8449 12.4888ZM43.5739 5.8064C45.3849 4.47829 47.6016 3.41483 50.2431 2.63064L49.6739 0.71335C46.854 1.5505 44.4201 2.70571 42.3911 4.1936L43.5739 5.8064ZM50.2526 2.62778C52.9366 1.80192 55.5896 1.392 58.2145 1.392V-0.608002C55.3781 -0.608002 52.5271 -0.164593 49.6644 0.716217L50.2526 2.62778ZM58.2145 1.392C60.5712 1.392 62.6986 1.6608 64.6039 2.18781L65.1371 0.260187C63.0318 -0.322138 60.7218 -0.608002 58.2145 -0.608002V1.392ZM64.6091 2.18923C66.5587 2.71725 68.191 3.47995 69.5261 4.46165L70.7109 2.85035C69.1447 1.69871 67.2783 0.840084 65.1319 0.258772L64.6091 2.18923ZM69.553 4.48073C70.9185 5.41706 71.9584 6.57635 72.6901 7.96276L74.4589 7.02924C73.5693 5.34365 72.3052 3.94294 70.684 2.83127L69.553 4.48073ZM72.6956 7.97309C73.417 9.30182 73.7905 10.8407 73.7905 12.616H75.7905C75.7905 10.5513 75.3534 8.67685 74.4534 7.01891L72.6956 7.97309ZM73.7905 12.616C73.7905 13.6344 73.6536 14.6066 73.3825 15.536L75.3025 16.096C75.6287 14.9774 75.7905 13.8163 75.7905 12.616H73.7905ZM73.3724 15.5735C73.1388 16.5076 72.7913 17.3538 72.333 18.1175L74.048 19.1465C74.6137 18.2036 75.0342 17.1724 75.3126 16.0585L73.3724 15.5735ZM72.3251 18.131C71.9047 18.8571 71.3898 19.5054 70.7786 20.0785L72.1464 21.5375C72.9005 20.8306 73.5377 20.0282 74.0559 19.133L72.3251 18.131ZM70.7554 20.1009C70.2037 20.6526 69.6146 21.0403 68.9881 21.284L69.713 23.148C70.6224 22.7943 71.4413 22.2434 72.1696 21.5151L70.7554 20.1009ZM68.9971 23.1515C70.7291 23.8058 72.151 24.898 73.2769 26.451L74.8961 25.277C73.5473 23.4166 71.8119 22.0769 69.7039 21.2805L68.9971 23.1515ZM73.2769 26.451C74.3549 27.9379 74.9425 29.9728 74.9425 32.648H76.9425C76.9425 29.6912 76.2928 27.2035 74.8961 25.277L73.2769 26.451ZM74.9425 32.648C74.9425 34.5916 74.5274 36.2773 73.7233 37.7323L75.4737 38.6997C76.4616 36.9121 76.9425 34.8857 76.9425 32.648H74.9425ZM73.7136 37.7503C72.9381 39.2237 71.8315 40.4707 70.3756 41.4938L71.5254 43.1302C73.2268 41.9346 74.5522 40.451 75.4834 38.6817L73.7136 37.7503ZM70.3756 41.4938C68.9056 42.5268 67.1372 43.3358 65.0538 43.9077L65.5832 45.8363C67.8518 45.2136 69.8381 44.3159 71.5254 43.1302L70.3756 41.4938ZM65.0715 43.903C62.9878 44.4341 60.6827 44.704 58.1505 44.704V46.704C60.8236 46.704 63.2972 46.4192 65.5655 45.841L65.0715 43.903Z" fill="#037B6A"/>
</svg>
