<svg width="81" height="46" viewBox="0 0 81 46" fill="none" xmlns="http://www.w3.org/2000/svg">
<path d="M12.296 33.288L13.1415 32.754L13.1415 32.754L12.296 33.288ZM25.672 33.288L24.8264 32.754L24.8198 32.7647L25.672 33.288ZM25.672 12.808L24.8198 13.3313L24.8265 13.342L25.672 12.808ZM12.296 12.808L11.4505 12.274L11.4505 12.274L12.296 12.808ZM11.016 44.04L10.5621 44.931L10.5721 44.9361L10.5822 44.941L11.016 44.04ZM5.32 39.304L6.11388 38.6959L6.11388 38.6959L5.32 39.304ZM1.864 32.136L2.82773 31.8691L2.82773 31.8691L1.864 32.136ZM1.864 13.96L2.82773 14.2269L2.82773 14.2269L1.864 13.96ZM5.32 6.792L6.11388 7.40008L6.11388 7.40008L5.32 6.792ZM11.016 2.12L11.4564 3.01781L11.4632 3.01443L11.016 2.12ZM26.888 2.12L26.4341 3.01104L26.4441 3.01613L26.4542 3.021L26.888 2.12ZM32.648 6.792L31.8541 7.40008L31.8541 7.40008L32.648 6.792ZM36.104 13.96L35.1403 14.2269L35.1422 14.2337L35.1442 14.2406L36.104 13.96ZM36.104 32.136L35.1442 31.8554L35.1422 31.8623L35.1403 31.8691L36.104 32.136ZM32.648 39.304L33.4419 39.9121L33.4419 39.9121L32.648 39.304ZM26.888 44.04L27.3284 44.9378L27.3352 44.9344L26.888 44.04ZM11.4505 33.822C13.1749 36.5523 15.7387 37.936 19.016 37.936V35.936C16.4053 35.936 14.4891 34.8877 13.1415 32.754L11.4505 33.822ZM19.016 37.936C22.2942 37.936 24.8421 36.5507 26.5242 33.8113L24.8198 32.7647C23.5153 34.8893 21.6258 35.936 19.016 35.936V37.936ZM26.5175 33.822C28.1945 31.1668 28.976 27.5393 28.976 23.048H26.976C26.976 27.3461 26.2215 30.5452 24.8265 32.754L26.5175 33.822ZM28.976 23.048C28.976 18.5567 28.1945 14.9292 26.5175 12.274L24.8265 13.342C26.2215 15.5508 26.976 18.7499 26.976 23.048H28.976ZM26.5242 12.2847C24.8421 9.54528 22.2942 8.16 19.016 8.16V10.16C21.6258 10.16 23.5153 11.2067 24.8198 13.3313L26.5242 12.2847ZM19.016 8.16C15.7387 8.16 13.1749 9.54372 11.4505 12.274L13.1415 13.342C14.4891 11.2083 16.4053 10.16 19.016 10.16V8.16ZM11.4505 12.274C9.77354 14.9292 8.992 18.5567 8.992 23.048H10.992C10.992 18.7499 11.7465 15.5508 13.1415 13.342L11.4505 12.274ZM8.992 23.048C8.992 27.5392 9.77354 31.1668 11.4505 33.822L13.1415 32.754C11.7465 30.5452 10.992 27.3461 10.992 23.048H8.992ZM19.016 44.704C16.1094 44.704 13.5957 44.1722 11.4498 43.139L10.5822 44.941C13.0443 46.1265 15.864 46.704 19.016 46.704V44.704ZM11.4699 43.149C9.34096 42.0644 7.55866 40.5822 6.11388 38.6959L4.52612 39.9121C6.15334 42.0365 8.16837 43.7116 10.5621 44.931L11.4699 43.149ZM6.11388 38.6959C4.66594 36.8056 3.56624 34.536 2.82773 31.8691L0.90027 32.4029C1.69776 35.2827 2.90206 37.7918 4.52612 39.9121L6.11388 38.6959ZM2.82773 31.8691C2.08692 29.194 1.712 26.2556 1.712 23.048H-0.288C-0.288 26.411 0.10508 29.5314 0.90027 32.4029L2.82773 31.8691ZM1.712 23.048C1.712 19.8404 2.08692 16.902 2.82773 14.2269L0.90027 13.6931C0.10508 16.5646 -0.288 19.685 -0.288 23.048H1.712ZM2.82773 14.2269C3.56624 11.56 4.66594 9.29044 6.11388 7.40008L4.52612 6.18392C2.90206 8.30423 1.69776 10.8133 0.90027 13.6931L2.82773 14.2269ZM6.11388 7.40008C7.55628 5.51693 9.33411 4.05892 11.4564 3.01779L10.5756 1.22221C8.17523 2.39974 6.15572 4.05639 4.52612 6.18392L6.11388 7.40008ZM11.4632 3.01443C13.6059 1.94308 16.1147 1.392 19.016 1.392V-0.608002C15.8586 -0.608002 13.0341 -0.00707989 10.5688 1.22557L11.4632 3.01443ZM19.016 1.392C21.8727 1.392 24.3362 1.9423 26.4341 3.01104L27.3419 1.22896C24.9171 -0.00630658 22.1326 -0.608002 19.016 -0.608002V1.392ZM26.4542 3.021C28.6187 4.06316 30.4147 5.52086 31.8541 7.40008L33.4419 6.18392C31.8093 4.05247 29.7653 2.39551 27.3218 1.219L26.4542 3.021ZM31.8541 7.40008C33.3021 9.29044 34.4018 11.56 35.1403 14.2269L37.0677 13.6931C36.2702 10.8133 35.0659 8.30423 33.4419 6.18392L31.8541 7.40008ZM35.1442 14.2406C35.9248 16.9113 36.32 19.8449 36.32 23.048H38.32C38.32 19.6805 37.9045 16.5554 37.0638 13.6794L35.1442 14.2406ZM36.32 23.048C36.32 26.2511 35.9248 29.1847 35.1442 31.8554L37.0638 32.4166C37.9045 29.5406 38.32 26.4155 38.32 23.048H36.32ZM35.1403 31.8691C34.4018 34.536 33.3021 36.8056 31.8541 38.6959L33.4419 39.9121C35.0659 37.7918 36.2702 35.2827 37.0677 32.4029L35.1403 31.8691ZM31.8541 38.6959C30.4123 40.5783 28.6118 42.0601 26.4408 43.1456L27.3352 44.9344C29.7722 43.7159 31.8117 42.0404 33.4419 39.9121L31.8541 38.6959ZM26.4476 43.1422C24.3465 44.1729 21.8781 44.704 19.016 44.704V46.704C22.1272 46.704 24.9068 46.1258 27.3284 44.9378L26.4476 43.1422ZM65.3825 35.08H66.3825V34.08H65.3825V35.08ZM43.4305 35.08H42.4305V36.08H43.4305V35.08ZM43.4305 26.824L42.6418 26.2092L42.4305 26.4803V26.824H43.4305ZM62.8865 1.864V0.863998H62.3981L62.0978 1.24922L62.8865 1.864ZM74.3425 1.864H75.3425V0.863998H74.3425V1.864ZM74.3425 26.76H73.3425V27.76H74.3425V26.76ZM80.8705 26.76H81.8705V25.76H80.8705V26.76ZM80.8705 35.08V36.08H81.8705V35.08H80.8705ZM74.3425 35.08V34.08H73.3425V35.08H74.3425ZM74.3425 45V46H75.3425V45H74.3425ZM65.3825 45H64.3825V46H65.3825V45ZM65.3825 26.76V27.76H66.3825V26.76H65.3825ZM65.3825 10.12H66.3825V7.17988L64.5899 9.51029L65.3825 10.12ZM52.5825 26.76L51.7899 26.1503L50.5516 27.76H52.5825V26.76ZM65.3825 34.08H43.4305V36.08H65.3825V34.08ZM44.4305 35.08V26.824H42.4305V35.08H44.4305ZM44.2192 27.4388L63.6752 2.47878L62.0978 1.24922L42.6418 26.2092L44.2192 27.4388ZM62.8865 2.864H74.3425V0.863998H62.8865V2.864ZM73.3425 1.864V26.76H75.3425V1.864H73.3425ZM74.3425 27.76H80.8705V25.76H74.3425V27.76ZM79.8705 26.76V35.08H81.8705V26.76H79.8705ZM80.8705 34.08H74.3425V36.08H80.8705V34.08ZM73.3425 35.08V45H75.3425V35.08H73.3425ZM74.3425 44H65.3825V46H74.3425V44ZM66.3825 45V35.08H64.3825V45H66.3825ZM66.3825 26.76V10.12H64.3825V26.76H66.3825ZM64.5899 9.51029L51.7899 26.1503L53.3751 27.3697L66.1751 10.7297L64.5899 9.51029ZM52.5825 27.76H65.3825V25.76H52.5825V27.76Z" fill="white"/>
</svg>
