<svg width="78" height="46" viewBox="0 0 78 46" fill="none" xmlns="http://www.w3.org/2000/svg">
<path d="M12.296 33.288L13.1415 32.754L12.296 33.288ZM25.672 33.288L24.8264 32.754L24.8198 32.7647L25.672 33.288ZM25.672 12.808L24.8198 13.3313L24.8265 13.342L25.672 12.808ZM12.296 12.808L11.4505 12.274L12.296 12.808ZM11.016 44.04L10.5621 44.931L10.5721 44.9361L10.5822 44.941L11.016 44.04ZM5.32 39.304L6.11388 38.6959L5.32 39.304ZM1.864 32.136L2.82773 31.8691L1.864 32.136ZM1.864 13.96L2.82773 14.2269V14.2269L1.864 13.96ZM5.32 6.792L6.11388 7.40008H6.11388L5.32 6.792ZM11.016 2.12L11.4564 3.01781L11.4632 3.01443L11.016 2.12ZM26.888 2.12L26.4341 3.01104L26.4441 3.01613L26.4542 3.021L26.888 2.12ZM32.648 6.792L31.8541 7.40008V7.40008L32.648 6.792ZM36.104 13.96L35.1403 14.2269L35.1422 14.2337L35.1442 14.2406L36.104 13.96ZM36.104 32.136L35.1442 31.8554L35.1422 31.8623L35.1403 31.8691L36.104 32.136ZM32.648 39.304L33.4419 39.9121L32.648 39.304ZM26.888 44.04L27.3284 44.9378L27.3352 44.9344L26.888 44.04ZM11.4505 33.822C13.1749 36.5523 15.7387 37.936 19.016 37.936V35.936C16.4053 35.936 14.4891 34.8877 13.1415 32.754L11.4505 33.822ZM19.016 37.936C22.2942 37.936 24.8421 36.5507 26.5242 33.8113L24.8198 32.7647C23.5153 34.8893 21.6258 35.936 19.016 35.936V37.936ZM26.5175 33.822C28.1945 31.1668 28.976 27.5392 28.976 23.048H26.976C26.976 27.3461 26.2215 30.5452 24.8265 32.754L26.5175 33.822ZM28.976 23.048C28.976 18.5567 28.1945 14.9292 26.5175 12.274L24.8265 13.342C26.2215 15.5508 26.976 18.7499 26.976 23.048H28.976ZM26.5242 12.2847C24.8421 9.54528 22.2942 8.16 19.016 8.16V10.16C21.6258 10.16 23.5153 11.2067 24.8198 13.3313L26.5242 12.2847ZM19.016 8.16C15.7387 8.16 13.1749 9.54372 11.4505 12.274L13.1415 13.342C14.4891 11.2083 16.4053 10.16 19.016 10.16V8.16ZM11.4505 12.274C9.77354 14.9292 8.992 18.5567 8.992 23.048H10.992C10.992 18.7499 11.7465 15.5508 13.1415 13.342L11.4505 12.274ZM8.992 23.048C8.992 27.5392 9.77354 31.1668 11.4505 33.822L13.1415 32.754C11.7465 30.5452 10.992 27.3461 10.992 23.048H8.992ZM19.016 44.704C16.1094 44.704 13.5957 44.1722 11.4498 43.139L10.5822 44.941C13.0443 46.1265 15.864 46.704 19.016 46.704V44.704ZM11.4699 43.149C9.34096 42.0644 7.55866 40.5822 6.11388 38.6959L4.52612 39.9121C6.15334 42.0365 8.16837 43.7116 10.5621 44.931L11.4699 43.149ZM6.11388 38.6959C4.66594 36.8056 3.56624 34.536 2.82773 31.8691L0.90027 32.4029C1.69776 35.2827 2.90206 37.7918 4.52612 39.9121L6.11388 38.6959ZM2.82773 31.8691C2.08692 29.194 1.712 26.2556 1.712 23.048H-0.288C-0.288 26.411 0.10508 29.5314 0.90027 32.4029L2.82773 31.8691ZM1.712 23.048C1.712 19.8404 2.08692 16.902 2.82773 14.2269L0.90027 13.6931C0.10508 16.5646 -0.288 19.685 -0.288 23.048H1.712ZM2.82773 14.2269C3.56624 11.56 4.66594 9.29044 6.11388 7.40008L4.52612 6.18392C2.90206 8.30423 1.69776 10.8133 0.90027 13.6931L2.82773 14.2269ZM6.11388 7.40008C7.55628 5.51694 9.33411 4.05893 11.4564 3.01779L10.5756 1.22221C8.17523 2.39974 6.15572 4.05639 4.52612 6.18392L6.11388 7.40008ZM11.4632 3.01443C13.6059 1.94308 16.1147 1.392 19.016 1.392V-0.608002C15.8586 -0.608002 13.0341 -0.00708008 10.5688 1.22557L11.4632 3.01443ZM19.016 1.392C21.8727 1.392 24.3362 1.9423 26.4341 3.01104L27.3419 1.22896C24.9171 -0.00630569 22.1326 -0.608002 19.016 -0.608002V1.392ZM26.4542 3.021C28.6187 4.06315 30.4147 5.52086 31.8541 7.40008L33.4419 6.18392C31.8093 4.05247 29.7653 2.39551 27.3218 1.219L26.4542 3.021ZM31.8541 7.40008C33.3021 9.29044 34.4018 11.56 35.1403 14.2269L37.0677 13.6931C36.2702 10.8133 35.0659 8.30423 33.4419 6.18392L31.8541 7.40008ZM35.1442 14.2406C35.9248 16.9113 36.32 19.8449 36.32 23.048H38.32C38.32 19.6805 37.9045 16.5554 37.0638 13.6794L35.1442 14.2406ZM36.32 23.048C36.32 26.2511 35.9248 29.1847 35.1442 31.8554L37.0638 32.4166C37.9045 29.5406 38.32 26.4155 38.32 23.048H36.32ZM35.1403 31.8691C34.4018 34.536 33.3021 36.8056 31.8541 38.6959L33.4419 39.9121C35.0659 37.7918 36.2702 35.2827 37.0677 32.4029L35.1403 31.8691ZM31.8541 38.6959C30.4123 40.5783 28.6118 42.0601 26.4408 43.1456L27.3352 44.9344C29.7722 43.7159 31.8117 42.0404 33.4419 39.9121L31.8541 38.6959ZM26.4476 43.1422C24.3465 44.1729 21.8781 44.704 19.016 44.704V46.704C22.1272 46.704 24.9068 46.1258 27.3284 44.9378L26.4476 43.1422ZM67.4305 44.552L67.7882 45.4859L67.7986 45.4818L67.4305 44.552ZM54.6945 44.552L55.0456 43.6157L54.6945 44.552ZM49.2545 41.288L48.5787 42.0252L48.5889 42.0343L49.2545 41.288ZM45.5425 36.232L44.6328 36.6473L44.6365 36.6554L44.6404 36.6635L45.5425 36.232ZM50.2785 14.088L51.0717 14.697L51.073 14.6953L50.2785 14.088ZM59.6225 1.864V0.863998H59.1282L58.828 1.2567L59.6225 1.864ZM71.1425 1.864L71.9131 2.50131L73.2672 0.863998H71.1425V1.864ZM61.3505 13.704L60.5799 13.0667L58.9316 15.0597L61.4919 14.6939L61.3505 13.704ZM62.1825 13.64V14.64H62.2536L62.3239 14.6299L62.1825 13.64ZM68.3905 14.728L67.9885 15.6436L68.0018 15.6495L68.0153 15.6549L68.3905 14.728ZM73.1905 17.928L73.8976 17.2209L73.1905 17.928ZM76.5825 23.048L75.6623 23.4396L75.6658 23.4478L75.6695 23.4559L76.5825 23.048ZM76.5185 36.232L75.6163 35.8005L75.6123 35.8091L76.5185 36.232ZM72.8065 41.224L72.1408 40.4776L72.1308 40.4868L72.8065 41.224ZM66.5985 34.76L65.8703 34.0746L65.8649 34.0804L65.8595 34.0862L66.5985 34.76ZM66.5985 24.2L65.8595 24.8738L65.8649 24.8796L65.8703 24.8854L66.5985 24.2ZM55.4625 24.2L54.7343 23.5146L54.7289 23.5204L54.7235 23.5262L55.4625 24.2ZM55.4625 34.76L54.7235 35.4338L54.7289 35.4396L54.7343 35.4454L55.4625 34.76ZM67.0729 43.6181C65.1855 44.341 63.195 44.704 61.0945 44.704V46.704C63.4313 46.704 65.6648 46.299 67.7881 45.4859L67.0729 43.6181ZM61.0945 44.704C58.994 44.704 56.9797 44.341 55.0456 43.6157L54.3434 45.4883C56.5053 46.299 58.7577 46.704 61.0945 46.704V44.704ZM55.0456 43.6157C53.1093 42.8895 51.4035 41.8647 49.9201 40.5417L48.5889 42.0343C50.2629 43.5273 52.1837 44.6785 54.3434 45.4883L55.0456 43.6157ZM49.9302 40.5508C48.4927 39.2331 47.3306 37.6529 46.4446 35.8005L44.6404 36.6635C45.6318 38.7364 46.9443 40.5269 48.5788 42.0252L49.9302 40.5508ZM46.4522 35.8167C45.6208 33.9955 45.1985 31.9841 45.1985 29.768H43.1985C43.1985 32.2452 43.6722 34.5432 44.6328 36.6473L46.4522 35.8167ZM45.1985 29.768C45.1985 26.7735 45.7313 24.1213 46.775 21.7931L44.95 20.9749C43.775 23.596 43.1985 26.5332 43.1985 29.768H45.1985ZM46.775 21.7931C47.8492 19.3968 49.2793 17.0313 51.0717 14.697L49.4854 13.479C47.6084 15.9234 46.0945 18.4219 44.95 20.9749L46.775 21.7931ZM51.073 14.6953L60.417 2.47129L58.828 1.2567L49.484 13.4807L51.073 14.6953ZM59.6225 2.864H71.1425V0.863998H59.6225V2.864ZM70.3719 1.22669L60.5799 13.0667L62.1211 14.3413L71.9131 2.50131L70.3719 1.22669ZM61.4919 14.6939C61.7518 14.6568 61.9813 14.64 62.1825 14.64V12.64C61.8717 12.64 61.5466 12.6658 61.2091 12.714L61.4919 14.6939ZM62.3239 14.6299C62.5762 14.5939 62.8276 14.576 63.0785 14.576V12.576C62.732 12.576 62.3861 12.6008 62.0411 12.6501L62.3239 14.6299ZM63.0785 14.576C64.7231 14.576 66.3574 14.9275 67.9885 15.6436L68.7925 13.8124C66.9249 12.9925 65.0179 12.576 63.0785 12.576V14.576ZM68.0153 15.6549C69.6793 16.3285 71.1673 17.319 72.4834 18.6351L73.8976 17.2209C72.3977 15.721 70.6857 14.5782 68.7657 13.8011L68.0153 15.6549ZM72.4834 18.6351C73.7926 19.9443 74.8544 21.5409 75.6623 23.4396L77.5027 22.6564C76.6039 20.5444 75.4044 18.7277 73.8976 17.2209L72.4834 18.6351ZM75.6695 23.4559C76.5013 25.3176 76.9265 27.4161 76.9265 29.768H78.9265C78.9265 27.1706 78.4557 24.7891 77.4955 22.6401L75.6695 23.4559ZM76.9265 29.768C76.9265 31.9773 76.4856 33.983 75.6164 35.8005L77.4206 36.6635C78.4287 34.5557 78.9265 32.252 78.9265 29.768H76.9265ZM75.6123 35.8091C74.7736 37.6063 73.6181 39.1602 72.1409 40.4777L73.4721 41.9703C75.1523 40.4718 76.4714 38.6977 77.4247 36.6549L75.6123 35.8091ZM72.1308 40.4868C70.6898 41.8078 69.0035 42.8538 67.0625 43.6222L67.7986 45.4818C69.9535 44.6288 71.8512 43.4562 73.4822 41.9612L72.1308 40.4868ZM61.0945 37.936C63.6626 37.936 65.7885 37.1326 67.3375 35.4338L65.8595 34.0862C64.7632 35.2887 63.2197 35.936 61.0945 35.936V37.936ZM67.3267 35.4454C68.8759 33.7993 69.6465 31.7795 69.6465 29.448H67.6465C67.6465 31.2978 67.0518 32.8193 65.8703 34.0746L67.3267 35.4454ZM69.6465 29.448C69.6465 27.1532 68.872 25.1565 67.3267 23.5146L65.8703 24.8854C67.0557 26.1448 67.6465 27.6468 67.6465 29.448H69.6465ZM67.3375 23.5262C65.7885 21.8274 63.6626 21.024 61.0945 21.024V23.024C63.2197 23.024 64.7632 23.6713 65.8595 24.8738L67.3375 23.5262ZM61.0945 21.024C58.4889 21.024 56.3258 21.8237 54.7343 23.5146L56.1907 24.8854C57.3299 23.675 58.9215 23.024 61.0945 23.024V21.024ZM54.7235 23.5262C53.2251 25.1697 52.4785 27.1626 52.4785 29.448H54.4785C54.4785 27.6374 55.0546 26.1316 56.2015 24.8738L54.7235 23.5262ZM52.4785 29.448C52.4785 31.7702 53.2214 33.7862 54.7235 35.4338L56.2015 34.0862C55.0583 32.8325 54.4785 31.3071 54.4785 29.448H52.4785ZM54.7343 35.4454C56.3258 37.1363 58.4889 37.936 61.0945 37.936V35.936C58.9215 35.936 57.3299 35.285 56.1907 34.0746L54.7343 35.4454Z" fill="white"/>
</svg>
