<svg width="126" height="49" viewBox="0 0 126 49" fill="none" xmlns="http://www.w3.org/2000/svg">
<rect width="126" height="48.1091" rx="24.0545" fill="#F1F1F1"/>
<path d="M88.0342 26.0231C88.0342 25.8229 88.0342 25.6975 88.0342 25.5721C88.0342 22.9711 88.0342 20.3722 88.0342 17.7713C88.0342 16.8733 88.3651 16.1634 89.1925 15.771C90.4784 15.1622 91.9318 16.1067 91.9637 17.5731C91.9856 18.5034 91.9676 19.4338 91.9696 20.3641C91.9696 20.4936 91.9696 20.623 91.9696 20.805C92.5338 20.5522 93.0801 20.4733 93.6323 20.6897C94.1846 20.9062 94.5634 21.3147 94.7946 21.8567C96.1902 21.1731 97.2508 21.788 97.7572 22.8478C97.8389 22.8134 97.9246 22.783 98.0064 22.7446C99.3102 22.1439 100.772 23.0642 100.785 24.5204C100.803 26.4397 100.807 28.3611 100.782 30.2805C100.75 32.5558 99.0231 34.7401 96.8381 35.2902C96.3975 35.4015 95.937 35.4702 95.4844 35.4884C94.675 35.5208 93.8616 35.5086 93.0522 35.4965C91.7902 35.4763 90.7376 34.9707 89.8524 34.0666C88.2136 32.392 86.5629 30.7254 84.9182 29.0548C84.3201 28.4481 83.72 27.8413 83.1239 27.2326C82.2586 26.3467 82.4002 25.2384 83.4648 24.6134C84.3799 24.0754 85.3089 24.0815 86.1941 24.664C86.8041 25.0644 87.3723 25.5296 88.0322 26.0211L88.0342 26.0231ZM89.0191 22.2511C89.0191 23.7296 89.0191 25.208 89.0191 26.6885C89.0191 26.7714 89.043 26.8665 89.0131 26.9373C88.9373 27.1213 88.8775 27.3782 88.734 27.451C88.5924 27.5238 88.3133 27.4692 88.1678 27.366C87.3823 26.8018 86.6207 26.2031 85.8492 25.6186C85.2371 25.1554 84.5673 25.1008 83.9752 25.4608C83.4568 25.7784 83.413 26.1141 83.8316 26.5449C83.9134 26.6298 83.9971 26.7148 84.0808 26.7977C86.2339 28.982 88.3891 31.1603 90.5362 33.3506C91.2978 34.1273 92.1929 34.5298 93.2795 34.5014C94.0311 34.4812 94.7846 34.5055 95.5362 34.4934C97.7332 34.4549 99.689 32.6428 99.7867 30.416C99.8724 28.44 99.8146 26.4579 99.8066 24.4779C99.8046 24.0309 99.4797 23.6871 99.0351 23.5718C98.6722 23.4788 98.2097 23.6365 98.0383 24.0026C97.9127 24.2696 97.8768 24.5912 97.8529 24.8925C97.819 25.3011 97.6575 25.5458 97.3564 25.5397C97.0654 25.5336 96.8859 25.3071 96.878 24.9107C96.868 24.4577 96.8899 24.0026 96.866 23.5516C96.8361 22.957 96.4115 22.5464 95.8752 22.5545C95.3349 22.5626 94.9322 22.9873 94.9162 23.5799C94.9043 24.0208 94.9162 24.4617 94.9102 24.9026C94.9043 25.3092 94.7009 25.5519 94.3979 25.5357C94.1088 25.5215 93.9413 25.293 93.9393 24.8945C93.9374 24.1321 93.9513 23.3675 93.9334 22.6051C93.9174 21.9781 93.4669 21.5352 92.9126 21.5594C92.3544 21.5837 91.9716 22.0165 91.9676 22.6354C91.9637 23.3514 91.9676 24.0673 91.9676 24.7813C91.9676 25.2869 91.7982 25.5397 91.4692 25.5357C91.1463 25.5316 90.9888 25.2808 90.9888 24.7671C90.9888 22.4291 90.9947 20.0931 90.9808 17.7551C90.9808 17.5063 90.913 17.2292 90.7934 17.0128C90.588 16.6407 90.1096 16.4951 89.7128 16.6184C89.2982 16.7479 89.023 17.1382 89.0211 17.6317C89.0171 19.1708 89.0211 20.7079 89.0211 22.2471L89.0191 22.2511Z" fill="#89898F"/>
<path d="M81.9716 14.5878C82.2606 14.5878 82.5497 14.5878 82.8388 14.5878C84.0589 14.5878 85.281 14.5878 86.5011 14.5899C86.7942 14.5899 87.0015 14.7173 87.0354 15.0368C87.0673 15.3341 86.8918 15.5344 86.5609 15.5849C86.4572 15.6011 86.3496 15.5951 86.2439 15.5951C85.2232 15.5951 84.2004 15.5951 83.1797 15.5951H81.8878C82.1709 15.8883 82.4022 16.1249 82.6315 16.3616C82.7551 16.489 82.8866 16.6083 82.9983 16.7459C83.1797 16.9704 83.1857 17.2171 82.9783 17.4194C82.773 17.6216 82.5238 17.6176 82.3125 17.4295C82.0493 17.1928 81.8061 16.9319 81.5569 16.6811C81.1741 16.2948 80.7893 15.9085 80.4105 15.5182C80.1075 15.2067 80.1055 14.964 80.4046 14.6566C80.9987 14.0478 81.5968 13.4411 82.1988 12.8404C82.4839 12.5552 82.7511 12.5269 82.9724 12.7393C83.2076 12.9658 83.1837 13.2449 82.8886 13.5483C82.5756 13.8678 82.2527 14.1793 81.9357 14.4928C81.9476 14.5251 81.9596 14.5575 81.9716 14.5878Z" fill="#89898F"/>
<path d="M98.0323 15.5951C97.4721 15.5951 96.9099 15.5951 96.3497 15.5951C95.4804 15.5951 94.6092 15.5951 93.74 15.5951C93.6343 15.5951 93.5267 15.6031 93.423 15.5829C93.1399 15.5263 92.9365 15.3746 92.9645 15.053C92.9904 14.7416 93.1917 14.5939 93.4908 14.5919C94.5255 14.5878 95.5602 14.5899 96.5949 14.5899C97.0733 14.5899 97.5518 14.5899 98.1419 14.5899C97.9246 14.3694 97.7731 14.2157 97.6216 14.06C97.4222 13.8577 97.2149 13.6615 97.0295 13.4472C96.8361 13.2247 96.8441 12.9132 97.0394 12.7393C97.2587 12.5431 97.488 12.5633 97.7093 12.7453C97.7731 12.7979 97.8309 12.8586 97.8887 12.9173C98.447 13.4815 99.0052 14.0438 99.5614 14.6081C99.9143 14.9661 99.9163 15.1926 99.5714 15.5445C98.9912 16.1351 98.4091 16.7256 97.8249 17.3142C97.5359 17.6034 97.2388 17.6378 97.0255 17.4173C96.8142 17.1989 96.852 16.9016 97.1431 16.6063C97.4501 16.2948 97.7651 15.9935 98.0761 15.6881C98.0622 15.6577 98.0502 15.6254 98.0363 15.5951H98.0323Z" fill="#89898F"/>
<path d="M20.7988 25.6051C20.9808 25.7265 21.1931 25.8391 21.4358 25.9431C21.6784 26.0385 21.9341 26.1208 22.2028 26.1901C22.4801 26.2595 22.7618 26.3158 23.0478 26.3591C23.3338 26.4025 23.6154 26.4241 23.8928 26.4241C24.2134 26.4241 24.5081 26.3981 24.7768 26.3461C25.0541 26.2941 25.2924 26.2118 25.4918 26.0991C25.6911 25.9865 25.8471 25.8435 25.9598 25.6701C26.0811 25.4881 26.1418 25.2758 26.1418 25.0331C26.1418 24.8165 26.0941 24.6301 25.9988 24.4741C25.9034 24.3181 25.7691 24.1838 25.5958 24.0711C25.4224 23.9585 25.2101 23.8631 24.9588 23.7851C24.7161 23.7071 24.4431 23.6291 24.1398 23.5511L23.2688 23.3301C22.3068 23.0961 21.5831 22.7105 21.0978 22.1731C20.6124 21.6358 20.3698 20.9728 20.3698 20.1841C20.3698 19.7595 20.4608 19.3695 20.6428 19.0141C20.8248 18.6588 21.0848 18.3555 21.4228 18.1041C21.7608 17.8441 22.1638 17.6448 22.6318 17.5061C23.0998 17.3675 23.6198 17.2981 24.1918 17.2981C24.5211 17.2981 24.8548 17.3241 25.1928 17.3761C25.5394 17.4195 25.8731 17.4845 26.1938 17.5711C26.5144 17.6578 26.8178 17.7575 27.1038 17.8701C27.3984 17.9828 27.6584 18.1085 27.8838 18.2471L27.1428 19.8981C26.7528 19.6468 26.2891 19.4475 25.7518 19.3001C25.2144 19.1528 24.6901 19.0791 24.1788 19.0791C23.9274 19.0791 23.6891 19.1051 23.4638 19.1571C23.2384 19.2005 23.0391 19.2698 22.8658 19.3651C22.6924 19.4605 22.5538 19.5818 22.4498 19.7291C22.3544 19.8678 22.3068 20.0325 22.3068 20.2231C22.3068 20.5698 22.4368 20.8471 22.6968 21.0551C22.9654 21.2631 23.3944 21.4408 23.9838 21.5881L24.8678 21.8091C25.3098 21.9218 25.7258 22.0648 26.1158 22.2381C26.5144 22.4115 26.8611 22.6281 27.1558 22.8881C27.4504 23.1481 27.6844 23.4558 27.8578 23.8111C28.0311 24.1665 28.1178 24.5781 28.1178 25.0461C28.1178 25.5575 28.0094 26.0081 27.7928 26.3981C27.5848 26.7881 27.2944 27.1175 26.9218 27.3861C26.5578 27.6461 26.1201 27.8455 25.6088 27.9841C25.0974 28.1228 24.5428 28.1921 23.9448 28.1921C23.5808 28.1921 23.2124 28.1661 22.8398 28.1141C22.4758 28.0708 22.1248 28.0101 21.7868 27.9321C21.4488 27.8455 21.1324 27.7458 20.8378 27.6331C20.5431 27.5205 20.2831 27.3948 20.0578 27.2561L20.7988 25.6051ZM35.9402 28.0361L34.7052 22.3681L33.4572 28.0361H31.0132L29.0242 20.7171H31.0132L32.3522 26.3071L33.6002 20.7171H35.7972L37.0582 26.3071L38.3842 20.7171H40.3862L38.4362 28.0361H35.9402ZM41.6381 20.7171H43.4581V28.0361H41.6381V20.7171ZM42.5481 19.5731C42.2621 19.5731 42.0107 19.4908 41.7941 19.3261C41.5861 19.1615 41.4821 18.9188 41.4821 18.5981C41.4821 18.3121 41.5817 18.0825 41.7811 17.9091C41.9891 17.7271 42.2447 17.6361 42.5481 17.6361C42.8514 17.6361 43.1027 17.7271 43.3021 17.9091C43.5014 18.0825 43.6011 18.3121 43.6011 18.5981C43.6011 18.8928 43.5014 19.1311 43.3021 19.3131C43.1114 19.4865 42.8601 19.5731 42.5481 19.5731ZM47.3682 26.2681C47.5936 26.3201 47.7972 26.3591 47.9792 26.3851C48.1612 26.4025 48.3389 26.4111 48.5122 26.4111C49.2316 26.4111 49.8036 26.2378 50.2282 25.8911C50.6529 25.5445 50.8652 25.0201 50.8652 24.3181C50.8652 23.6075 50.6529 23.0831 50.2282 22.7451C49.8036 22.4071 49.2316 22.2381 48.5122 22.2381C48.3302 22.2381 48.1439 22.2555 47.9532 22.2901C47.7626 22.3161 47.5676 22.3508 47.3682 22.3941V26.2681ZM47.3682 30.8961H45.5482V20.8471C45.9989 20.7171 46.4712 20.6218 46.9652 20.5611C47.4592 20.4918 47.9662 20.4571 48.4862 20.4571C49.1622 20.4571 49.7646 20.5568 50.2932 20.7561C50.8219 20.9555 51.2682 21.2285 51.6322 21.5751C52.0049 21.9131 52.2866 22.3205 52.4772 22.7971C52.6679 23.2651 52.7632 23.7721 52.7632 24.3181C52.7632 24.8641 52.6636 25.3755 52.4642 25.8521C52.2736 26.3201 51.9962 26.7275 51.6322 27.0741C51.2769 27.4208 50.8436 27.6938 50.3322 27.8931C49.8209 28.0925 49.2532 28.1921 48.6292 28.1921C48.4646 28.1921 48.2739 28.1835 48.0572 28.1661C47.8492 28.1575 47.6196 28.1315 47.3682 28.0881V30.8961ZM58.075 26.4111C58.2656 26.4111 58.465 26.3938 58.673 26.3591C58.8896 26.3245 59.0933 26.2811 59.284 26.2291C59.4833 26.1685 59.6653 26.0991 59.83 26.0211C59.9946 25.9431 60.1246 25.8565 60.22 25.7611L61.026 27.3861C60.636 27.6028 60.1853 27.7935 59.674 27.9581C59.1626 28.1141 58.5473 28.1921 57.828 28.1921C57.2473 28.1921 56.71 28.0968 56.216 27.9061C55.7306 27.7068 55.306 27.4338 54.942 27.0871C54.5866 26.7405 54.3093 26.3331 54.11 25.8651C53.9106 25.3885 53.811 24.8771 53.811 24.3311C53.811 23.7678 53.9106 23.2478 54.11 22.7711C54.318 22.2945 54.5953 21.8871 54.942 21.5491C55.2973 21.2025 55.709 20.9338 56.177 20.7431C56.6536 20.5525 57.1606 20.4571 57.698 20.4571C58.2613 20.4571 58.777 20.5568 59.245 20.7561C59.7216 20.9555 60.129 21.2501 60.467 21.6401C60.805 22.0215 61.065 22.4895 61.247 23.0441C61.429 23.5988 61.507 24.2271 61.481 24.9291H55.683C55.8043 25.4318 56.0556 25.8045 56.437 26.0471C56.827 26.2898 57.308 26.4111 57.88 26.4111H58.075ZM58.92 22.4071C58.582 22.1818 58.166 22.0691 57.672 22.0691C57.178 22.0691 56.762 22.1991 56.424 22.4591C56.086 22.7105 55.8606 23.0311 55.748 23.4211H59.57C59.4746 22.9705 59.258 22.6325 58.92 22.4071Z" fill="#89898F"/>
</svg>
